%TF.GenerationSoftware,KiCad,Pcbnew,7.0.5*%
%TF.CreationDate,2024-02-20T16:44:11+09:00*%
%TF.ProjectId,Arduino_CQbrushless,41726475-696e-46f5-9f43-516272757368,rev?*%
%TF.SameCoordinates,Original*%
%TF.FileFunction,Legend,Top*%
%TF.FilePolarity,Positive*%
%FSLAX46Y46*%
G04 Gerber Fmt 4.6, Leading zero omitted, Abs format (unit mm)*
G04 Created by KiCad (PCBNEW 7.0.5) date 2024-02-20 16:44:11*
%MOMM*%
%LPD*%
G01*
G04 APERTURE LIST*
%ADD10C,0.100000*%
%ADD11C,0.150000*%
%ADD12C,0.254000*%
%ADD13C,0.120000*%
%ADD14C,0.155630*%
%ADD15C,0.200000*%
G04 APERTURE END LIST*
D10*
X114724503Y-82852371D02*
X114524503Y-82566657D01*
X114381646Y-82852371D02*
X114381646Y-82252371D01*
X114381646Y-82252371D02*
X114610217Y-82252371D01*
X114610217Y-82252371D02*
X114667360Y-82280942D01*
X114667360Y-82280942D02*
X114695931Y-82309514D01*
X114695931Y-82309514D02*
X114724503Y-82366657D01*
X114724503Y-82366657D02*
X114724503Y-82452371D01*
X114724503Y-82452371D02*
X114695931Y-82509514D01*
X114695931Y-82509514D02*
X114667360Y-82538085D01*
X114667360Y-82538085D02*
X114610217Y-82566657D01*
X114610217Y-82566657D02*
X114381646Y-82566657D01*
X114953074Y-82823800D02*
X115038789Y-82852371D01*
X115038789Y-82852371D02*
X115181646Y-82852371D01*
X115181646Y-82852371D02*
X115238789Y-82823800D01*
X115238789Y-82823800D02*
X115267360Y-82795228D01*
X115267360Y-82795228D02*
X115295931Y-82738085D01*
X115295931Y-82738085D02*
X115295931Y-82680942D01*
X115295931Y-82680942D02*
X115267360Y-82623800D01*
X115267360Y-82623800D02*
X115238789Y-82595228D01*
X115238789Y-82595228D02*
X115181646Y-82566657D01*
X115181646Y-82566657D02*
X115067360Y-82538085D01*
X115067360Y-82538085D02*
X115010217Y-82509514D01*
X115010217Y-82509514D02*
X114981646Y-82480942D01*
X114981646Y-82480942D02*
X114953074Y-82423800D01*
X114953074Y-82423800D02*
X114953074Y-82366657D01*
X114953074Y-82366657D02*
X114981646Y-82309514D01*
X114981646Y-82309514D02*
X115010217Y-82280942D01*
X115010217Y-82280942D02*
X115067360Y-82252371D01*
X115067360Y-82252371D02*
X115210217Y-82252371D01*
X115210217Y-82252371D02*
X115295931Y-82280942D01*
X115467360Y-82252371D02*
X115810218Y-82252371D01*
X115638789Y-82852371D02*
X115638789Y-82252371D01*
X115981646Y-82309514D02*
X116010218Y-82280942D01*
X116010218Y-82280942D02*
X116067361Y-82252371D01*
X116067361Y-82252371D02*
X116210218Y-82252371D01*
X116210218Y-82252371D02*
X116267361Y-82280942D01*
X116267361Y-82280942D02*
X116295932Y-82309514D01*
X116295932Y-82309514D02*
X116324503Y-82366657D01*
X116324503Y-82366657D02*
X116324503Y-82423800D01*
X116324503Y-82423800D02*
X116295932Y-82509514D01*
X116295932Y-82509514D02*
X115953075Y-82852371D01*
X115953075Y-82852371D02*
X116324503Y-82852371D01*
D11*
X116890969Y-130949819D02*
X116414779Y-130949819D01*
X116414779Y-130949819D02*
X116367160Y-131426009D01*
X116367160Y-131426009D02*
X116414779Y-131378390D01*
X116414779Y-131378390D02*
X116510017Y-131330771D01*
X116510017Y-131330771D02*
X116748112Y-131330771D01*
X116748112Y-131330771D02*
X116843350Y-131378390D01*
X116843350Y-131378390D02*
X116890969Y-131426009D01*
X116890969Y-131426009D02*
X116938588Y-131521247D01*
X116938588Y-131521247D02*
X116938588Y-131759342D01*
X116938588Y-131759342D02*
X116890969Y-131854580D01*
X116890969Y-131854580D02*
X116843350Y-131902200D01*
X116843350Y-131902200D02*
X116748112Y-131949819D01*
X116748112Y-131949819D02*
X116510017Y-131949819D01*
X116510017Y-131949819D02*
X116414779Y-131902200D01*
X116414779Y-131902200D02*
X116367160Y-131854580D01*
X117224303Y-130949819D02*
X117557636Y-131949819D01*
X117557636Y-131949819D02*
X117890969Y-130949819D01*
X147656779Y-92579819D02*
X147656779Y-91579819D01*
X147656779Y-92056009D02*
X148228207Y-92056009D01*
X148228207Y-92579819D02*
X148228207Y-91579819D01*
X148704398Y-91579819D02*
X148704398Y-92389342D01*
X148704398Y-92389342D02*
X148752017Y-92484580D01*
X148752017Y-92484580D02*
X148799636Y-92532200D01*
X148799636Y-92532200D02*
X148894874Y-92579819D01*
X148894874Y-92579819D02*
X149085350Y-92579819D01*
X149085350Y-92579819D02*
X149180588Y-92532200D01*
X149180588Y-92532200D02*
X149228207Y-92484580D01*
X149228207Y-92484580D02*
X149275826Y-92389342D01*
X149275826Y-92389342D02*
X149275826Y-91579819D01*
X94332636Y-95373819D02*
X94237398Y-95326200D01*
X94237398Y-95326200D02*
X94189779Y-95230961D01*
X94189779Y-95230961D02*
X94189779Y-94373819D01*
X94618351Y-94707152D02*
X94808827Y-95373819D01*
X94808827Y-95373819D02*
X94999303Y-94897628D01*
X94999303Y-94897628D02*
X95189779Y-95373819D01*
X95189779Y-95373819D02*
X95380255Y-94707152D01*
X96285017Y-95373819D02*
X95713589Y-95373819D01*
X95999303Y-95373819D02*
X95999303Y-94373819D01*
X95999303Y-94373819D02*
X95904065Y-94516676D01*
X95904065Y-94516676D02*
X95808827Y-94611914D01*
X95808827Y-94611914D02*
X95713589Y-94659533D01*
X112153819Y-84150030D02*
X112153819Y-84626220D01*
X112153819Y-84626220D02*
X112630009Y-84673839D01*
X112630009Y-84673839D02*
X112582390Y-84626220D01*
X112582390Y-84626220D02*
X112534771Y-84530982D01*
X112534771Y-84530982D02*
X112534771Y-84292887D01*
X112534771Y-84292887D02*
X112582390Y-84197649D01*
X112582390Y-84197649D02*
X112630009Y-84150030D01*
X112630009Y-84150030D02*
X112725247Y-84102411D01*
X112725247Y-84102411D02*
X112963342Y-84102411D01*
X112963342Y-84102411D02*
X113058580Y-84150030D01*
X113058580Y-84150030D02*
X113106200Y-84197649D01*
X113106200Y-84197649D02*
X113153819Y-84292887D01*
X113153819Y-84292887D02*
X113153819Y-84530982D01*
X113153819Y-84530982D02*
X113106200Y-84626220D01*
X113106200Y-84626220D02*
X113058580Y-84673839D01*
X112153819Y-83816696D02*
X113153819Y-83483363D01*
X113153819Y-83483363D02*
X112153819Y-83150030D01*
X112249057Y-82864315D02*
X112201438Y-82816696D01*
X112201438Y-82816696D02*
X112153819Y-82721458D01*
X112153819Y-82721458D02*
X112153819Y-82483363D01*
X112153819Y-82483363D02*
X112201438Y-82388125D01*
X112201438Y-82388125D02*
X112249057Y-82340506D01*
X112249057Y-82340506D02*
X112344295Y-82292887D01*
X112344295Y-82292887D02*
X112439533Y-82292887D01*
X112439533Y-82292887D02*
X112582390Y-82340506D01*
X112582390Y-82340506D02*
X113153819Y-82911934D01*
X113153819Y-82911934D02*
X113153819Y-82292887D01*
X89093922Y-150888819D02*
X89427255Y-151888819D01*
X89427255Y-151888819D02*
X89760588Y-150888819D01*
X90093922Y-151222152D02*
X90093922Y-151888819D01*
X90093922Y-151317390D02*
X90141541Y-151269771D01*
X90141541Y-151269771D02*
X90236779Y-151222152D01*
X90236779Y-151222152D02*
X90379636Y-151222152D01*
X90379636Y-151222152D02*
X90474874Y-151269771D01*
X90474874Y-151269771D02*
X90522493Y-151365009D01*
X90522493Y-151365009D02*
X90522493Y-151888819D01*
X94015160Y-99914104D02*
X94491350Y-99914104D01*
X93919922Y-100199819D02*
X94253255Y-99199819D01*
X94253255Y-99199819D02*
X94586588Y-100199819D01*
X95491350Y-100104580D02*
X95443731Y-100152200D01*
X95443731Y-100152200D02*
X95300874Y-100199819D01*
X95300874Y-100199819D02*
X95205636Y-100199819D01*
X95205636Y-100199819D02*
X95062779Y-100152200D01*
X95062779Y-100152200D02*
X94967541Y-100056961D01*
X94967541Y-100056961D02*
X94919922Y-99961723D01*
X94919922Y-99961723D02*
X94872303Y-99771247D01*
X94872303Y-99771247D02*
X94872303Y-99628390D01*
X94872303Y-99628390D02*
X94919922Y-99437914D01*
X94919922Y-99437914D02*
X94967541Y-99342676D01*
X94967541Y-99342676D02*
X95062779Y-99247438D01*
X95062779Y-99247438D02*
X95205636Y-99199819D01*
X95205636Y-99199819D02*
X95300874Y-99199819D01*
X95300874Y-99199819D02*
X95443731Y-99247438D01*
X95443731Y-99247438D02*
X95491350Y-99295057D01*
X96491350Y-100104580D02*
X96443731Y-100152200D01*
X96443731Y-100152200D02*
X96300874Y-100199819D01*
X96300874Y-100199819D02*
X96205636Y-100199819D01*
X96205636Y-100199819D02*
X96062779Y-100152200D01*
X96062779Y-100152200D02*
X95967541Y-100056961D01*
X95967541Y-100056961D02*
X95919922Y-99961723D01*
X95919922Y-99961723D02*
X95872303Y-99771247D01*
X95872303Y-99771247D02*
X95872303Y-99628390D01*
X95872303Y-99628390D02*
X95919922Y-99437914D01*
X95919922Y-99437914D02*
X95967541Y-99342676D01*
X95967541Y-99342676D02*
X96062779Y-99247438D01*
X96062779Y-99247438D02*
X96205636Y-99199819D01*
X96205636Y-99199819D02*
X96300874Y-99199819D01*
X96300874Y-99199819D02*
X96443731Y-99247438D01*
X96443731Y-99247438D02*
X96491350Y-99295057D01*
X96919922Y-99676009D02*
X97253255Y-99676009D01*
X97396112Y-100199819D02*
X96919922Y-100199819D01*
X96919922Y-100199819D02*
X96919922Y-99199819D01*
X96919922Y-99199819D02*
X97396112Y-99199819D01*
X98300874Y-100199819D02*
X97824684Y-100199819D01*
X97824684Y-100199819D02*
X97824684Y-99199819D01*
D10*
X117147074Y-82823800D02*
X117232789Y-82852371D01*
X117232789Y-82852371D02*
X117375646Y-82852371D01*
X117375646Y-82852371D02*
X117432789Y-82823800D01*
X117432789Y-82823800D02*
X117461360Y-82795228D01*
X117461360Y-82795228D02*
X117489931Y-82738085D01*
X117489931Y-82738085D02*
X117489931Y-82680942D01*
X117489931Y-82680942D02*
X117461360Y-82623800D01*
X117461360Y-82623800D02*
X117432789Y-82595228D01*
X117432789Y-82595228D02*
X117375646Y-82566657D01*
X117375646Y-82566657D02*
X117261360Y-82538085D01*
X117261360Y-82538085D02*
X117204217Y-82509514D01*
X117204217Y-82509514D02*
X117175646Y-82480942D01*
X117175646Y-82480942D02*
X117147074Y-82423800D01*
X117147074Y-82423800D02*
X117147074Y-82366657D01*
X117147074Y-82366657D02*
X117175646Y-82309514D01*
X117175646Y-82309514D02*
X117204217Y-82280942D01*
X117204217Y-82280942D02*
X117261360Y-82252371D01*
X117261360Y-82252371D02*
X117404217Y-82252371D01*
X117404217Y-82252371D02*
X117489931Y-82280942D01*
X118089932Y-82795228D02*
X118061360Y-82823800D01*
X118061360Y-82823800D02*
X117975646Y-82852371D01*
X117975646Y-82852371D02*
X117918503Y-82852371D01*
X117918503Y-82852371D02*
X117832789Y-82823800D01*
X117832789Y-82823800D02*
X117775646Y-82766657D01*
X117775646Y-82766657D02*
X117747075Y-82709514D01*
X117747075Y-82709514D02*
X117718503Y-82595228D01*
X117718503Y-82595228D02*
X117718503Y-82509514D01*
X117718503Y-82509514D02*
X117747075Y-82395228D01*
X117747075Y-82395228D02*
X117775646Y-82338085D01*
X117775646Y-82338085D02*
X117832789Y-82280942D01*
X117832789Y-82280942D02*
X117918503Y-82252371D01*
X117918503Y-82252371D02*
X117975646Y-82252371D01*
X117975646Y-82252371D02*
X118061360Y-82280942D01*
X118061360Y-82280942D02*
X118089932Y-82309514D01*
X118347075Y-82852371D02*
X118347075Y-82252371D01*
X118689932Y-82852371D02*
X118432789Y-82509514D01*
X118689932Y-82252371D02*
X118347075Y-82595228D01*
D11*
X136052160Y-126965104D02*
X136528350Y-126965104D01*
X135956922Y-127250819D02*
X136290255Y-126250819D01*
X136290255Y-126250819D02*
X136623588Y-127250819D01*
X137528350Y-127250819D02*
X137195017Y-126774628D01*
X136956922Y-127250819D02*
X136956922Y-126250819D01*
X136956922Y-126250819D02*
X137337874Y-126250819D01*
X137337874Y-126250819D02*
X137433112Y-126298438D01*
X137433112Y-126298438D02*
X137480731Y-126346057D01*
X137480731Y-126346057D02*
X137528350Y-126441295D01*
X137528350Y-126441295D02*
X137528350Y-126584152D01*
X137528350Y-126584152D02*
X137480731Y-126679390D01*
X137480731Y-126679390D02*
X137433112Y-126727009D01*
X137433112Y-126727009D02*
X137337874Y-126774628D01*
X137337874Y-126774628D02*
X136956922Y-126774628D01*
X137956922Y-126727009D02*
X138290255Y-126727009D01*
X138433112Y-127250819D02*
X137956922Y-127250819D01*
X137956922Y-127250819D02*
X137956922Y-126250819D01*
X137956922Y-126250819D02*
X138433112Y-126250819D01*
X139195017Y-126727009D02*
X138861684Y-126727009D01*
X138861684Y-127250819D02*
X138861684Y-126250819D01*
X138861684Y-126250819D02*
X139337874Y-126250819D01*
X81870779Y-98675819D02*
X81870779Y-97675819D01*
X81870779Y-97675819D02*
X82108874Y-97675819D01*
X82108874Y-97675819D02*
X82251731Y-97723438D01*
X82251731Y-97723438D02*
X82346969Y-97818676D01*
X82346969Y-97818676D02*
X82394588Y-97913914D01*
X82394588Y-97913914D02*
X82442207Y-98104390D01*
X82442207Y-98104390D02*
X82442207Y-98247247D01*
X82442207Y-98247247D02*
X82394588Y-98437723D01*
X82394588Y-98437723D02*
X82346969Y-98532961D01*
X82346969Y-98532961D02*
X82251731Y-98628200D01*
X82251731Y-98628200D02*
X82108874Y-98675819D01*
X82108874Y-98675819D02*
X81870779Y-98675819D01*
X83394588Y-98675819D02*
X82823160Y-98675819D01*
X83108874Y-98675819D02*
X83108874Y-97675819D01*
X83108874Y-97675819D02*
X83013636Y-97818676D01*
X83013636Y-97818676D02*
X82918398Y-97913914D01*
X82918398Y-97913914D02*
X82823160Y-97961533D01*
X83775541Y-97771057D02*
X83823160Y-97723438D01*
X83823160Y-97723438D02*
X83918398Y-97675819D01*
X83918398Y-97675819D02*
X84156493Y-97675819D01*
X84156493Y-97675819D02*
X84251731Y-97723438D01*
X84251731Y-97723438D02*
X84299350Y-97771057D01*
X84299350Y-97771057D02*
X84346969Y-97866295D01*
X84346969Y-97866295D02*
X84346969Y-97961533D01*
X84346969Y-97961533D02*
X84299350Y-98104390D01*
X84299350Y-98104390D02*
X83727922Y-98675819D01*
X83727922Y-98675819D02*
X84346969Y-98675819D01*
D10*
X124541646Y-80439371D02*
X124541646Y-79839371D01*
X124541646Y-79839371D02*
X124741646Y-80267942D01*
X124741646Y-80267942D02*
X124941646Y-79839371D01*
X124941646Y-79839371D02*
X124941646Y-80439371D01*
X125227360Y-80439371D02*
X125227360Y-79839371D01*
X125484502Y-80410800D02*
X125570217Y-80439371D01*
X125570217Y-80439371D02*
X125713074Y-80439371D01*
X125713074Y-80439371D02*
X125770217Y-80410800D01*
X125770217Y-80410800D02*
X125798788Y-80382228D01*
X125798788Y-80382228D02*
X125827359Y-80325085D01*
X125827359Y-80325085D02*
X125827359Y-80267942D01*
X125827359Y-80267942D02*
X125798788Y-80210800D01*
X125798788Y-80210800D02*
X125770217Y-80182228D01*
X125770217Y-80182228D02*
X125713074Y-80153657D01*
X125713074Y-80153657D02*
X125598788Y-80125085D01*
X125598788Y-80125085D02*
X125541645Y-80096514D01*
X125541645Y-80096514D02*
X125513074Y-80067942D01*
X125513074Y-80067942D02*
X125484502Y-80010800D01*
X125484502Y-80010800D02*
X125484502Y-79953657D01*
X125484502Y-79953657D02*
X125513074Y-79896514D01*
X125513074Y-79896514D02*
X125541645Y-79867942D01*
X125541645Y-79867942D02*
X125598788Y-79839371D01*
X125598788Y-79839371D02*
X125741645Y-79839371D01*
X125741645Y-79839371D02*
X125827359Y-79867942D01*
X126198788Y-79839371D02*
X126313074Y-79839371D01*
X126313074Y-79839371D02*
X126370217Y-79867942D01*
X126370217Y-79867942D02*
X126427360Y-79925085D01*
X126427360Y-79925085D02*
X126455931Y-80039371D01*
X126455931Y-80039371D02*
X126455931Y-80239371D01*
X126455931Y-80239371D02*
X126427360Y-80353657D01*
X126427360Y-80353657D02*
X126370217Y-80410800D01*
X126370217Y-80410800D02*
X126313074Y-80439371D01*
X126313074Y-80439371D02*
X126198788Y-80439371D01*
X126198788Y-80439371D02*
X126141646Y-80410800D01*
X126141646Y-80410800D02*
X126084503Y-80353657D01*
X126084503Y-80353657D02*
X126055931Y-80239371D01*
X126055931Y-80239371D02*
X126055931Y-80039371D01*
X126055931Y-80039371D02*
X126084503Y-79925085D01*
X126084503Y-79925085D02*
X126141646Y-79867942D01*
X126141646Y-79867942D02*
X126198788Y-79839371D01*
D11*
X141433779Y-137426819D02*
X141433779Y-138236342D01*
X141433779Y-138236342D02*
X141481398Y-138331580D01*
X141481398Y-138331580D02*
X141529017Y-138379200D01*
X141529017Y-138379200D02*
X141624255Y-138426819D01*
X141624255Y-138426819D02*
X141814731Y-138426819D01*
X141814731Y-138426819D02*
X141909969Y-138379200D01*
X141909969Y-138379200D02*
X141957588Y-138331580D01*
X141957588Y-138331580D02*
X142005207Y-138236342D01*
X142005207Y-138236342D02*
X142005207Y-137426819D01*
X142481398Y-137760152D02*
X142481398Y-138760152D01*
X142481398Y-137807771D02*
X142576636Y-137760152D01*
X142576636Y-137760152D02*
X142767112Y-137760152D01*
X142767112Y-137760152D02*
X142862350Y-137807771D01*
X142862350Y-137807771D02*
X142909969Y-137855390D01*
X142909969Y-137855390D02*
X142957588Y-137950628D01*
X142957588Y-137950628D02*
X142957588Y-138236342D01*
X142957588Y-138236342D02*
X142909969Y-138331580D01*
X142909969Y-138331580D02*
X142862350Y-138379200D01*
X142862350Y-138379200D02*
X142767112Y-138426819D01*
X142767112Y-138426819D02*
X142576636Y-138426819D01*
X142576636Y-138426819D02*
X142481398Y-138379200D01*
X90728969Y-127520819D02*
X90252779Y-127520819D01*
X90252779Y-127520819D02*
X90205160Y-127997009D01*
X90205160Y-127997009D02*
X90252779Y-127949390D01*
X90252779Y-127949390D02*
X90348017Y-127901771D01*
X90348017Y-127901771D02*
X90586112Y-127901771D01*
X90586112Y-127901771D02*
X90681350Y-127949390D01*
X90681350Y-127949390D02*
X90728969Y-127997009D01*
X90728969Y-127997009D02*
X90776588Y-128092247D01*
X90776588Y-128092247D02*
X90776588Y-128330342D01*
X90776588Y-128330342D02*
X90728969Y-128425580D01*
X90728969Y-128425580D02*
X90681350Y-128473200D01*
X90681350Y-128473200D02*
X90586112Y-128520819D01*
X90586112Y-128520819D02*
X90348017Y-128520819D01*
X90348017Y-128520819D02*
X90252779Y-128473200D01*
X90252779Y-128473200D02*
X90205160Y-128425580D01*
X91062303Y-127520819D02*
X91395636Y-128520819D01*
X91395636Y-128520819D02*
X91728969Y-127520819D01*
X94396112Y-92183009D02*
X94538969Y-92230628D01*
X94538969Y-92230628D02*
X94586588Y-92278247D01*
X94586588Y-92278247D02*
X94634207Y-92373485D01*
X94634207Y-92373485D02*
X94634207Y-92516342D01*
X94634207Y-92516342D02*
X94586588Y-92611580D01*
X94586588Y-92611580D02*
X94538969Y-92659200D01*
X94538969Y-92659200D02*
X94443731Y-92706819D01*
X94443731Y-92706819D02*
X94062779Y-92706819D01*
X94062779Y-92706819D02*
X94062779Y-91706819D01*
X94062779Y-91706819D02*
X94396112Y-91706819D01*
X94396112Y-91706819D02*
X94491350Y-91754438D01*
X94491350Y-91754438D02*
X94538969Y-91802057D01*
X94538969Y-91802057D02*
X94586588Y-91897295D01*
X94586588Y-91897295D02*
X94586588Y-91992533D01*
X94586588Y-91992533D02*
X94538969Y-92087771D01*
X94538969Y-92087771D02*
X94491350Y-92135390D01*
X94491350Y-92135390D02*
X94396112Y-92183009D01*
X94396112Y-92183009D02*
X94062779Y-92183009D01*
X95015160Y-92421104D02*
X95491350Y-92421104D01*
X94919922Y-92706819D02*
X95253255Y-91706819D01*
X95253255Y-91706819D02*
X95586588Y-92706819D01*
X95777065Y-91706819D02*
X96348493Y-91706819D01*
X96062779Y-92706819D02*
X96062779Y-91706819D01*
X96538970Y-91706819D02*
X97110398Y-91706819D01*
X96824684Y-92706819D02*
X96824684Y-91706819D01*
X129298893Y-79521133D02*
X129298893Y-80235419D01*
X129536988Y-79187800D02*
X129441750Y-79330657D01*
X129441750Y-79330657D02*
X129298893Y-79521133D01*
X129298893Y-79521133D02*
X129108417Y-79663990D01*
X129108417Y-79663990D02*
X128965560Y-79759228D01*
X130060798Y-79330657D02*
X130251274Y-79521133D01*
X130060798Y-80092561D02*
X130298893Y-80044942D01*
X130298893Y-80044942D02*
X130441750Y-79902085D01*
X130441750Y-79902085D02*
X130536988Y-79759228D01*
X130536988Y-79759228D02*
X130632226Y-79425895D01*
X131536988Y-79425895D02*
X131727464Y-79997323D01*
X131298893Y-79425895D02*
X131251274Y-79663990D01*
X131251274Y-79663990D02*
X131156036Y-79854466D01*
X131156036Y-79854466D02*
X131060798Y-79997323D01*
X131584607Y-79330657D02*
X131679845Y-79425895D01*
X131727464Y-79283038D02*
X131822702Y-79378276D01*
X132060798Y-79711609D02*
X132822702Y-79711609D01*
X133346512Y-79521133D02*
X133584607Y-79806847D01*
X133394131Y-79140180D02*
X133346512Y-79330657D01*
X133346512Y-79330657D02*
X133298893Y-79521133D01*
X133298893Y-79521133D02*
X133203655Y-79711609D01*
X133394131Y-79330657D02*
X133727464Y-79330657D01*
X133727464Y-79330657D02*
X133679845Y-79521133D01*
X133679845Y-79521133D02*
X133632226Y-79711609D01*
X133632226Y-79711609D02*
X133584607Y-79902085D01*
X133584607Y-79902085D02*
X133489369Y-80044942D01*
X133489369Y-80044942D02*
X133346512Y-80187800D01*
X134489369Y-79711609D02*
X134584607Y-79711609D01*
X134584607Y-79711609D02*
X134632226Y-79759228D01*
X134632226Y-79759228D02*
X134632226Y-79854466D01*
X134632226Y-79854466D02*
X134584607Y-79902085D01*
X134584607Y-79902085D02*
X134489369Y-79902085D01*
X134489369Y-79902085D02*
X134441750Y-79854466D01*
X134441750Y-79854466D02*
X134441750Y-79759228D01*
X134441750Y-79759228D02*
X134489369Y-79711609D01*
X135346512Y-79521133D02*
X135727464Y-79425895D01*
X135298893Y-79854466D02*
X135870321Y-79711609D01*
X135489369Y-79140180D02*
X135679845Y-80187800D01*
X136346512Y-79521133D02*
X136441750Y-79759228D01*
X136584607Y-79473514D02*
X136632226Y-79711609D01*
X136870321Y-79521133D02*
X136870321Y-79759228D01*
X136870321Y-79759228D02*
X136822702Y-79902085D01*
X136822702Y-79902085D02*
X136679845Y-80044942D01*
X136679845Y-80044942D02*
X136536988Y-80140180D01*
X137679845Y-79140180D02*
X137679845Y-80187800D01*
X137679845Y-79568752D02*
X137965559Y-79806847D01*
X138394131Y-79330657D02*
X138441750Y-79283038D01*
X138441750Y-79283038D02*
X138536988Y-79235419D01*
X138536988Y-79235419D02*
X138775083Y-79235419D01*
X138775083Y-79235419D02*
X138870321Y-79283038D01*
X138870321Y-79283038D02*
X138917940Y-79330657D01*
X138917940Y-79330657D02*
X138965559Y-79425895D01*
X138965559Y-79425895D02*
X138965559Y-79521133D01*
X138965559Y-79521133D02*
X138917940Y-79663990D01*
X138917940Y-79663990D02*
X138346512Y-80235419D01*
X138346512Y-80235419D02*
X138965559Y-80235419D01*
X140108417Y-79949704D02*
X140584607Y-79949704D01*
X140013179Y-80235419D02*
X140346512Y-79235419D01*
X140346512Y-79235419D02*
X140679845Y-80235419D01*
X141013179Y-80235419D02*
X141013179Y-79568752D01*
X141013179Y-79759228D02*
X141060798Y-79663990D01*
X141060798Y-79663990D02*
X141108417Y-79616371D01*
X141108417Y-79616371D02*
X141203655Y-79568752D01*
X141203655Y-79568752D02*
X141298893Y-79568752D01*
X142060798Y-80235419D02*
X142060798Y-79235419D01*
X142060798Y-80187800D02*
X141965560Y-80235419D01*
X141965560Y-80235419D02*
X141775084Y-80235419D01*
X141775084Y-80235419D02*
X141679846Y-80187800D01*
X141679846Y-80187800D02*
X141632227Y-80140180D01*
X141632227Y-80140180D02*
X141584608Y-80044942D01*
X141584608Y-80044942D02*
X141584608Y-79759228D01*
X141584608Y-79759228D02*
X141632227Y-79663990D01*
X141632227Y-79663990D02*
X141679846Y-79616371D01*
X141679846Y-79616371D02*
X141775084Y-79568752D01*
X141775084Y-79568752D02*
X141965560Y-79568752D01*
X141965560Y-79568752D02*
X142060798Y-79616371D01*
X142965560Y-79568752D02*
X142965560Y-80235419D01*
X142536989Y-79568752D02*
X142536989Y-80092561D01*
X142536989Y-80092561D02*
X142584608Y-80187800D01*
X142584608Y-80187800D02*
X142679846Y-80235419D01*
X142679846Y-80235419D02*
X142822703Y-80235419D01*
X142822703Y-80235419D02*
X142917941Y-80187800D01*
X142917941Y-80187800D02*
X142965560Y-80140180D01*
X143441751Y-80235419D02*
X143441751Y-79568752D01*
X143441751Y-79235419D02*
X143394132Y-79283038D01*
X143394132Y-79283038D02*
X143441751Y-79330657D01*
X143441751Y-79330657D02*
X143489370Y-79283038D01*
X143489370Y-79283038D02*
X143441751Y-79235419D01*
X143441751Y-79235419D02*
X143441751Y-79330657D01*
X143917941Y-79568752D02*
X143917941Y-80235419D01*
X143917941Y-79663990D02*
X143965560Y-79616371D01*
X143965560Y-79616371D02*
X144060798Y-79568752D01*
X144060798Y-79568752D02*
X144203655Y-79568752D01*
X144203655Y-79568752D02*
X144298893Y-79616371D01*
X144298893Y-79616371D02*
X144346512Y-79711609D01*
X144346512Y-79711609D02*
X144346512Y-80235419D01*
X144965560Y-80235419D02*
X144870322Y-80187800D01*
X144870322Y-80187800D02*
X144822703Y-80140180D01*
X144822703Y-80140180D02*
X144775084Y-80044942D01*
X144775084Y-80044942D02*
X144775084Y-79759228D01*
X144775084Y-79759228D02*
X144822703Y-79663990D01*
X144822703Y-79663990D02*
X144870322Y-79616371D01*
X144870322Y-79616371D02*
X144965560Y-79568752D01*
X144965560Y-79568752D02*
X145108417Y-79568752D01*
X145108417Y-79568752D02*
X145203655Y-79616371D01*
X145203655Y-79616371D02*
X145251274Y-79663990D01*
X145251274Y-79663990D02*
X145298893Y-79759228D01*
X145298893Y-79759228D02*
X145298893Y-80044942D01*
X145298893Y-80044942D02*
X145251274Y-80140180D01*
X145251274Y-80140180D02*
X145203655Y-80187800D01*
X145203655Y-80187800D02*
X145108417Y-80235419D01*
X145108417Y-80235419D02*
X144965560Y-80235419D01*
X146346513Y-79235419D02*
X146679846Y-80235419D01*
X146679846Y-80235419D02*
X147013179Y-79235419D01*
X147727465Y-80187800D02*
X147632227Y-80235419D01*
X147632227Y-80235419D02*
X147441751Y-80235419D01*
X147441751Y-80235419D02*
X147346513Y-80187800D01*
X147346513Y-80187800D02*
X147298894Y-80092561D01*
X147298894Y-80092561D02*
X147298894Y-79711609D01*
X147298894Y-79711609D02*
X147346513Y-79616371D01*
X147346513Y-79616371D02*
X147441751Y-79568752D01*
X147441751Y-79568752D02*
X147632227Y-79568752D01*
X147632227Y-79568752D02*
X147727465Y-79616371D01*
X147727465Y-79616371D02*
X147775084Y-79711609D01*
X147775084Y-79711609D02*
X147775084Y-79806847D01*
X147775084Y-79806847D02*
X147298894Y-79902085D01*
X148203656Y-80235419D02*
X148203656Y-79568752D01*
X148203656Y-79759228D02*
X148251275Y-79663990D01*
X148251275Y-79663990D02*
X148298894Y-79616371D01*
X148298894Y-79616371D02*
X148394132Y-79568752D01*
X148394132Y-79568752D02*
X148489370Y-79568752D01*
X149775085Y-79235419D02*
X149870323Y-79235419D01*
X149870323Y-79235419D02*
X149965561Y-79283038D01*
X149965561Y-79283038D02*
X150013180Y-79330657D01*
X150013180Y-79330657D02*
X150060799Y-79425895D01*
X150060799Y-79425895D02*
X150108418Y-79616371D01*
X150108418Y-79616371D02*
X150108418Y-79854466D01*
X150108418Y-79854466D02*
X150060799Y-80044942D01*
X150060799Y-80044942D02*
X150013180Y-80140180D01*
X150013180Y-80140180D02*
X149965561Y-80187800D01*
X149965561Y-80187800D02*
X149870323Y-80235419D01*
X149870323Y-80235419D02*
X149775085Y-80235419D01*
X149775085Y-80235419D02*
X149679847Y-80187800D01*
X149679847Y-80187800D02*
X149632228Y-80140180D01*
X149632228Y-80140180D02*
X149584609Y-80044942D01*
X149584609Y-80044942D02*
X149536990Y-79854466D01*
X149536990Y-79854466D02*
X149536990Y-79616371D01*
X149536990Y-79616371D02*
X149584609Y-79425895D01*
X149584609Y-79425895D02*
X149632228Y-79330657D01*
X149632228Y-79330657D02*
X149679847Y-79283038D01*
X149679847Y-79283038D02*
X149775085Y-79235419D01*
X150536990Y-80140180D02*
X150584609Y-80187800D01*
X150584609Y-80187800D02*
X150536990Y-80235419D01*
X150536990Y-80235419D02*
X150489371Y-80187800D01*
X150489371Y-80187800D02*
X150536990Y-80140180D01*
X150536990Y-80140180D02*
X150536990Y-80235419D01*
X151441751Y-79568752D02*
X151441751Y-80235419D01*
X151203656Y-79187800D02*
X150965561Y-79902085D01*
X150965561Y-79902085D02*
X151584608Y-79902085D01*
X94538969Y-112026819D02*
X94062779Y-112026819D01*
X94062779Y-112026819D02*
X94015160Y-112503009D01*
X94015160Y-112503009D02*
X94062779Y-112455390D01*
X94062779Y-112455390D02*
X94158017Y-112407771D01*
X94158017Y-112407771D02*
X94396112Y-112407771D01*
X94396112Y-112407771D02*
X94491350Y-112455390D01*
X94491350Y-112455390D02*
X94538969Y-112503009D01*
X94538969Y-112503009D02*
X94586588Y-112598247D01*
X94586588Y-112598247D02*
X94586588Y-112836342D01*
X94586588Y-112836342D02*
X94538969Y-112931580D01*
X94538969Y-112931580D02*
X94491350Y-112979200D01*
X94491350Y-112979200D02*
X94396112Y-113026819D01*
X94396112Y-113026819D02*
X94158017Y-113026819D01*
X94158017Y-113026819D02*
X94062779Y-112979200D01*
X94062779Y-112979200D02*
X94015160Y-112931580D01*
X94872303Y-112026819D02*
X95205636Y-113026819D01*
X95205636Y-113026819D02*
X95538969Y-112026819D01*
X148183769Y-104940219D02*
X147707579Y-104940219D01*
X147707579Y-104940219D02*
X147659960Y-105416409D01*
X147659960Y-105416409D02*
X147707579Y-105368790D01*
X147707579Y-105368790D02*
X147802817Y-105321171D01*
X147802817Y-105321171D02*
X148040912Y-105321171D01*
X148040912Y-105321171D02*
X148136150Y-105368790D01*
X148136150Y-105368790D02*
X148183769Y-105416409D01*
X148183769Y-105416409D02*
X148231388Y-105511647D01*
X148231388Y-105511647D02*
X148231388Y-105749742D01*
X148231388Y-105749742D02*
X148183769Y-105844980D01*
X148183769Y-105844980D02*
X148136150Y-105892600D01*
X148136150Y-105892600D02*
X148040912Y-105940219D01*
X148040912Y-105940219D02*
X147802817Y-105940219D01*
X147802817Y-105940219D02*
X147707579Y-105892600D01*
X147707579Y-105892600D02*
X147659960Y-105844980D01*
X148517103Y-104940219D02*
X148850436Y-105940219D01*
X148850436Y-105940219D02*
X149183769Y-104940219D01*
X90728969Y-129933819D02*
X90252779Y-129933819D01*
X90252779Y-129933819D02*
X90205160Y-130410009D01*
X90205160Y-130410009D02*
X90252779Y-130362390D01*
X90252779Y-130362390D02*
X90348017Y-130314771D01*
X90348017Y-130314771D02*
X90586112Y-130314771D01*
X90586112Y-130314771D02*
X90681350Y-130362390D01*
X90681350Y-130362390D02*
X90728969Y-130410009D01*
X90728969Y-130410009D02*
X90776588Y-130505247D01*
X90776588Y-130505247D02*
X90776588Y-130743342D01*
X90776588Y-130743342D02*
X90728969Y-130838580D01*
X90728969Y-130838580D02*
X90681350Y-130886200D01*
X90681350Y-130886200D02*
X90586112Y-130933819D01*
X90586112Y-130933819D02*
X90348017Y-130933819D01*
X90348017Y-130933819D02*
X90252779Y-130886200D01*
X90252779Y-130886200D02*
X90205160Y-130838580D01*
X91062303Y-129933819D02*
X91395636Y-130933819D01*
X91395636Y-130933819D02*
X91728969Y-129933819D01*
X103444922Y-137553819D02*
X103778255Y-138553819D01*
X103778255Y-138553819D02*
X104111588Y-137553819D01*
X104444922Y-138553819D02*
X104444922Y-137553819D01*
X104921112Y-138553819D02*
X104921112Y-137553819D01*
X104921112Y-137553819D02*
X105492540Y-138553819D01*
X105492540Y-138553819D02*
X105492540Y-137553819D01*
X137607922Y-121043819D02*
X137941255Y-122043819D01*
X137941255Y-122043819D02*
X138274588Y-121043819D01*
X138607922Y-121377152D02*
X138607922Y-122043819D01*
X138607922Y-121472390D02*
X138655541Y-121424771D01*
X138655541Y-121424771D02*
X138750779Y-121377152D01*
X138750779Y-121377152D02*
X138893636Y-121377152D01*
X138893636Y-121377152D02*
X138988874Y-121424771D01*
X138988874Y-121424771D02*
X139036493Y-121520009D01*
X139036493Y-121520009D02*
X139036493Y-122043819D01*
X147656779Y-88769819D02*
X147656779Y-87769819D01*
X147656779Y-88246009D02*
X148228207Y-88246009D01*
X148228207Y-88769819D02*
X148228207Y-87769819D01*
X148609160Y-87769819D02*
X148847255Y-88769819D01*
X148847255Y-88769819D02*
X149037731Y-88055533D01*
X149037731Y-88055533D02*
X149228207Y-88769819D01*
X149228207Y-88769819D02*
X149466303Y-87769819D01*
X94332636Y-97786819D02*
X94237398Y-97739200D01*
X94237398Y-97739200D02*
X94189779Y-97643961D01*
X94189779Y-97643961D02*
X94189779Y-96786819D01*
X95142160Y-97120152D02*
X95142160Y-97786819D01*
X94713589Y-97120152D02*
X94713589Y-97643961D01*
X94713589Y-97643961D02*
X94761208Y-97739200D01*
X94761208Y-97739200D02*
X94856446Y-97786819D01*
X94856446Y-97786819D02*
X94999303Y-97786819D01*
X94999303Y-97786819D02*
X95094541Y-97739200D01*
X95094541Y-97739200D02*
X95142160Y-97691580D01*
X96142160Y-97786819D02*
X95570732Y-97786819D01*
X95856446Y-97786819D02*
X95856446Y-96786819D01*
X95856446Y-96786819D02*
X95761208Y-96929676D01*
X95761208Y-96929676D02*
X95665970Y-97024914D01*
X95665970Y-97024914D02*
X95570732Y-97072533D01*
X144688160Y-158445200D02*
X144831017Y-158492819D01*
X144831017Y-158492819D02*
X145069112Y-158492819D01*
X145069112Y-158492819D02*
X145164350Y-158445200D01*
X145164350Y-158445200D02*
X145211969Y-158397580D01*
X145211969Y-158397580D02*
X145259588Y-158302342D01*
X145259588Y-158302342D02*
X145259588Y-158207104D01*
X145259588Y-158207104D02*
X145211969Y-158111866D01*
X145211969Y-158111866D02*
X145164350Y-158064247D01*
X145164350Y-158064247D02*
X145069112Y-158016628D01*
X145069112Y-158016628D02*
X144878636Y-157969009D01*
X144878636Y-157969009D02*
X144783398Y-157921390D01*
X144783398Y-157921390D02*
X144735779Y-157873771D01*
X144735779Y-157873771D02*
X144688160Y-157778533D01*
X144688160Y-157778533D02*
X144688160Y-157683295D01*
X144688160Y-157683295D02*
X144735779Y-157588057D01*
X144735779Y-157588057D02*
X144783398Y-157540438D01*
X144783398Y-157540438D02*
X144878636Y-157492819D01*
X144878636Y-157492819D02*
X145116731Y-157492819D01*
X145116731Y-157492819D02*
X145259588Y-157540438D01*
X146259588Y-158397580D02*
X146211969Y-158445200D01*
X146211969Y-158445200D02*
X146069112Y-158492819D01*
X146069112Y-158492819D02*
X145973874Y-158492819D01*
X145973874Y-158492819D02*
X145831017Y-158445200D01*
X145831017Y-158445200D02*
X145735779Y-158349961D01*
X145735779Y-158349961D02*
X145688160Y-158254723D01*
X145688160Y-158254723D02*
X145640541Y-158064247D01*
X145640541Y-158064247D02*
X145640541Y-157921390D01*
X145640541Y-157921390D02*
X145688160Y-157730914D01*
X145688160Y-157730914D02*
X145735779Y-157635676D01*
X145735779Y-157635676D02*
X145831017Y-157540438D01*
X145831017Y-157540438D02*
X145973874Y-157492819D01*
X145973874Y-157492819D02*
X146069112Y-157492819D01*
X146069112Y-157492819D02*
X146211969Y-157540438D01*
X146211969Y-157540438D02*
X146259588Y-157588057D01*
X147164350Y-158492819D02*
X146688160Y-158492819D01*
X146688160Y-158492819D02*
X146688160Y-157492819D01*
X137480922Y-112915819D02*
X137814255Y-113915819D01*
X137814255Y-113915819D02*
X138147588Y-112915819D01*
X138480922Y-113249152D02*
X138480922Y-114249152D01*
X138480922Y-113296771D02*
X138576160Y-113249152D01*
X138576160Y-113249152D02*
X138766636Y-113249152D01*
X138766636Y-113249152D02*
X138861874Y-113296771D01*
X138861874Y-113296771D02*
X138909493Y-113344390D01*
X138909493Y-113344390D02*
X138957112Y-113439628D01*
X138957112Y-113439628D02*
X138957112Y-113725342D01*
X138957112Y-113725342D02*
X138909493Y-113820580D01*
X138909493Y-113820580D02*
X138861874Y-113868200D01*
X138861874Y-113868200D02*
X138766636Y-113915819D01*
X138766636Y-113915819D02*
X138576160Y-113915819D01*
X138576160Y-113915819D02*
X138480922Y-113868200D01*
X141052779Y-141093819D02*
X141052779Y-140093819D01*
X141052779Y-140570009D02*
X141624207Y-140570009D01*
X141624207Y-141093819D02*
X141624207Y-140093819D01*
X142005160Y-140093819D02*
X142243255Y-141093819D01*
X142243255Y-141093819D02*
X142433731Y-140379533D01*
X142433731Y-140379533D02*
X142624207Y-141093819D01*
X142624207Y-141093819D02*
X142862303Y-140093819D01*
X90236922Y-137553819D02*
X90570255Y-138553819D01*
X90570255Y-138553819D02*
X90903588Y-137553819D01*
X91236922Y-138553819D02*
X91236922Y-137553819D01*
X91713112Y-138553819D02*
X91713112Y-137553819D01*
X91713112Y-137553819D02*
X92284540Y-138553819D01*
X92284540Y-138553819D02*
X92284540Y-137553819D01*
X93967541Y-114566819D02*
X94586588Y-114566819D01*
X94586588Y-114566819D02*
X94253255Y-114947771D01*
X94253255Y-114947771D02*
X94396112Y-114947771D01*
X94396112Y-114947771D02*
X94491350Y-114995390D01*
X94491350Y-114995390D02*
X94538969Y-115043009D01*
X94538969Y-115043009D02*
X94586588Y-115138247D01*
X94586588Y-115138247D02*
X94586588Y-115376342D01*
X94586588Y-115376342D02*
X94538969Y-115471580D01*
X94538969Y-115471580D02*
X94491350Y-115519200D01*
X94491350Y-115519200D02*
X94396112Y-115566819D01*
X94396112Y-115566819D02*
X94110398Y-115566819D01*
X94110398Y-115566819D02*
X94015160Y-115519200D01*
X94015160Y-115519200D02*
X93967541Y-115471580D01*
X94872303Y-114566819D02*
X95205636Y-115566819D01*
X95205636Y-115566819D02*
X95538969Y-114566819D01*
X95777065Y-114566819D02*
X96396112Y-114566819D01*
X96396112Y-114566819D02*
X96062779Y-114947771D01*
X96062779Y-114947771D02*
X96205636Y-114947771D01*
X96205636Y-114947771D02*
X96300874Y-114995390D01*
X96300874Y-114995390D02*
X96348493Y-115043009D01*
X96348493Y-115043009D02*
X96396112Y-115138247D01*
X96396112Y-115138247D02*
X96396112Y-115376342D01*
X96396112Y-115376342D02*
X96348493Y-115471580D01*
X96348493Y-115471580D02*
X96300874Y-115519200D01*
X96300874Y-115519200D02*
X96205636Y-115566819D01*
X96205636Y-115566819D02*
X95919922Y-115566819D01*
X95919922Y-115566819D02*
X95824684Y-115519200D01*
X95824684Y-115519200D02*
X95777065Y-115471580D01*
X137528541Y-108851819D02*
X137766636Y-109851819D01*
X137766636Y-109851819D02*
X137957112Y-109137533D01*
X137957112Y-109137533D02*
X138147588Y-109851819D01*
X138147588Y-109851819D02*
X138385684Y-108851819D01*
X138766636Y-109185152D02*
X138766636Y-109851819D01*
X138766636Y-109280390D02*
X138814255Y-109232771D01*
X138814255Y-109232771D02*
X138909493Y-109185152D01*
X138909493Y-109185152D02*
X139052350Y-109185152D01*
X139052350Y-109185152D02*
X139147588Y-109232771D01*
X139147588Y-109232771D02*
X139195207Y-109328009D01*
X139195207Y-109328009D02*
X139195207Y-109851819D01*
X133686779Y-99961819D02*
X133686779Y-100771342D01*
X133686779Y-100771342D02*
X133734398Y-100866580D01*
X133734398Y-100866580D02*
X133782017Y-100914200D01*
X133782017Y-100914200D02*
X133877255Y-100961819D01*
X133877255Y-100961819D02*
X134067731Y-100961819D01*
X134067731Y-100961819D02*
X134162969Y-100914200D01*
X134162969Y-100914200D02*
X134210588Y-100866580D01*
X134210588Y-100866580D02*
X134258207Y-100771342D01*
X134258207Y-100771342D02*
X134258207Y-99961819D01*
X134734398Y-100295152D02*
X134734398Y-101295152D01*
X134734398Y-100342771D02*
X134829636Y-100295152D01*
X134829636Y-100295152D02*
X135020112Y-100295152D01*
X135020112Y-100295152D02*
X135115350Y-100342771D01*
X135115350Y-100342771D02*
X135162969Y-100390390D01*
X135162969Y-100390390D02*
X135210588Y-100485628D01*
X135210588Y-100485628D02*
X135210588Y-100771342D01*
X135210588Y-100771342D02*
X135162969Y-100866580D01*
X135162969Y-100866580D02*
X135115350Y-100914200D01*
X135115350Y-100914200D02*
X135020112Y-100961819D01*
X135020112Y-100961819D02*
X134829636Y-100961819D01*
X134829636Y-100961819D02*
X134734398Y-100914200D01*
X150069779Y-140093819D02*
X150069779Y-140903342D01*
X150069779Y-140903342D02*
X150117398Y-140998580D01*
X150117398Y-140998580D02*
X150165017Y-141046200D01*
X150165017Y-141046200D02*
X150260255Y-141093819D01*
X150260255Y-141093819D02*
X150450731Y-141093819D01*
X150450731Y-141093819D02*
X150545969Y-141046200D01*
X150545969Y-141046200D02*
X150593588Y-140998580D01*
X150593588Y-140998580D02*
X150641207Y-140903342D01*
X150641207Y-140903342D02*
X150641207Y-140093819D01*
X151117398Y-140427152D02*
X151117398Y-141093819D01*
X151117398Y-140522390D02*
X151165017Y-140474771D01*
X151165017Y-140474771D02*
X151260255Y-140427152D01*
X151260255Y-140427152D02*
X151403112Y-140427152D01*
X151403112Y-140427152D02*
X151498350Y-140474771D01*
X151498350Y-140474771D02*
X151545969Y-140570009D01*
X151545969Y-140570009D02*
X151545969Y-141093819D01*
X141179779Y-148713819D02*
X141179779Y-147713819D01*
X141179779Y-148190009D02*
X141751207Y-148190009D01*
X141751207Y-148713819D02*
X141751207Y-147713819D01*
X142084541Y-147713819D02*
X142417874Y-148713819D01*
X142417874Y-148713819D02*
X142751207Y-147713819D01*
X148231388Y-99806238D02*
X148136150Y-99758619D01*
X148136150Y-99758619D02*
X147993293Y-99758619D01*
X147993293Y-99758619D02*
X147850436Y-99806238D01*
X147850436Y-99806238D02*
X147755198Y-99901476D01*
X147755198Y-99901476D02*
X147707579Y-99996714D01*
X147707579Y-99996714D02*
X147659960Y-100187190D01*
X147659960Y-100187190D02*
X147659960Y-100330047D01*
X147659960Y-100330047D02*
X147707579Y-100520523D01*
X147707579Y-100520523D02*
X147755198Y-100615761D01*
X147755198Y-100615761D02*
X147850436Y-100711000D01*
X147850436Y-100711000D02*
X147993293Y-100758619D01*
X147993293Y-100758619D02*
X148088531Y-100758619D01*
X148088531Y-100758619D02*
X148231388Y-100711000D01*
X148231388Y-100711000D02*
X148279007Y-100663380D01*
X148279007Y-100663380D02*
X148279007Y-100330047D01*
X148279007Y-100330047D02*
X148088531Y-100330047D01*
X148707579Y-100758619D02*
X148707579Y-99758619D01*
X148707579Y-99758619D02*
X149279007Y-100758619D01*
X149279007Y-100758619D02*
X149279007Y-99758619D01*
X149755198Y-100758619D02*
X149755198Y-99758619D01*
X149755198Y-99758619D02*
X149993293Y-99758619D01*
X149993293Y-99758619D02*
X150136150Y-99806238D01*
X150136150Y-99806238D02*
X150231388Y-99901476D01*
X150231388Y-99901476D02*
X150279007Y-99996714D01*
X150279007Y-99996714D02*
X150326626Y-100187190D01*
X150326626Y-100187190D02*
X150326626Y-100330047D01*
X150326626Y-100330047D02*
X150279007Y-100520523D01*
X150279007Y-100520523D02*
X150231388Y-100615761D01*
X150231388Y-100615761D02*
X150136150Y-100711000D01*
X150136150Y-100711000D02*
X149993293Y-100758619D01*
X149993293Y-100758619D02*
X149755198Y-100758619D01*
X137496779Y-105406819D02*
X137496779Y-104406819D01*
X137496779Y-104406819D02*
X137734874Y-104406819D01*
X137734874Y-104406819D02*
X137877731Y-104454438D01*
X137877731Y-104454438D02*
X137972969Y-104549676D01*
X137972969Y-104549676D02*
X138020588Y-104644914D01*
X138020588Y-104644914D02*
X138068207Y-104835390D01*
X138068207Y-104835390D02*
X138068207Y-104978247D01*
X138068207Y-104978247D02*
X138020588Y-105168723D01*
X138020588Y-105168723D02*
X137972969Y-105263961D01*
X137972969Y-105263961D02*
X137877731Y-105359200D01*
X137877731Y-105359200D02*
X137734874Y-105406819D01*
X137734874Y-105406819D02*
X137496779Y-105406819D01*
X138496779Y-105406819D02*
X138496779Y-104740152D01*
X138496779Y-104406819D02*
X138449160Y-104454438D01*
X138449160Y-104454438D02*
X138496779Y-104502057D01*
X138496779Y-104502057D02*
X138544398Y-104454438D01*
X138544398Y-104454438D02*
X138496779Y-104406819D01*
X138496779Y-104406819D02*
X138496779Y-104502057D01*
X138972969Y-105406819D02*
X138972969Y-104740152D01*
X138972969Y-104930628D02*
X139020588Y-104835390D01*
X139020588Y-104835390D02*
X139068207Y-104787771D01*
X139068207Y-104787771D02*
X139163445Y-104740152D01*
X139163445Y-104740152D02*
X139258683Y-104740152D01*
X90649588Y-134934438D02*
X90554350Y-134886819D01*
X90554350Y-134886819D02*
X90411493Y-134886819D01*
X90411493Y-134886819D02*
X90268636Y-134934438D01*
X90268636Y-134934438D02*
X90173398Y-135029676D01*
X90173398Y-135029676D02*
X90125779Y-135124914D01*
X90125779Y-135124914D02*
X90078160Y-135315390D01*
X90078160Y-135315390D02*
X90078160Y-135458247D01*
X90078160Y-135458247D02*
X90125779Y-135648723D01*
X90125779Y-135648723D02*
X90173398Y-135743961D01*
X90173398Y-135743961D02*
X90268636Y-135839200D01*
X90268636Y-135839200D02*
X90411493Y-135886819D01*
X90411493Y-135886819D02*
X90506731Y-135886819D01*
X90506731Y-135886819D02*
X90649588Y-135839200D01*
X90649588Y-135839200D02*
X90697207Y-135791580D01*
X90697207Y-135791580D02*
X90697207Y-135458247D01*
X90697207Y-135458247D02*
X90506731Y-135458247D01*
X91125779Y-135886819D02*
X91125779Y-134886819D01*
X91125779Y-134886819D02*
X91697207Y-135886819D01*
X91697207Y-135886819D02*
X91697207Y-134886819D01*
X92173398Y-135886819D02*
X92173398Y-134886819D01*
X92173398Y-134886819D02*
X92411493Y-134886819D01*
X92411493Y-134886819D02*
X92554350Y-134934438D01*
X92554350Y-134934438D02*
X92649588Y-135029676D01*
X92649588Y-135029676D02*
X92697207Y-135124914D01*
X92697207Y-135124914D02*
X92744826Y-135315390D01*
X92744826Y-135315390D02*
X92744826Y-135458247D01*
X92744826Y-135458247D02*
X92697207Y-135648723D01*
X92697207Y-135648723D02*
X92649588Y-135743961D01*
X92649588Y-135743961D02*
X92554350Y-135839200D01*
X92554350Y-135839200D02*
X92411493Y-135886819D01*
X92411493Y-135886819D02*
X92173398Y-135886819D01*
X109788438Y-84356411D02*
X109740819Y-84451649D01*
X109740819Y-84451649D02*
X109740819Y-84594506D01*
X109740819Y-84594506D02*
X109788438Y-84737363D01*
X109788438Y-84737363D02*
X109883676Y-84832601D01*
X109883676Y-84832601D02*
X109978914Y-84880220D01*
X109978914Y-84880220D02*
X110169390Y-84927839D01*
X110169390Y-84927839D02*
X110312247Y-84927839D01*
X110312247Y-84927839D02*
X110502723Y-84880220D01*
X110502723Y-84880220D02*
X110597961Y-84832601D01*
X110597961Y-84832601D02*
X110693200Y-84737363D01*
X110693200Y-84737363D02*
X110740819Y-84594506D01*
X110740819Y-84594506D02*
X110740819Y-84499268D01*
X110740819Y-84499268D02*
X110693200Y-84356411D01*
X110693200Y-84356411D02*
X110645580Y-84308792D01*
X110645580Y-84308792D02*
X110312247Y-84308792D01*
X110312247Y-84308792D02*
X110312247Y-84499268D01*
X110740819Y-83880220D02*
X109740819Y-83880220D01*
X109740819Y-83880220D02*
X110740819Y-83308792D01*
X110740819Y-83308792D02*
X109740819Y-83308792D01*
X110740819Y-82832601D02*
X109740819Y-82832601D01*
X109740819Y-82832601D02*
X109740819Y-82594506D01*
X109740819Y-82594506D02*
X109788438Y-82451649D01*
X109788438Y-82451649D02*
X109883676Y-82356411D01*
X109883676Y-82356411D02*
X109978914Y-82308792D01*
X109978914Y-82308792D02*
X110169390Y-82261173D01*
X110169390Y-82261173D02*
X110312247Y-82261173D01*
X110312247Y-82261173D02*
X110502723Y-82308792D01*
X110502723Y-82308792D02*
X110597961Y-82356411D01*
X110597961Y-82356411D02*
X110693200Y-82451649D01*
X110693200Y-82451649D02*
X110740819Y-82594506D01*
X110740819Y-82594506D02*
X110740819Y-82832601D01*
X147656779Y-96389819D02*
X147656779Y-95389819D01*
X147656779Y-95866009D02*
X148228207Y-95866009D01*
X148228207Y-96389819D02*
X148228207Y-95389819D01*
X148561541Y-95389819D02*
X148894874Y-96389819D01*
X148894874Y-96389819D02*
X149228207Y-95389819D01*
X137528541Y-110756819D02*
X137766636Y-111756819D01*
X137766636Y-111756819D02*
X137957112Y-111042533D01*
X137957112Y-111042533D02*
X138147588Y-111756819D01*
X138147588Y-111756819D02*
X138385684Y-110756819D01*
X138766636Y-111090152D02*
X138766636Y-112090152D01*
X138766636Y-111137771D02*
X138861874Y-111090152D01*
X138861874Y-111090152D02*
X139052350Y-111090152D01*
X139052350Y-111090152D02*
X139147588Y-111137771D01*
X139147588Y-111137771D02*
X139195207Y-111185390D01*
X139195207Y-111185390D02*
X139242826Y-111280628D01*
X139242826Y-111280628D02*
X139242826Y-111566342D01*
X139242826Y-111566342D02*
X139195207Y-111661580D01*
X139195207Y-111661580D02*
X139147588Y-111709200D01*
X139147588Y-111709200D02*
X139052350Y-111756819D01*
X139052350Y-111756819D02*
X138861874Y-111756819D01*
X138861874Y-111756819D02*
X138766636Y-111709200D01*
X147707579Y-103400219D02*
X147707579Y-102400219D01*
X147707579Y-102400219D02*
X147945674Y-102400219D01*
X147945674Y-102400219D02*
X148088531Y-102447838D01*
X148088531Y-102447838D02*
X148183769Y-102543076D01*
X148183769Y-102543076D02*
X148231388Y-102638314D01*
X148231388Y-102638314D02*
X148279007Y-102828790D01*
X148279007Y-102828790D02*
X148279007Y-102971647D01*
X148279007Y-102971647D02*
X148231388Y-103162123D01*
X148231388Y-103162123D02*
X148183769Y-103257361D01*
X148183769Y-103257361D02*
X148088531Y-103352600D01*
X148088531Y-103352600D02*
X147945674Y-103400219D01*
X147945674Y-103400219D02*
X147707579Y-103400219D01*
X149136150Y-102400219D02*
X148945674Y-102400219D01*
X148945674Y-102400219D02*
X148850436Y-102447838D01*
X148850436Y-102447838D02*
X148802817Y-102495457D01*
X148802817Y-102495457D02*
X148707579Y-102638314D01*
X148707579Y-102638314D02*
X148659960Y-102828790D01*
X148659960Y-102828790D02*
X148659960Y-103209742D01*
X148659960Y-103209742D02*
X148707579Y-103304980D01*
X148707579Y-103304980D02*
X148755198Y-103352600D01*
X148755198Y-103352600D02*
X148850436Y-103400219D01*
X148850436Y-103400219D02*
X149040912Y-103400219D01*
X149040912Y-103400219D02*
X149136150Y-103352600D01*
X149136150Y-103352600D02*
X149183769Y-103304980D01*
X149183769Y-103304980D02*
X149231388Y-103209742D01*
X149231388Y-103209742D02*
X149231388Y-102971647D01*
X149231388Y-102971647D02*
X149183769Y-102876409D01*
X149183769Y-102876409D02*
X149136150Y-102828790D01*
X149136150Y-102828790D02*
X149040912Y-102781171D01*
X149040912Y-102781171D02*
X148850436Y-102781171D01*
X148850436Y-102781171D02*
X148755198Y-102828790D01*
X148755198Y-102828790D02*
X148707579Y-102876409D01*
X148707579Y-102876409D02*
X148659960Y-102971647D01*
X141290922Y-134886819D02*
X141624255Y-135886819D01*
X141624255Y-135886819D02*
X141957588Y-134886819D01*
X142290922Y-135220152D02*
X142290922Y-136220152D01*
X142290922Y-135267771D02*
X142386160Y-135220152D01*
X142386160Y-135220152D02*
X142576636Y-135220152D01*
X142576636Y-135220152D02*
X142671874Y-135267771D01*
X142671874Y-135267771D02*
X142719493Y-135315390D01*
X142719493Y-135315390D02*
X142767112Y-135410628D01*
X142767112Y-135410628D02*
X142767112Y-135696342D01*
X142767112Y-135696342D02*
X142719493Y-135791580D01*
X142719493Y-135791580D02*
X142671874Y-135839200D01*
X142671874Y-135839200D02*
X142576636Y-135886819D01*
X142576636Y-135886819D02*
X142386160Y-135886819D01*
X142386160Y-135886819D02*
X142290922Y-135839200D01*
X90459112Y-145650009D02*
X90601969Y-145697628D01*
X90601969Y-145697628D02*
X90649588Y-145745247D01*
X90649588Y-145745247D02*
X90697207Y-145840485D01*
X90697207Y-145840485D02*
X90697207Y-145983342D01*
X90697207Y-145983342D02*
X90649588Y-146078580D01*
X90649588Y-146078580D02*
X90601969Y-146126200D01*
X90601969Y-146126200D02*
X90506731Y-146173819D01*
X90506731Y-146173819D02*
X90125779Y-146173819D01*
X90125779Y-146173819D02*
X90125779Y-145173819D01*
X90125779Y-145173819D02*
X90459112Y-145173819D01*
X90459112Y-145173819D02*
X90554350Y-145221438D01*
X90554350Y-145221438D02*
X90601969Y-145269057D01*
X90601969Y-145269057D02*
X90649588Y-145364295D01*
X90649588Y-145364295D02*
X90649588Y-145459533D01*
X90649588Y-145459533D02*
X90601969Y-145554771D01*
X90601969Y-145554771D02*
X90554350Y-145602390D01*
X90554350Y-145602390D02*
X90459112Y-145650009D01*
X90459112Y-145650009D02*
X90125779Y-145650009D01*
X91078160Y-145888104D02*
X91554350Y-145888104D01*
X90982922Y-146173819D02*
X91316255Y-145173819D01*
X91316255Y-145173819D02*
X91649588Y-146173819D01*
X91840065Y-145173819D02*
X92411493Y-145173819D01*
X92125779Y-146173819D02*
X92125779Y-145173819D01*
X92601970Y-145173819D02*
X93173398Y-145173819D01*
X92887684Y-146173819D02*
X92887684Y-145173819D01*
X149974541Y-137553819D02*
X150212636Y-138553819D01*
X150212636Y-138553819D02*
X150403112Y-137839533D01*
X150403112Y-137839533D02*
X150593588Y-138553819D01*
X150593588Y-138553819D02*
X150831684Y-137553819D01*
X151212636Y-137887152D02*
X151212636Y-138553819D01*
X151212636Y-137982390D02*
X151260255Y-137934771D01*
X151260255Y-137934771D02*
X151355493Y-137887152D01*
X151355493Y-137887152D02*
X151498350Y-137887152D01*
X151498350Y-137887152D02*
X151593588Y-137934771D01*
X151593588Y-137934771D02*
X151641207Y-138030009D01*
X151641207Y-138030009D02*
X151641207Y-138553819D01*
X93919922Y-104406819D02*
X94253255Y-105406819D01*
X94253255Y-105406819D02*
X94586588Y-104406819D01*
X94919922Y-105406819D02*
X94919922Y-104406819D01*
X95396112Y-105406819D02*
X95396112Y-104406819D01*
X95396112Y-104406819D02*
X95967540Y-105406819D01*
X95967540Y-105406819D02*
X95967540Y-104406819D01*
X148815588Y-157540438D02*
X148720350Y-157492819D01*
X148720350Y-157492819D02*
X148577493Y-157492819D01*
X148577493Y-157492819D02*
X148434636Y-157540438D01*
X148434636Y-157540438D02*
X148339398Y-157635676D01*
X148339398Y-157635676D02*
X148291779Y-157730914D01*
X148291779Y-157730914D02*
X148244160Y-157921390D01*
X148244160Y-157921390D02*
X148244160Y-158064247D01*
X148244160Y-158064247D02*
X148291779Y-158254723D01*
X148291779Y-158254723D02*
X148339398Y-158349961D01*
X148339398Y-158349961D02*
X148434636Y-158445200D01*
X148434636Y-158445200D02*
X148577493Y-158492819D01*
X148577493Y-158492819D02*
X148672731Y-158492819D01*
X148672731Y-158492819D02*
X148815588Y-158445200D01*
X148815588Y-158445200D02*
X148863207Y-158397580D01*
X148863207Y-158397580D02*
X148863207Y-158064247D01*
X148863207Y-158064247D02*
X148672731Y-158064247D01*
X149291779Y-158492819D02*
X149291779Y-157492819D01*
X149291779Y-157492819D02*
X149863207Y-158492819D01*
X149863207Y-158492819D02*
X149863207Y-157492819D01*
X150339398Y-158492819D02*
X150339398Y-157492819D01*
X150339398Y-157492819D02*
X150577493Y-157492819D01*
X150577493Y-157492819D02*
X150720350Y-157540438D01*
X150720350Y-157540438D02*
X150815588Y-157635676D01*
X150815588Y-157635676D02*
X150863207Y-157730914D01*
X150863207Y-157730914D02*
X150910826Y-157921390D01*
X150910826Y-157921390D02*
X150910826Y-158064247D01*
X150910826Y-158064247D02*
X150863207Y-158254723D01*
X150863207Y-158254723D02*
X150815588Y-158349961D01*
X150815588Y-158349961D02*
X150720350Y-158445200D01*
X150720350Y-158445200D02*
X150577493Y-158492819D01*
X150577493Y-158492819D02*
X150339398Y-158492819D01*
X140220819Y-157810030D02*
X140220819Y-158286220D01*
X140220819Y-158286220D02*
X140697009Y-158333839D01*
X140697009Y-158333839D02*
X140649390Y-158286220D01*
X140649390Y-158286220D02*
X140601771Y-158190982D01*
X140601771Y-158190982D02*
X140601771Y-157952887D01*
X140601771Y-157952887D02*
X140649390Y-157857649D01*
X140649390Y-157857649D02*
X140697009Y-157810030D01*
X140697009Y-157810030D02*
X140792247Y-157762411D01*
X140792247Y-157762411D02*
X141030342Y-157762411D01*
X141030342Y-157762411D02*
X141125580Y-157810030D01*
X141125580Y-157810030D02*
X141173200Y-157857649D01*
X141173200Y-157857649D02*
X141220819Y-157952887D01*
X141220819Y-157952887D02*
X141220819Y-158190982D01*
X141220819Y-158190982D02*
X141173200Y-158286220D01*
X141173200Y-158286220D02*
X141125580Y-158333839D01*
X140220819Y-157476696D02*
X141220819Y-157143363D01*
X141220819Y-157143363D02*
X140220819Y-156810030D01*
X81743779Y-131060819D02*
X81743779Y-130060819D01*
X81743779Y-130537009D02*
X82315207Y-130537009D01*
X82315207Y-131060819D02*
X82315207Y-130060819D01*
X82791398Y-130060819D02*
X82791398Y-130870342D01*
X82791398Y-130870342D02*
X82839017Y-130965580D01*
X82839017Y-130965580D02*
X82886636Y-131013200D01*
X82886636Y-131013200D02*
X82981874Y-131060819D01*
X82981874Y-131060819D02*
X83172350Y-131060819D01*
X83172350Y-131060819D02*
X83267588Y-131013200D01*
X83267588Y-131013200D02*
X83315207Y-130965580D01*
X83315207Y-130965580D02*
X83362826Y-130870342D01*
X83362826Y-130870342D02*
X83362826Y-130060819D01*
X133813779Y-95897819D02*
X133813779Y-96707342D01*
X133813779Y-96707342D02*
X133861398Y-96802580D01*
X133861398Y-96802580D02*
X133909017Y-96850200D01*
X133909017Y-96850200D02*
X134004255Y-96897819D01*
X134004255Y-96897819D02*
X134194731Y-96897819D01*
X134194731Y-96897819D02*
X134289969Y-96850200D01*
X134289969Y-96850200D02*
X134337588Y-96802580D01*
X134337588Y-96802580D02*
X134385207Y-96707342D01*
X134385207Y-96707342D02*
X134385207Y-95897819D01*
X134861398Y-96231152D02*
X134861398Y-96897819D01*
X134861398Y-96326390D02*
X134909017Y-96278771D01*
X134909017Y-96278771D02*
X135004255Y-96231152D01*
X135004255Y-96231152D02*
X135147112Y-96231152D01*
X135147112Y-96231152D02*
X135242350Y-96278771D01*
X135242350Y-96278771D02*
X135289969Y-96374009D01*
X135289969Y-96374009D02*
X135289969Y-96897819D01*
X143713200Y-158333839D02*
X143760819Y-158190982D01*
X143760819Y-158190982D02*
X143760819Y-157952887D01*
X143760819Y-157952887D02*
X143713200Y-157857649D01*
X143713200Y-157857649D02*
X143665580Y-157810030D01*
X143665580Y-157810030D02*
X143570342Y-157762411D01*
X143570342Y-157762411D02*
X143475104Y-157762411D01*
X143475104Y-157762411D02*
X143379866Y-157810030D01*
X143379866Y-157810030D02*
X143332247Y-157857649D01*
X143332247Y-157857649D02*
X143284628Y-157952887D01*
X143284628Y-157952887D02*
X143237009Y-158143363D01*
X143237009Y-158143363D02*
X143189390Y-158238601D01*
X143189390Y-158238601D02*
X143141771Y-158286220D01*
X143141771Y-158286220D02*
X143046533Y-158333839D01*
X143046533Y-158333839D02*
X142951295Y-158333839D01*
X142951295Y-158333839D02*
X142856057Y-158286220D01*
X142856057Y-158286220D02*
X142808438Y-158238601D01*
X142808438Y-158238601D02*
X142760819Y-158143363D01*
X142760819Y-158143363D02*
X142760819Y-157905268D01*
X142760819Y-157905268D02*
X142808438Y-157762411D01*
X143760819Y-157333839D02*
X142760819Y-157333839D01*
X142760819Y-157333839D02*
X142760819Y-157095744D01*
X142760819Y-157095744D02*
X142808438Y-156952887D01*
X142808438Y-156952887D02*
X142903676Y-156857649D01*
X142903676Y-156857649D02*
X142998914Y-156810030D01*
X142998914Y-156810030D02*
X143189390Y-156762411D01*
X143189390Y-156762411D02*
X143332247Y-156762411D01*
X143332247Y-156762411D02*
X143522723Y-156810030D01*
X143522723Y-156810030D02*
X143617961Y-156857649D01*
X143617961Y-156857649D02*
X143713200Y-156952887D01*
X143713200Y-156952887D02*
X143760819Y-157095744D01*
X143760819Y-157095744D02*
X143760819Y-157333839D01*
X143475104Y-156381458D02*
X143475104Y-155905268D01*
X143760819Y-156476696D02*
X142760819Y-156143363D01*
X142760819Y-156143363D02*
X143760819Y-155810030D01*
X90649588Y-132394438D02*
X90554350Y-132346819D01*
X90554350Y-132346819D02*
X90411493Y-132346819D01*
X90411493Y-132346819D02*
X90268636Y-132394438D01*
X90268636Y-132394438D02*
X90173398Y-132489676D01*
X90173398Y-132489676D02*
X90125779Y-132584914D01*
X90125779Y-132584914D02*
X90078160Y-132775390D01*
X90078160Y-132775390D02*
X90078160Y-132918247D01*
X90078160Y-132918247D02*
X90125779Y-133108723D01*
X90125779Y-133108723D02*
X90173398Y-133203961D01*
X90173398Y-133203961D02*
X90268636Y-133299200D01*
X90268636Y-133299200D02*
X90411493Y-133346819D01*
X90411493Y-133346819D02*
X90506731Y-133346819D01*
X90506731Y-133346819D02*
X90649588Y-133299200D01*
X90649588Y-133299200D02*
X90697207Y-133251580D01*
X90697207Y-133251580D02*
X90697207Y-132918247D01*
X90697207Y-132918247D02*
X90506731Y-132918247D01*
X91125779Y-133346819D02*
X91125779Y-132346819D01*
X91125779Y-132346819D02*
X91697207Y-133346819D01*
X91697207Y-133346819D02*
X91697207Y-132346819D01*
X92173398Y-133346819D02*
X92173398Y-132346819D01*
X92173398Y-132346819D02*
X92411493Y-132346819D01*
X92411493Y-132346819D02*
X92554350Y-132394438D01*
X92554350Y-132394438D02*
X92649588Y-132489676D01*
X92649588Y-132489676D02*
X92697207Y-132584914D01*
X92697207Y-132584914D02*
X92744826Y-132775390D01*
X92744826Y-132775390D02*
X92744826Y-132918247D01*
X92744826Y-132918247D02*
X92697207Y-133108723D01*
X92697207Y-133108723D02*
X92649588Y-133203961D01*
X92649588Y-133203961D02*
X92554350Y-133299200D01*
X92554350Y-133299200D02*
X92411493Y-133346819D01*
X92411493Y-133346819D02*
X92173398Y-133346819D01*
D10*
X119461646Y-82852371D02*
X119461646Y-82252371D01*
X119461646Y-82252371D02*
X119661646Y-82680942D01*
X119661646Y-82680942D02*
X119861646Y-82252371D01*
X119861646Y-82252371D02*
X119861646Y-82852371D01*
X120261645Y-82252371D02*
X120375931Y-82252371D01*
X120375931Y-82252371D02*
X120433074Y-82280942D01*
X120433074Y-82280942D02*
X120490217Y-82338085D01*
X120490217Y-82338085D02*
X120518788Y-82452371D01*
X120518788Y-82452371D02*
X120518788Y-82652371D01*
X120518788Y-82652371D02*
X120490217Y-82766657D01*
X120490217Y-82766657D02*
X120433074Y-82823800D01*
X120433074Y-82823800D02*
X120375931Y-82852371D01*
X120375931Y-82852371D02*
X120261645Y-82852371D01*
X120261645Y-82852371D02*
X120204503Y-82823800D01*
X120204503Y-82823800D02*
X120147360Y-82766657D01*
X120147360Y-82766657D02*
X120118788Y-82652371D01*
X120118788Y-82652371D02*
X120118788Y-82452371D01*
X120118788Y-82452371D02*
X120147360Y-82338085D01*
X120147360Y-82338085D02*
X120204503Y-82280942D01*
X120204503Y-82280942D02*
X120261645Y-82252371D01*
X120747359Y-82823800D02*
X120833074Y-82852371D01*
X120833074Y-82852371D02*
X120975931Y-82852371D01*
X120975931Y-82852371D02*
X121033074Y-82823800D01*
X121033074Y-82823800D02*
X121061645Y-82795228D01*
X121061645Y-82795228D02*
X121090216Y-82738085D01*
X121090216Y-82738085D02*
X121090216Y-82680942D01*
X121090216Y-82680942D02*
X121061645Y-82623800D01*
X121061645Y-82623800D02*
X121033074Y-82595228D01*
X121033074Y-82595228D02*
X120975931Y-82566657D01*
X120975931Y-82566657D02*
X120861645Y-82538085D01*
X120861645Y-82538085D02*
X120804502Y-82509514D01*
X120804502Y-82509514D02*
X120775931Y-82480942D01*
X120775931Y-82480942D02*
X120747359Y-82423800D01*
X120747359Y-82423800D02*
X120747359Y-82366657D01*
X120747359Y-82366657D02*
X120775931Y-82309514D01*
X120775931Y-82309514D02*
X120804502Y-82280942D01*
X120804502Y-82280942D02*
X120861645Y-82252371D01*
X120861645Y-82252371D02*
X121004502Y-82252371D01*
X121004502Y-82252371D02*
X121090216Y-82280942D01*
X121347360Y-82852371D02*
X121347360Y-82252371D01*
D11*
X81870779Y-86483819D02*
X81870779Y-85483819D01*
X81870779Y-85483819D02*
X82108874Y-85483819D01*
X82108874Y-85483819D02*
X82251731Y-85531438D01*
X82251731Y-85531438D02*
X82346969Y-85626676D01*
X82346969Y-85626676D02*
X82394588Y-85721914D01*
X82394588Y-85721914D02*
X82442207Y-85912390D01*
X82442207Y-85912390D02*
X82442207Y-86055247D01*
X82442207Y-86055247D02*
X82394588Y-86245723D01*
X82394588Y-86245723D02*
X82346969Y-86340961D01*
X82346969Y-86340961D02*
X82251731Y-86436200D01*
X82251731Y-86436200D02*
X82108874Y-86483819D01*
X82108874Y-86483819D02*
X81870779Y-86483819D01*
X83394588Y-86483819D02*
X82823160Y-86483819D01*
X83108874Y-86483819D02*
X83108874Y-85483819D01*
X83108874Y-85483819D02*
X83013636Y-85626676D01*
X83013636Y-85626676D02*
X82918398Y-85721914D01*
X82918398Y-85721914D02*
X82823160Y-85769533D01*
X84346969Y-86483819D02*
X83775541Y-86483819D01*
X84061255Y-86483819D02*
X84061255Y-85483819D01*
X84061255Y-85483819D02*
X83966017Y-85626676D01*
X83966017Y-85626676D02*
X83870779Y-85721914D01*
X83870779Y-85721914D02*
X83775541Y-85769533D01*
X142354541Y-150888819D02*
X142592636Y-151888819D01*
X142592636Y-151888819D02*
X142783112Y-151174533D01*
X142783112Y-151174533D02*
X142973588Y-151888819D01*
X142973588Y-151888819D02*
X143211684Y-150888819D01*
X143592636Y-151222152D02*
X143592636Y-152222152D01*
X143592636Y-151269771D02*
X143687874Y-151222152D01*
X143687874Y-151222152D02*
X143878350Y-151222152D01*
X143878350Y-151222152D02*
X143973588Y-151269771D01*
X143973588Y-151269771D02*
X144021207Y-151317390D01*
X144021207Y-151317390D02*
X144068826Y-151412628D01*
X144068826Y-151412628D02*
X144068826Y-151698342D01*
X144068826Y-151698342D02*
X144021207Y-151793580D01*
X144021207Y-151793580D02*
X143973588Y-151841200D01*
X143973588Y-151841200D02*
X143878350Y-151888819D01*
X143878350Y-151888819D02*
X143687874Y-151888819D01*
X143687874Y-151888819D02*
X143592636Y-151841200D01*
%TO.C,J3*%
X86661666Y-159347819D02*
X86661666Y-160062104D01*
X86661666Y-160062104D02*
X86614047Y-160204961D01*
X86614047Y-160204961D02*
X86518809Y-160300200D01*
X86518809Y-160300200D02*
X86375952Y-160347819D01*
X86375952Y-160347819D02*
X86280714Y-160347819D01*
X87042619Y-159347819D02*
X87661666Y-159347819D01*
X87661666Y-159347819D02*
X87328333Y-159728771D01*
X87328333Y-159728771D02*
X87471190Y-159728771D01*
X87471190Y-159728771D02*
X87566428Y-159776390D01*
X87566428Y-159776390D02*
X87614047Y-159824009D01*
X87614047Y-159824009D02*
X87661666Y-159919247D01*
X87661666Y-159919247D02*
X87661666Y-160157342D01*
X87661666Y-160157342D02*
X87614047Y-160252580D01*
X87614047Y-160252580D02*
X87566428Y-160300200D01*
X87566428Y-160300200D02*
X87471190Y-160347819D01*
X87471190Y-160347819D02*
X87185476Y-160347819D01*
X87185476Y-160347819D02*
X87090238Y-160300200D01*
X87090238Y-160300200D02*
X87042619Y-160252580D01*
%TO.C,R5*%
X116038333Y-111960819D02*
X115705000Y-111484628D01*
X115466905Y-111960819D02*
X115466905Y-110960819D01*
X115466905Y-110960819D02*
X115847857Y-110960819D01*
X115847857Y-110960819D02*
X115943095Y-111008438D01*
X115943095Y-111008438D02*
X115990714Y-111056057D01*
X115990714Y-111056057D02*
X116038333Y-111151295D01*
X116038333Y-111151295D02*
X116038333Y-111294152D01*
X116038333Y-111294152D02*
X115990714Y-111389390D01*
X115990714Y-111389390D02*
X115943095Y-111437009D01*
X115943095Y-111437009D02*
X115847857Y-111484628D01*
X115847857Y-111484628D02*
X115466905Y-111484628D01*
X116943095Y-110960819D02*
X116466905Y-110960819D01*
X116466905Y-110960819D02*
X116419286Y-111437009D01*
X116419286Y-111437009D02*
X116466905Y-111389390D01*
X116466905Y-111389390D02*
X116562143Y-111341771D01*
X116562143Y-111341771D02*
X116800238Y-111341771D01*
X116800238Y-111341771D02*
X116895476Y-111389390D01*
X116895476Y-111389390D02*
X116943095Y-111437009D01*
X116943095Y-111437009D02*
X116990714Y-111532247D01*
X116990714Y-111532247D02*
X116990714Y-111770342D01*
X116990714Y-111770342D02*
X116943095Y-111865580D01*
X116943095Y-111865580D02*
X116895476Y-111913200D01*
X116895476Y-111913200D02*
X116800238Y-111960819D01*
X116800238Y-111960819D02*
X116562143Y-111960819D01*
X116562143Y-111960819D02*
X116466905Y-111913200D01*
X116466905Y-111913200D02*
X116419286Y-111865580D01*
%TO.C,J2*%
X107360819Y-80470333D02*
X108075104Y-80470333D01*
X108075104Y-80470333D02*
X108217961Y-80517952D01*
X108217961Y-80517952D02*
X108313200Y-80613190D01*
X108313200Y-80613190D02*
X108360819Y-80756047D01*
X108360819Y-80756047D02*
X108360819Y-80851285D01*
X107456057Y-80041761D02*
X107408438Y-79994142D01*
X107408438Y-79994142D02*
X107360819Y-79898904D01*
X107360819Y-79898904D02*
X107360819Y-79660809D01*
X107360819Y-79660809D02*
X107408438Y-79565571D01*
X107408438Y-79565571D02*
X107456057Y-79517952D01*
X107456057Y-79517952D02*
X107551295Y-79470333D01*
X107551295Y-79470333D02*
X107646533Y-79470333D01*
X107646533Y-79470333D02*
X107789390Y-79517952D01*
X107789390Y-79517952D02*
X108360819Y-80089380D01*
X108360819Y-80089380D02*
X108360819Y-79470333D01*
%TO.C,C4*%
X105370333Y-149076580D02*
X105322714Y-149124200D01*
X105322714Y-149124200D02*
X105179857Y-149171819D01*
X105179857Y-149171819D02*
X105084619Y-149171819D01*
X105084619Y-149171819D02*
X104941762Y-149124200D01*
X104941762Y-149124200D02*
X104846524Y-149028961D01*
X104846524Y-149028961D02*
X104798905Y-148933723D01*
X104798905Y-148933723D02*
X104751286Y-148743247D01*
X104751286Y-148743247D02*
X104751286Y-148600390D01*
X104751286Y-148600390D02*
X104798905Y-148409914D01*
X104798905Y-148409914D02*
X104846524Y-148314676D01*
X104846524Y-148314676D02*
X104941762Y-148219438D01*
X104941762Y-148219438D02*
X105084619Y-148171819D01*
X105084619Y-148171819D02*
X105179857Y-148171819D01*
X105179857Y-148171819D02*
X105322714Y-148219438D01*
X105322714Y-148219438D02*
X105370333Y-148267057D01*
X106227476Y-148505152D02*
X106227476Y-149171819D01*
X105989381Y-148124200D02*
X105751286Y-148838485D01*
X105751286Y-148838485D02*
X106370333Y-148838485D01*
%TO.C,C3*%
X103610580Y-140628666D02*
X103658200Y-140676285D01*
X103658200Y-140676285D02*
X103705819Y-140819142D01*
X103705819Y-140819142D02*
X103705819Y-140914380D01*
X103705819Y-140914380D02*
X103658200Y-141057237D01*
X103658200Y-141057237D02*
X103562961Y-141152475D01*
X103562961Y-141152475D02*
X103467723Y-141200094D01*
X103467723Y-141200094D02*
X103277247Y-141247713D01*
X103277247Y-141247713D02*
X103134390Y-141247713D01*
X103134390Y-141247713D02*
X102943914Y-141200094D01*
X102943914Y-141200094D02*
X102848676Y-141152475D01*
X102848676Y-141152475D02*
X102753438Y-141057237D01*
X102753438Y-141057237D02*
X102705819Y-140914380D01*
X102705819Y-140914380D02*
X102705819Y-140819142D01*
X102705819Y-140819142D02*
X102753438Y-140676285D01*
X102753438Y-140676285D02*
X102801057Y-140628666D01*
X102705819Y-140295332D02*
X102705819Y-139676285D01*
X102705819Y-139676285D02*
X103086771Y-140009618D01*
X103086771Y-140009618D02*
X103086771Y-139866761D01*
X103086771Y-139866761D02*
X103134390Y-139771523D01*
X103134390Y-139771523D02*
X103182009Y-139723904D01*
X103182009Y-139723904D02*
X103277247Y-139676285D01*
X103277247Y-139676285D02*
X103515342Y-139676285D01*
X103515342Y-139676285D02*
X103610580Y-139723904D01*
X103610580Y-139723904D02*
X103658200Y-139771523D01*
X103658200Y-139771523D02*
X103705819Y-139866761D01*
X103705819Y-139866761D02*
X103705819Y-140152475D01*
X103705819Y-140152475D02*
X103658200Y-140247713D01*
X103658200Y-140247713D02*
X103610580Y-140295332D01*
%TO.C,SW1*%
X83502667Y-81531200D02*
X83645524Y-81578819D01*
X83645524Y-81578819D02*
X83883619Y-81578819D01*
X83883619Y-81578819D02*
X83978857Y-81531200D01*
X83978857Y-81531200D02*
X84026476Y-81483580D01*
X84026476Y-81483580D02*
X84074095Y-81388342D01*
X84074095Y-81388342D02*
X84074095Y-81293104D01*
X84074095Y-81293104D02*
X84026476Y-81197866D01*
X84026476Y-81197866D02*
X83978857Y-81150247D01*
X83978857Y-81150247D02*
X83883619Y-81102628D01*
X83883619Y-81102628D02*
X83693143Y-81055009D01*
X83693143Y-81055009D02*
X83597905Y-81007390D01*
X83597905Y-81007390D02*
X83550286Y-80959771D01*
X83550286Y-80959771D02*
X83502667Y-80864533D01*
X83502667Y-80864533D02*
X83502667Y-80769295D01*
X83502667Y-80769295D02*
X83550286Y-80674057D01*
X83550286Y-80674057D02*
X83597905Y-80626438D01*
X83597905Y-80626438D02*
X83693143Y-80578819D01*
X83693143Y-80578819D02*
X83931238Y-80578819D01*
X83931238Y-80578819D02*
X84074095Y-80626438D01*
X84407429Y-80578819D02*
X84645524Y-81578819D01*
X84645524Y-81578819D02*
X84836000Y-80864533D01*
X84836000Y-80864533D02*
X85026476Y-81578819D01*
X85026476Y-81578819D02*
X85264572Y-80578819D01*
X86169333Y-81578819D02*
X85597905Y-81578819D01*
X85883619Y-81578819D02*
X85883619Y-80578819D01*
X85883619Y-80578819D02*
X85788381Y-80721676D01*
X85788381Y-80721676D02*
X85693143Y-80816914D01*
X85693143Y-80816914D02*
X85597905Y-80864533D01*
%TO.C,SW2*%
X83375667Y-93498200D02*
X83518524Y-93545819D01*
X83518524Y-93545819D02*
X83756619Y-93545819D01*
X83756619Y-93545819D02*
X83851857Y-93498200D01*
X83851857Y-93498200D02*
X83899476Y-93450580D01*
X83899476Y-93450580D02*
X83947095Y-93355342D01*
X83947095Y-93355342D02*
X83947095Y-93260104D01*
X83947095Y-93260104D02*
X83899476Y-93164866D01*
X83899476Y-93164866D02*
X83851857Y-93117247D01*
X83851857Y-93117247D02*
X83756619Y-93069628D01*
X83756619Y-93069628D02*
X83566143Y-93022009D01*
X83566143Y-93022009D02*
X83470905Y-92974390D01*
X83470905Y-92974390D02*
X83423286Y-92926771D01*
X83423286Y-92926771D02*
X83375667Y-92831533D01*
X83375667Y-92831533D02*
X83375667Y-92736295D01*
X83375667Y-92736295D02*
X83423286Y-92641057D01*
X83423286Y-92641057D02*
X83470905Y-92593438D01*
X83470905Y-92593438D02*
X83566143Y-92545819D01*
X83566143Y-92545819D02*
X83804238Y-92545819D01*
X83804238Y-92545819D02*
X83947095Y-92593438D01*
X84280429Y-92545819D02*
X84518524Y-93545819D01*
X84518524Y-93545819D02*
X84709000Y-92831533D01*
X84709000Y-92831533D02*
X84899476Y-93545819D01*
X84899476Y-93545819D02*
X85137572Y-92545819D01*
X85470905Y-92641057D02*
X85518524Y-92593438D01*
X85518524Y-92593438D02*
X85613762Y-92545819D01*
X85613762Y-92545819D02*
X85851857Y-92545819D01*
X85851857Y-92545819D02*
X85947095Y-92593438D01*
X85947095Y-92593438D02*
X85994714Y-92641057D01*
X85994714Y-92641057D02*
X86042333Y-92736295D01*
X86042333Y-92736295D02*
X86042333Y-92831533D01*
X86042333Y-92831533D02*
X85994714Y-92974390D01*
X85994714Y-92974390D02*
X85423286Y-93545819D01*
X85423286Y-93545819D02*
X86042333Y-93545819D01*
%TO.C,R1*%
X122261333Y-97025619D02*
X121928000Y-96549428D01*
X121689905Y-97025619D02*
X121689905Y-96025619D01*
X121689905Y-96025619D02*
X122070857Y-96025619D01*
X122070857Y-96025619D02*
X122166095Y-96073238D01*
X122166095Y-96073238D02*
X122213714Y-96120857D01*
X122213714Y-96120857D02*
X122261333Y-96216095D01*
X122261333Y-96216095D02*
X122261333Y-96358952D01*
X122261333Y-96358952D02*
X122213714Y-96454190D01*
X122213714Y-96454190D02*
X122166095Y-96501809D01*
X122166095Y-96501809D02*
X122070857Y-96549428D01*
X122070857Y-96549428D02*
X121689905Y-96549428D01*
X123213714Y-97025619D02*
X122642286Y-97025619D01*
X122928000Y-97025619D02*
X122928000Y-96025619D01*
X122928000Y-96025619D02*
X122832762Y-96168476D01*
X122832762Y-96168476D02*
X122737524Y-96263714D01*
X122737524Y-96263714D02*
X122642286Y-96311333D01*
%TO.C,R4*%
X122261333Y-100988019D02*
X121928000Y-100511828D01*
X121689905Y-100988019D02*
X121689905Y-99988019D01*
X121689905Y-99988019D02*
X122070857Y-99988019D01*
X122070857Y-99988019D02*
X122166095Y-100035638D01*
X122166095Y-100035638D02*
X122213714Y-100083257D01*
X122213714Y-100083257D02*
X122261333Y-100178495D01*
X122261333Y-100178495D02*
X122261333Y-100321352D01*
X122261333Y-100321352D02*
X122213714Y-100416590D01*
X122213714Y-100416590D02*
X122166095Y-100464209D01*
X122166095Y-100464209D02*
X122070857Y-100511828D01*
X122070857Y-100511828D02*
X121689905Y-100511828D01*
X123118476Y-100321352D02*
X123118476Y-100988019D01*
X122880381Y-99940400D02*
X122642286Y-100654685D01*
X122642286Y-100654685D02*
X123261333Y-100654685D01*
%TO.C,J6*%
X150322666Y-159601819D02*
X150322666Y-160316104D01*
X150322666Y-160316104D02*
X150275047Y-160458961D01*
X150275047Y-160458961D02*
X150179809Y-160554200D01*
X150179809Y-160554200D02*
X150036952Y-160601819D01*
X150036952Y-160601819D02*
X149941714Y-160601819D01*
X151227428Y-159601819D02*
X151036952Y-159601819D01*
X151036952Y-159601819D02*
X150941714Y-159649438D01*
X150941714Y-159649438D02*
X150894095Y-159697057D01*
X150894095Y-159697057D02*
X150798857Y-159839914D01*
X150798857Y-159839914D02*
X150751238Y-160030390D01*
X150751238Y-160030390D02*
X150751238Y-160411342D01*
X150751238Y-160411342D02*
X150798857Y-160506580D01*
X150798857Y-160506580D02*
X150846476Y-160554200D01*
X150846476Y-160554200D02*
X150941714Y-160601819D01*
X150941714Y-160601819D02*
X151132190Y-160601819D01*
X151132190Y-160601819D02*
X151227428Y-160554200D01*
X151227428Y-160554200D02*
X151275047Y-160506580D01*
X151275047Y-160506580D02*
X151322666Y-160411342D01*
X151322666Y-160411342D02*
X151322666Y-160173247D01*
X151322666Y-160173247D02*
X151275047Y-160078009D01*
X151275047Y-160078009D02*
X151227428Y-160030390D01*
X151227428Y-160030390D02*
X151132190Y-159982771D01*
X151132190Y-159982771D02*
X150941714Y-159982771D01*
X150941714Y-159982771D02*
X150846476Y-160030390D01*
X150846476Y-160030390D02*
X150798857Y-160078009D01*
X150798857Y-160078009D02*
X150751238Y-160173247D01*
%TO.C,J4*%
X145716666Y-107023819D02*
X145716666Y-107738104D01*
X145716666Y-107738104D02*
X145669047Y-107880961D01*
X145669047Y-107880961D02*
X145573809Y-107976200D01*
X145573809Y-107976200D02*
X145430952Y-108023819D01*
X145430952Y-108023819D02*
X145335714Y-108023819D01*
X146621428Y-107357152D02*
X146621428Y-108023819D01*
X146383333Y-106976200D02*
X146145238Y-107690485D01*
X146145238Y-107690485D02*
X146764285Y-107690485D01*
%TO.C,R3*%
X122134333Y-108023819D02*
X121801000Y-107547628D01*
X121562905Y-108023819D02*
X121562905Y-107023819D01*
X121562905Y-107023819D02*
X121943857Y-107023819D01*
X121943857Y-107023819D02*
X122039095Y-107071438D01*
X122039095Y-107071438D02*
X122086714Y-107119057D01*
X122086714Y-107119057D02*
X122134333Y-107214295D01*
X122134333Y-107214295D02*
X122134333Y-107357152D01*
X122134333Y-107357152D02*
X122086714Y-107452390D01*
X122086714Y-107452390D02*
X122039095Y-107500009D01*
X122039095Y-107500009D02*
X121943857Y-107547628D01*
X121943857Y-107547628D02*
X121562905Y-107547628D01*
X122467667Y-107023819D02*
X123086714Y-107023819D01*
X123086714Y-107023819D02*
X122753381Y-107404771D01*
X122753381Y-107404771D02*
X122896238Y-107404771D01*
X122896238Y-107404771D02*
X122991476Y-107452390D01*
X122991476Y-107452390D02*
X123039095Y-107500009D01*
X123039095Y-107500009D02*
X123086714Y-107595247D01*
X123086714Y-107595247D02*
X123086714Y-107833342D01*
X123086714Y-107833342D02*
X123039095Y-107928580D01*
X123039095Y-107928580D02*
X122991476Y-107976200D01*
X122991476Y-107976200D02*
X122896238Y-108023819D01*
X122896238Y-108023819D02*
X122610524Y-108023819D01*
X122610524Y-108023819D02*
X122515286Y-107976200D01*
X122515286Y-107976200D02*
X122467667Y-107928580D01*
%TO.C,TP1*%
X87973819Y-90923904D02*
X87973819Y-90352476D01*
X88973819Y-90638190D02*
X87973819Y-90638190D01*
X88973819Y-90019142D02*
X87973819Y-90019142D01*
X87973819Y-90019142D02*
X87973819Y-89638190D01*
X87973819Y-89638190D02*
X88021438Y-89542952D01*
X88021438Y-89542952D02*
X88069057Y-89495333D01*
X88069057Y-89495333D02*
X88164295Y-89447714D01*
X88164295Y-89447714D02*
X88307152Y-89447714D01*
X88307152Y-89447714D02*
X88402390Y-89495333D01*
X88402390Y-89495333D02*
X88450009Y-89542952D01*
X88450009Y-89542952D02*
X88497628Y-89638190D01*
X88497628Y-89638190D02*
X88497628Y-90019142D01*
X88973819Y-88495333D02*
X88973819Y-89066761D01*
X88973819Y-88781047D02*
X87973819Y-88781047D01*
X87973819Y-88781047D02*
X88116676Y-88876285D01*
X88116676Y-88876285D02*
X88211914Y-88971523D01*
X88211914Y-88971523D02*
X88259533Y-89066761D01*
D12*
%TO.C,IC1*%
X120843318Y-136367762D02*
X119573318Y-136367762D01*
X120722365Y-135037285D02*
X120782842Y-135097761D01*
X120782842Y-135097761D02*
X120843318Y-135279190D01*
X120843318Y-135279190D02*
X120843318Y-135400142D01*
X120843318Y-135400142D02*
X120782842Y-135581571D01*
X120782842Y-135581571D02*
X120661889Y-135702523D01*
X120661889Y-135702523D02*
X120540937Y-135763000D01*
X120540937Y-135763000D02*
X120299032Y-135823476D01*
X120299032Y-135823476D02*
X120117603Y-135823476D01*
X120117603Y-135823476D02*
X119875699Y-135763000D01*
X119875699Y-135763000D02*
X119754746Y-135702523D01*
X119754746Y-135702523D02*
X119633794Y-135581571D01*
X119633794Y-135581571D02*
X119573318Y-135400142D01*
X119573318Y-135400142D02*
X119573318Y-135279190D01*
X119573318Y-135279190D02*
X119633794Y-135097761D01*
X119633794Y-135097761D02*
X119694270Y-135037285D01*
X120843318Y-133827761D02*
X120843318Y-134553476D01*
X120843318Y-134190619D02*
X119573318Y-134190619D01*
X119573318Y-134190619D02*
X119754746Y-134311571D01*
X119754746Y-134311571D02*
X119875699Y-134432523D01*
X119875699Y-134432523D02*
X119936175Y-134553476D01*
D11*
%TO.C,R2*%
X113371333Y-122120819D02*
X113038000Y-121644628D01*
X112799905Y-122120819D02*
X112799905Y-121120819D01*
X112799905Y-121120819D02*
X113180857Y-121120819D01*
X113180857Y-121120819D02*
X113276095Y-121168438D01*
X113276095Y-121168438D02*
X113323714Y-121216057D01*
X113323714Y-121216057D02*
X113371333Y-121311295D01*
X113371333Y-121311295D02*
X113371333Y-121454152D01*
X113371333Y-121454152D02*
X113323714Y-121549390D01*
X113323714Y-121549390D02*
X113276095Y-121597009D01*
X113276095Y-121597009D02*
X113180857Y-121644628D01*
X113180857Y-121644628D02*
X112799905Y-121644628D01*
X113752286Y-121216057D02*
X113799905Y-121168438D01*
X113799905Y-121168438D02*
X113895143Y-121120819D01*
X113895143Y-121120819D02*
X114133238Y-121120819D01*
X114133238Y-121120819D02*
X114228476Y-121168438D01*
X114228476Y-121168438D02*
X114276095Y-121216057D01*
X114276095Y-121216057D02*
X114323714Y-121311295D01*
X114323714Y-121311295D02*
X114323714Y-121406533D01*
X114323714Y-121406533D02*
X114276095Y-121549390D01*
X114276095Y-121549390D02*
X113704667Y-122120819D01*
X113704667Y-122120819D02*
X114323714Y-122120819D01*
%TO.C,C1*%
X124166333Y-138789580D02*
X124118714Y-138837200D01*
X124118714Y-138837200D02*
X123975857Y-138884819D01*
X123975857Y-138884819D02*
X123880619Y-138884819D01*
X123880619Y-138884819D02*
X123737762Y-138837200D01*
X123737762Y-138837200D02*
X123642524Y-138741961D01*
X123642524Y-138741961D02*
X123594905Y-138646723D01*
X123594905Y-138646723D02*
X123547286Y-138456247D01*
X123547286Y-138456247D02*
X123547286Y-138313390D01*
X123547286Y-138313390D02*
X123594905Y-138122914D01*
X123594905Y-138122914D02*
X123642524Y-138027676D01*
X123642524Y-138027676D02*
X123737762Y-137932438D01*
X123737762Y-137932438D02*
X123880619Y-137884819D01*
X123880619Y-137884819D02*
X123975857Y-137884819D01*
X123975857Y-137884819D02*
X124118714Y-137932438D01*
X124118714Y-137932438D02*
X124166333Y-137980057D01*
X125118714Y-138884819D02*
X124547286Y-138884819D01*
X124833000Y-138884819D02*
X124833000Y-137884819D01*
X124833000Y-137884819D02*
X124737762Y-138027676D01*
X124737762Y-138027676D02*
X124642524Y-138122914D01*
X124642524Y-138122914D02*
X124547286Y-138170533D01*
%TO.C,C2*%
X114768333Y-148822580D02*
X114720714Y-148870200D01*
X114720714Y-148870200D02*
X114577857Y-148917819D01*
X114577857Y-148917819D02*
X114482619Y-148917819D01*
X114482619Y-148917819D02*
X114339762Y-148870200D01*
X114339762Y-148870200D02*
X114244524Y-148774961D01*
X114244524Y-148774961D02*
X114196905Y-148679723D01*
X114196905Y-148679723D02*
X114149286Y-148489247D01*
X114149286Y-148489247D02*
X114149286Y-148346390D01*
X114149286Y-148346390D02*
X114196905Y-148155914D01*
X114196905Y-148155914D02*
X114244524Y-148060676D01*
X114244524Y-148060676D02*
X114339762Y-147965438D01*
X114339762Y-147965438D02*
X114482619Y-147917819D01*
X114482619Y-147917819D02*
X114577857Y-147917819D01*
X114577857Y-147917819D02*
X114720714Y-147965438D01*
X114720714Y-147965438D02*
X114768333Y-148013057D01*
X115149286Y-148013057D02*
X115196905Y-147965438D01*
X115196905Y-147965438D02*
X115292143Y-147917819D01*
X115292143Y-147917819D02*
X115530238Y-147917819D01*
X115530238Y-147917819D02*
X115625476Y-147965438D01*
X115625476Y-147965438D02*
X115673095Y-148013057D01*
X115673095Y-148013057D02*
X115720714Y-148108295D01*
X115720714Y-148108295D02*
X115720714Y-148203533D01*
X115720714Y-148203533D02*
X115673095Y-148346390D01*
X115673095Y-148346390D02*
X115101667Y-148917819D01*
X115101667Y-148917819D02*
X115720714Y-148917819D01*
%TO.C,JP1*%
X82097666Y-106261819D02*
X82097666Y-106976104D01*
X82097666Y-106976104D02*
X82050047Y-107118961D01*
X82050047Y-107118961D02*
X81954809Y-107214200D01*
X81954809Y-107214200D02*
X81811952Y-107261819D01*
X81811952Y-107261819D02*
X81716714Y-107261819D01*
X82573857Y-107261819D02*
X82573857Y-106261819D01*
X82573857Y-106261819D02*
X82954809Y-106261819D01*
X82954809Y-106261819D02*
X83050047Y-106309438D01*
X83050047Y-106309438D02*
X83097666Y-106357057D01*
X83097666Y-106357057D02*
X83145285Y-106452295D01*
X83145285Y-106452295D02*
X83145285Y-106595152D01*
X83145285Y-106595152D02*
X83097666Y-106690390D01*
X83097666Y-106690390D02*
X83050047Y-106738009D01*
X83050047Y-106738009D02*
X82954809Y-106785628D01*
X82954809Y-106785628D02*
X82573857Y-106785628D01*
X84097666Y-107261819D02*
X83526238Y-107261819D01*
X83811952Y-107261819D02*
X83811952Y-106261819D01*
X83811952Y-106261819D02*
X83716714Y-106404676D01*
X83716714Y-106404676D02*
X83621476Y-106499914D01*
X83621476Y-106499914D02*
X83526238Y-106547533D01*
%TO.C,R7*%
X83041833Y-104848819D02*
X82708500Y-104372628D01*
X82470405Y-104848819D02*
X82470405Y-103848819D01*
X82470405Y-103848819D02*
X82851357Y-103848819D01*
X82851357Y-103848819D02*
X82946595Y-103896438D01*
X82946595Y-103896438D02*
X82994214Y-103944057D01*
X82994214Y-103944057D02*
X83041833Y-104039295D01*
X83041833Y-104039295D02*
X83041833Y-104182152D01*
X83041833Y-104182152D02*
X82994214Y-104277390D01*
X82994214Y-104277390D02*
X82946595Y-104325009D01*
X82946595Y-104325009D02*
X82851357Y-104372628D01*
X82851357Y-104372628D02*
X82470405Y-104372628D01*
X83375167Y-103848819D02*
X84041833Y-103848819D01*
X84041833Y-103848819D02*
X83613262Y-104848819D01*
%TO.C,R6*%
X122896333Y-115974019D02*
X122563000Y-115497828D01*
X122324905Y-115974019D02*
X122324905Y-114974019D01*
X122324905Y-114974019D02*
X122705857Y-114974019D01*
X122705857Y-114974019D02*
X122801095Y-115021638D01*
X122801095Y-115021638D02*
X122848714Y-115069257D01*
X122848714Y-115069257D02*
X122896333Y-115164495D01*
X122896333Y-115164495D02*
X122896333Y-115307352D01*
X122896333Y-115307352D02*
X122848714Y-115402590D01*
X122848714Y-115402590D02*
X122801095Y-115450209D01*
X122801095Y-115450209D02*
X122705857Y-115497828D01*
X122705857Y-115497828D02*
X122324905Y-115497828D01*
X123753476Y-114974019D02*
X123563000Y-114974019D01*
X123563000Y-114974019D02*
X123467762Y-115021638D01*
X123467762Y-115021638D02*
X123420143Y-115069257D01*
X123420143Y-115069257D02*
X123324905Y-115212114D01*
X123324905Y-115212114D02*
X123277286Y-115402590D01*
X123277286Y-115402590D02*
X123277286Y-115783542D01*
X123277286Y-115783542D02*
X123324905Y-115878780D01*
X123324905Y-115878780D02*
X123372524Y-115926400D01*
X123372524Y-115926400D02*
X123467762Y-115974019D01*
X123467762Y-115974019D02*
X123658238Y-115974019D01*
X123658238Y-115974019D02*
X123753476Y-115926400D01*
X123753476Y-115926400D02*
X123801095Y-115878780D01*
X123801095Y-115878780D02*
X123848714Y-115783542D01*
X123848714Y-115783542D02*
X123848714Y-115545447D01*
X123848714Y-115545447D02*
X123801095Y-115450209D01*
X123801095Y-115450209D02*
X123753476Y-115402590D01*
X123753476Y-115402590D02*
X123658238Y-115354971D01*
X123658238Y-115354971D02*
X123467762Y-115354971D01*
X123467762Y-115354971D02*
X123372524Y-115402590D01*
X123372524Y-115402590D02*
X123324905Y-115450209D01*
X123324905Y-115450209D02*
X123277286Y-115545447D01*
%TO.C,A1*%
X122228780Y-88087200D02*
X122276400Y-88134819D01*
X122276400Y-88134819D02*
X122324019Y-88087200D01*
X122324019Y-88087200D02*
X122276400Y-88039581D01*
X122276400Y-88039581D02*
X122228780Y-88087200D01*
X122228780Y-88087200D02*
X122324019Y-88087200D01*
X137691905Y-87526019D02*
X137691905Y-86526019D01*
X137691905Y-86526019D02*
X137930000Y-86526019D01*
X137930000Y-86526019D02*
X138072857Y-86573638D01*
X138072857Y-86573638D02*
X138168095Y-86668876D01*
X138168095Y-86668876D02*
X138215714Y-86764114D01*
X138215714Y-86764114D02*
X138263333Y-86954590D01*
X138263333Y-86954590D02*
X138263333Y-87097447D01*
X138263333Y-87097447D02*
X138215714Y-87287923D01*
X138215714Y-87287923D02*
X138168095Y-87383161D01*
X138168095Y-87383161D02*
X138072857Y-87478400D01*
X138072857Y-87478400D02*
X137930000Y-87526019D01*
X137930000Y-87526019D02*
X137691905Y-87526019D01*
X138882381Y-86526019D02*
X138977619Y-86526019D01*
X138977619Y-86526019D02*
X139072857Y-86573638D01*
X139072857Y-86573638D02*
X139120476Y-86621257D01*
X139120476Y-86621257D02*
X139168095Y-86716495D01*
X139168095Y-86716495D02*
X139215714Y-86906971D01*
X139215714Y-86906971D02*
X139215714Y-87145066D01*
X139215714Y-87145066D02*
X139168095Y-87335542D01*
X139168095Y-87335542D02*
X139120476Y-87430780D01*
X139120476Y-87430780D02*
X139072857Y-87478400D01*
X139072857Y-87478400D02*
X138977619Y-87526019D01*
X138977619Y-87526019D02*
X138882381Y-87526019D01*
X138882381Y-87526019D02*
X138787143Y-87478400D01*
X138787143Y-87478400D02*
X138739524Y-87430780D01*
X138739524Y-87430780D02*
X138691905Y-87335542D01*
X138691905Y-87335542D02*
X138644286Y-87145066D01*
X138644286Y-87145066D02*
X138644286Y-86906971D01*
X138644286Y-86906971D02*
X138691905Y-86716495D01*
X138691905Y-86716495D02*
X138739524Y-86621257D01*
X138739524Y-86621257D02*
X138787143Y-86573638D01*
X138787143Y-86573638D02*
X138882381Y-86526019D01*
D13*
%TO.C,J3*%
X83506000Y-158436000D02*
X84836000Y-158436000D01*
X83506000Y-161036000D02*
X86166000Y-161036000D01*
X83506000Y-161096000D02*
X86166000Y-161096000D01*
X86166000Y-161036000D02*
X86166000Y-161096000D01*
X83506000Y-161036000D02*
X83506000Y-161096000D01*
X83506000Y-159766000D02*
X83506000Y-158436000D01*
%TO.C,J1*%
X83496000Y-108779000D02*
X83496000Y-110109000D01*
X83496000Y-111379000D02*
X83496000Y-157099000D01*
X84826000Y-108779000D02*
X83496000Y-108779000D01*
X86096000Y-108779000D02*
X86096000Y-111379000D01*
X86096000Y-111379000D02*
X83496000Y-111379000D01*
X88696000Y-108779000D02*
X86096000Y-108779000D01*
X88696000Y-108779000D02*
X88696000Y-157099000D01*
X88696000Y-157099000D02*
X83496000Y-157099000D01*
X144456000Y-108779000D02*
X144456000Y-110109000D01*
X144456000Y-111379000D02*
X144456000Y-157099000D01*
X145786000Y-108779000D02*
X144456000Y-108779000D01*
X147056000Y-108779000D02*
X147056000Y-111379000D01*
X147056000Y-111379000D02*
X144456000Y-111379000D01*
X149656000Y-108779000D02*
X147056000Y-108779000D01*
X149656000Y-108779000D02*
X149656000Y-157099000D01*
X149656000Y-157099000D02*
X144456000Y-157099000D01*
%TO.C,R5*%
X129897000Y-111506000D02*
X129207000Y-111506000D01*
X129207000Y-113226000D02*
X129207000Y-109786000D01*
X129207000Y-109786000D02*
X119967000Y-109786000D01*
X119967000Y-113226000D02*
X129207000Y-113226000D01*
X119967000Y-109786000D02*
X119967000Y-113226000D01*
X119277000Y-111506000D02*
X119967000Y-111506000D01*
%TO.C,J2*%
X108906000Y-81467000D02*
X108906000Y-80137000D01*
X110236000Y-81467000D02*
X108906000Y-81467000D01*
X111506000Y-81467000D02*
X124266000Y-81467000D01*
X111506000Y-81467000D02*
X111506000Y-78807000D01*
X124266000Y-81467000D02*
X124266000Y-78807000D01*
X111506000Y-78807000D02*
X124266000Y-78807000D01*
%TO.C,C4*%
X111408000Y-140467651D02*
X111408000Y-141267651D01*
X111808000Y-140867651D02*
X111008000Y-140867651D01*
X113173000Y-144877349D02*
X105013000Y-144877349D01*
X113173000Y-144917349D02*
X105013000Y-144917349D01*
X113173000Y-144957349D02*
X105013000Y-144957349D01*
X113172000Y-144997349D02*
X105014000Y-144997349D01*
X113170000Y-145037349D02*
X105016000Y-145037349D01*
X113169000Y-145077349D02*
X105017000Y-145077349D01*
X113167000Y-145117349D02*
X105019000Y-145117349D01*
X113164000Y-145157349D02*
X105022000Y-145157349D01*
X113161000Y-145197349D02*
X105025000Y-145197349D01*
X113158000Y-145237349D02*
X105028000Y-145237349D01*
X113154000Y-145277349D02*
X105032000Y-145277349D01*
X113150000Y-145317349D02*
X105036000Y-145317349D01*
X113145000Y-145357349D02*
X105041000Y-145357349D01*
X113141000Y-145397349D02*
X105045000Y-145397349D01*
X113135000Y-145437349D02*
X105051000Y-145437349D01*
X113130000Y-145477349D02*
X105056000Y-145477349D01*
X113123000Y-145517349D02*
X105063000Y-145517349D01*
X113117000Y-145557349D02*
X105069000Y-145557349D01*
X113110000Y-145598349D02*
X110133000Y-145598349D01*
X108053000Y-145598349D02*
X105076000Y-145598349D01*
X113103000Y-145638349D02*
X110133000Y-145638349D01*
X108053000Y-145638349D02*
X105083000Y-145638349D01*
X113095000Y-145678349D02*
X110133000Y-145678349D01*
X108053000Y-145678349D02*
X105091000Y-145678349D01*
X113087000Y-145718349D02*
X110133000Y-145718349D01*
X108053000Y-145718349D02*
X105099000Y-145718349D01*
X113078000Y-145758349D02*
X110133000Y-145758349D01*
X108053000Y-145758349D02*
X105108000Y-145758349D01*
X113069000Y-145798349D02*
X110133000Y-145798349D01*
X108053000Y-145798349D02*
X105117000Y-145798349D01*
X113060000Y-145838349D02*
X110133000Y-145838349D01*
X108053000Y-145838349D02*
X105126000Y-145838349D01*
X113050000Y-145878349D02*
X110133000Y-145878349D01*
X108053000Y-145878349D02*
X105136000Y-145878349D01*
X113040000Y-145918349D02*
X110133000Y-145918349D01*
X108053000Y-145918349D02*
X105146000Y-145918349D01*
X113029000Y-145958349D02*
X110133000Y-145958349D01*
X108053000Y-145958349D02*
X105157000Y-145958349D01*
X113018000Y-145998349D02*
X110133000Y-145998349D01*
X108053000Y-145998349D02*
X105168000Y-145998349D01*
X113007000Y-146038349D02*
X110133000Y-146038349D01*
X108053000Y-146038349D02*
X105179000Y-146038349D01*
X112995000Y-146078349D02*
X110133000Y-146078349D01*
X108053000Y-146078349D02*
X105191000Y-146078349D01*
X112982000Y-146118349D02*
X110133000Y-146118349D01*
X108053000Y-146118349D02*
X105204000Y-146118349D01*
X112970000Y-146158349D02*
X110133000Y-146158349D01*
X108053000Y-146158349D02*
X105216000Y-146158349D01*
X112956000Y-146198349D02*
X110133000Y-146198349D01*
X108053000Y-146198349D02*
X105230000Y-146198349D01*
X112943000Y-146238349D02*
X110133000Y-146238349D01*
X108053000Y-146238349D02*
X105243000Y-146238349D01*
X112928000Y-146278349D02*
X110133000Y-146278349D01*
X108053000Y-146278349D02*
X105258000Y-146278349D01*
X112914000Y-146318349D02*
X110133000Y-146318349D01*
X108053000Y-146318349D02*
X105272000Y-146318349D01*
X112898000Y-146358349D02*
X110133000Y-146358349D01*
X108053000Y-146358349D02*
X105288000Y-146358349D01*
X112883000Y-146398349D02*
X110133000Y-146398349D01*
X108053000Y-146398349D02*
X105303000Y-146398349D01*
X112867000Y-146438349D02*
X110133000Y-146438349D01*
X108053000Y-146438349D02*
X105319000Y-146438349D01*
X112850000Y-146478349D02*
X110133000Y-146478349D01*
X108053000Y-146478349D02*
X105336000Y-146478349D01*
X112833000Y-146518349D02*
X110133000Y-146518349D01*
X108053000Y-146518349D02*
X105353000Y-146518349D01*
X112815000Y-146558349D02*
X110133000Y-146558349D01*
X108053000Y-146558349D02*
X105371000Y-146558349D01*
X112797000Y-146598349D02*
X110133000Y-146598349D01*
X108053000Y-146598349D02*
X105389000Y-146598349D01*
X112779000Y-146638349D02*
X110133000Y-146638349D01*
X108053000Y-146638349D02*
X105407000Y-146638349D01*
X112759000Y-146678349D02*
X110133000Y-146678349D01*
X108053000Y-146678349D02*
X105427000Y-146678349D01*
X112740000Y-146718349D02*
X110133000Y-146718349D01*
X108053000Y-146718349D02*
X105446000Y-146718349D01*
X112720000Y-146758349D02*
X110133000Y-146758349D01*
X108053000Y-146758349D02*
X105466000Y-146758349D01*
X112699000Y-146798349D02*
X110133000Y-146798349D01*
X108053000Y-146798349D02*
X105487000Y-146798349D01*
X112677000Y-146838349D02*
X110133000Y-146838349D01*
X108053000Y-146838349D02*
X105509000Y-146838349D01*
X112655000Y-146878349D02*
X110133000Y-146878349D01*
X108053000Y-146878349D02*
X105531000Y-146878349D01*
X112633000Y-146918349D02*
X110133000Y-146918349D01*
X108053000Y-146918349D02*
X105553000Y-146918349D01*
X112610000Y-146958349D02*
X110133000Y-146958349D01*
X108053000Y-146958349D02*
X105576000Y-146958349D01*
X112586000Y-146998349D02*
X110133000Y-146998349D01*
X108053000Y-146998349D02*
X105600000Y-146998349D01*
X112562000Y-147038349D02*
X110133000Y-147038349D01*
X108053000Y-147038349D02*
X105624000Y-147038349D01*
X112537000Y-147078349D02*
X110133000Y-147078349D01*
X108053000Y-147078349D02*
X105649000Y-147078349D01*
X112511000Y-147118349D02*
X110133000Y-147118349D01*
X108053000Y-147118349D02*
X105675000Y-147118349D01*
X112485000Y-147158349D02*
X110133000Y-147158349D01*
X108053000Y-147158349D02*
X105701000Y-147158349D01*
X112458000Y-147198349D02*
X110133000Y-147198349D01*
X108053000Y-147198349D02*
X105728000Y-147198349D01*
X112431000Y-147238349D02*
X110133000Y-147238349D01*
X108053000Y-147238349D02*
X105755000Y-147238349D01*
X112402000Y-147278349D02*
X110133000Y-147278349D01*
X108053000Y-147278349D02*
X105784000Y-147278349D01*
X112373000Y-147318349D02*
X110133000Y-147318349D01*
X108053000Y-147318349D02*
X105813000Y-147318349D01*
X112343000Y-147358349D02*
X110133000Y-147358349D01*
X108053000Y-147358349D02*
X105843000Y-147358349D01*
X112313000Y-147398349D02*
X110133000Y-147398349D01*
X108053000Y-147398349D02*
X105873000Y-147398349D01*
X112282000Y-147438349D02*
X110133000Y-147438349D01*
X108053000Y-147438349D02*
X105904000Y-147438349D01*
X112249000Y-147478349D02*
X110133000Y-147478349D01*
X108053000Y-147478349D02*
X105937000Y-147478349D01*
X112217000Y-147518349D02*
X110133000Y-147518349D01*
X108053000Y-147518349D02*
X105969000Y-147518349D01*
X112183000Y-147558349D02*
X110133000Y-147558349D01*
X108053000Y-147558349D02*
X106003000Y-147558349D01*
X112148000Y-147598349D02*
X110133000Y-147598349D01*
X108053000Y-147598349D02*
X106038000Y-147598349D01*
X112112000Y-147638349D02*
X110133000Y-147638349D01*
X108053000Y-147638349D02*
X106074000Y-147638349D01*
X112076000Y-147678349D02*
X106110000Y-147678349D01*
X112038000Y-147718349D02*
X106148000Y-147718349D01*
X112000000Y-147758349D02*
X106186000Y-147758349D01*
X111960000Y-147798349D02*
X106226000Y-147798349D01*
X111919000Y-147838349D02*
X106267000Y-147838349D01*
X111877000Y-147878349D02*
X106309000Y-147878349D01*
X111834000Y-147918349D02*
X106352000Y-147918349D01*
X111790000Y-147958349D02*
X106396000Y-147958349D01*
X111744000Y-147998349D02*
X106442000Y-147998349D01*
X111697000Y-148038349D02*
X106489000Y-148038349D01*
X111649000Y-148078349D02*
X106537000Y-148078349D01*
X111598000Y-148118349D02*
X106588000Y-148118349D01*
X111547000Y-148158349D02*
X106639000Y-148158349D01*
X111493000Y-148198349D02*
X106693000Y-148198349D01*
X111438000Y-148238349D02*
X106748000Y-148238349D01*
X111380000Y-148278349D02*
X106806000Y-148278349D01*
X111321000Y-148318349D02*
X106865000Y-148318349D01*
X111259000Y-148358349D02*
X106927000Y-148358349D01*
X111195000Y-148398349D02*
X106991000Y-148398349D01*
X111127000Y-148438349D02*
X107059000Y-148438349D01*
X111057000Y-148478349D02*
X107129000Y-148478349D01*
X110983000Y-148518349D02*
X107203000Y-148518349D01*
X110906000Y-148558349D02*
X107280000Y-148558349D01*
X110824000Y-148598349D02*
X107362000Y-148598349D01*
X110738000Y-148638349D02*
X107448000Y-148638349D01*
X110645000Y-148678349D02*
X107541000Y-148678349D01*
X110546000Y-148718349D02*
X107640000Y-148718349D01*
X110439000Y-148758349D02*
X107747000Y-148758349D01*
X110322000Y-148798349D02*
X107864000Y-148798349D01*
X110191000Y-148838349D02*
X107995000Y-148838349D01*
X110041000Y-148878349D02*
X108145000Y-148878349D01*
X109861000Y-148918349D02*
X108325000Y-148918349D01*
X109626000Y-148958349D02*
X108560000Y-148958349D01*
X113213000Y-144877349D02*
G75*
G03*
X113213000Y-144877349I-4120000J0D01*
G01*
%TO.C,REF\u002A\u002A*%
X145100000Y-91252000D02*
X147000000Y-91252000D01*
X145100000Y-93152000D02*
X145100000Y-91252000D01*
X147000000Y-91252000D02*
X147000000Y-93152000D01*
X147000000Y-93152000D02*
X145100000Y-93152000D01*
%TO.C,C3*%
X105285000Y-140315733D02*
X105285000Y-140608267D01*
X104265000Y-140315733D02*
X104265000Y-140608267D01*
%TO.C,SW1*%
X84522000Y-82124000D02*
X85852000Y-82124000D01*
X84522000Y-83454000D02*
X84522000Y-82124000D01*
X84522000Y-84724000D02*
X84522000Y-89864000D01*
X84522000Y-84724000D02*
X87182000Y-84724000D01*
X84522000Y-89864000D02*
X87182000Y-89864000D01*
X87182000Y-84724000D02*
X87182000Y-89864000D01*
%TO.C,SW2*%
X84522000Y-94301000D02*
X85852000Y-94301000D01*
X84522000Y-95631000D02*
X84522000Y-94301000D01*
X84522000Y-96901000D02*
X84522000Y-102041000D01*
X84522000Y-96901000D02*
X87182000Y-96901000D01*
X84522000Y-102041000D02*
X87182000Y-102041000D01*
X87182000Y-96901000D02*
X87182000Y-102041000D01*
%TO.C,R1*%
X136247000Y-96520000D02*
X135557000Y-96520000D01*
X135557000Y-98240000D02*
X135557000Y-94800000D01*
X135557000Y-94800000D02*
X126317000Y-94800000D01*
X126317000Y-98240000D02*
X135557000Y-98240000D01*
X126317000Y-94800000D02*
X126317000Y-98240000D01*
X125627000Y-96520000D02*
X126317000Y-96520000D01*
%TO.C,R4*%
X136247000Y-100584000D02*
X135557000Y-100584000D01*
X135557000Y-102304000D02*
X135557000Y-98864000D01*
X135557000Y-98864000D02*
X126317000Y-98864000D01*
X126317000Y-102304000D02*
X135557000Y-102304000D01*
X126317000Y-98864000D02*
X126317000Y-102304000D01*
X125627000Y-100584000D02*
X126317000Y-100584000D01*
%TO.C,J6*%
X149656000Y-158817000D02*
X149656000Y-160147000D01*
X148326000Y-158817000D02*
X149656000Y-158817000D01*
X147056000Y-158817000D02*
X139376000Y-158817000D01*
X147056000Y-158817000D02*
X147056000Y-161477000D01*
X139376000Y-158817000D02*
X139376000Y-161477000D01*
X147056000Y-161477000D02*
X139376000Y-161477000D01*
%TO.C,REF\u002A\u002A*%
X145100000Y-87315000D02*
X147000000Y-87315000D01*
X145100000Y-89215000D02*
X145100000Y-87315000D01*
X147000000Y-87315000D02*
X147000000Y-89215000D01*
X147000000Y-89215000D02*
X145100000Y-89215000D01*
%TO.C,J4*%
X144720000Y-101600000D02*
X144720000Y-106740000D01*
X144720000Y-101600000D02*
X147380000Y-101600000D01*
X144720000Y-106740000D02*
X147380000Y-106740000D01*
X146050000Y-99000000D02*
X147380000Y-99000000D01*
X147380000Y-99000000D02*
X147380000Y-100330000D01*
X147380000Y-101600000D02*
X147380000Y-106740000D01*
%TO.C,R3*%
X136247000Y-107442000D02*
X135557000Y-107442000D01*
X135557000Y-109162000D02*
X135557000Y-105722000D01*
X135557000Y-105722000D02*
X126317000Y-105722000D01*
X126317000Y-109162000D02*
X135557000Y-109162000D01*
X126317000Y-105722000D02*
X126317000Y-109162000D01*
X125627000Y-107442000D02*
X126317000Y-107442000D01*
%TO.C,TP1*%
X89088000Y-92202000D02*
G75*
G03*
X89088000Y-92202000I-950000J0D01*
G01*
D14*
%TO.C,IC1*%
X107021000Y-131829000D02*
X107021000Y-131829000D01*
X107021000Y-131985000D02*
X107021000Y-131985000D01*
D15*
X110998000Y-132413000D02*
X110998000Y-139113000D01*
D14*
X107021000Y-131985000D02*
G75*
G03*
X107021000Y-131829000I0J78000D01*
G01*
X107021000Y-131829000D02*
G75*
G03*
X107021000Y-131985000I0J-78000D01*
G01*
D13*
%TO.C,REF\u002A\u002A*%
X145100000Y-94935000D02*
X147000000Y-94935000D01*
X145100000Y-96835000D02*
X145100000Y-94935000D01*
X147000000Y-94935000D02*
X147000000Y-96835000D01*
X147000000Y-96835000D02*
X145100000Y-96835000D01*
%TO.C,R2*%
X127357000Y-121539000D02*
X126667000Y-121539000D01*
X126667000Y-123259000D02*
X126667000Y-119819000D01*
X126667000Y-119819000D02*
X117427000Y-119819000D01*
X117427000Y-123259000D02*
X126667000Y-123259000D01*
X117427000Y-119819000D02*
X117427000Y-123259000D01*
X116737000Y-121539000D02*
X117427000Y-121539000D01*
%TO.C,C1*%
X121519733Y-137920000D02*
X121812267Y-137920000D01*
X121519733Y-138940000D02*
X121812267Y-138940000D01*
%TO.C,C2*%
X121314000Y-140467651D02*
X121314000Y-141267651D01*
X121714000Y-140867651D02*
X120914000Y-140867651D01*
X123079000Y-144877349D02*
X114919000Y-144877349D01*
X123079000Y-144917349D02*
X114919000Y-144917349D01*
X123079000Y-144957349D02*
X114919000Y-144957349D01*
X123078000Y-144997349D02*
X114920000Y-144997349D01*
X123076000Y-145037349D02*
X114922000Y-145037349D01*
X123075000Y-145077349D02*
X114923000Y-145077349D01*
X123073000Y-145117349D02*
X114925000Y-145117349D01*
X123070000Y-145157349D02*
X114928000Y-145157349D01*
X123067000Y-145197349D02*
X114931000Y-145197349D01*
X123064000Y-145237349D02*
X114934000Y-145237349D01*
X123060000Y-145277349D02*
X114938000Y-145277349D01*
X123056000Y-145317349D02*
X114942000Y-145317349D01*
X123051000Y-145357349D02*
X114947000Y-145357349D01*
X123047000Y-145397349D02*
X114951000Y-145397349D01*
X123041000Y-145437349D02*
X114957000Y-145437349D01*
X123036000Y-145477349D02*
X114962000Y-145477349D01*
X123029000Y-145517349D02*
X114969000Y-145517349D01*
X123023000Y-145557349D02*
X114975000Y-145557349D01*
X123016000Y-145598349D02*
X120039000Y-145598349D01*
X117959000Y-145598349D02*
X114982000Y-145598349D01*
X123009000Y-145638349D02*
X120039000Y-145638349D01*
X117959000Y-145638349D02*
X114989000Y-145638349D01*
X123001000Y-145678349D02*
X120039000Y-145678349D01*
X117959000Y-145678349D02*
X114997000Y-145678349D01*
X122993000Y-145718349D02*
X120039000Y-145718349D01*
X117959000Y-145718349D02*
X115005000Y-145718349D01*
X122984000Y-145758349D02*
X120039000Y-145758349D01*
X117959000Y-145758349D02*
X115014000Y-145758349D01*
X122975000Y-145798349D02*
X120039000Y-145798349D01*
X117959000Y-145798349D02*
X115023000Y-145798349D01*
X122966000Y-145838349D02*
X120039000Y-145838349D01*
X117959000Y-145838349D02*
X115032000Y-145838349D01*
X122956000Y-145878349D02*
X120039000Y-145878349D01*
X117959000Y-145878349D02*
X115042000Y-145878349D01*
X122946000Y-145918349D02*
X120039000Y-145918349D01*
X117959000Y-145918349D02*
X115052000Y-145918349D01*
X122935000Y-145958349D02*
X120039000Y-145958349D01*
X117959000Y-145958349D02*
X115063000Y-145958349D01*
X122924000Y-145998349D02*
X120039000Y-145998349D01*
X117959000Y-145998349D02*
X115074000Y-145998349D01*
X122913000Y-146038349D02*
X120039000Y-146038349D01*
X117959000Y-146038349D02*
X115085000Y-146038349D01*
X122901000Y-146078349D02*
X120039000Y-146078349D01*
X117959000Y-146078349D02*
X115097000Y-146078349D01*
X122888000Y-146118349D02*
X120039000Y-146118349D01*
X117959000Y-146118349D02*
X115110000Y-146118349D01*
X122876000Y-146158349D02*
X120039000Y-146158349D01*
X117959000Y-146158349D02*
X115122000Y-146158349D01*
X122862000Y-146198349D02*
X120039000Y-146198349D01*
X117959000Y-146198349D02*
X115136000Y-146198349D01*
X122849000Y-146238349D02*
X120039000Y-146238349D01*
X117959000Y-146238349D02*
X115149000Y-146238349D01*
X122834000Y-146278349D02*
X120039000Y-146278349D01*
X117959000Y-146278349D02*
X115164000Y-146278349D01*
X122820000Y-146318349D02*
X120039000Y-146318349D01*
X117959000Y-146318349D02*
X115178000Y-146318349D01*
X122804000Y-146358349D02*
X120039000Y-146358349D01*
X117959000Y-146358349D02*
X115194000Y-146358349D01*
X122789000Y-146398349D02*
X120039000Y-146398349D01*
X117959000Y-146398349D02*
X115209000Y-146398349D01*
X122773000Y-146438349D02*
X120039000Y-146438349D01*
X117959000Y-146438349D02*
X115225000Y-146438349D01*
X122756000Y-146478349D02*
X120039000Y-146478349D01*
X117959000Y-146478349D02*
X115242000Y-146478349D01*
X122739000Y-146518349D02*
X120039000Y-146518349D01*
X117959000Y-146518349D02*
X115259000Y-146518349D01*
X122721000Y-146558349D02*
X120039000Y-146558349D01*
X117959000Y-146558349D02*
X115277000Y-146558349D01*
X122703000Y-146598349D02*
X120039000Y-146598349D01*
X117959000Y-146598349D02*
X115295000Y-146598349D01*
X122685000Y-146638349D02*
X120039000Y-146638349D01*
X117959000Y-146638349D02*
X115313000Y-146638349D01*
X122665000Y-146678349D02*
X120039000Y-146678349D01*
X117959000Y-146678349D02*
X115333000Y-146678349D01*
X122646000Y-146718349D02*
X120039000Y-146718349D01*
X117959000Y-146718349D02*
X115352000Y-146718349D01*
X122626000Y-146758349D02*
X120039000Y-146758349D01*
X117959000Y-146758349D02*
X115372000Y-146758349D01*
X122605000Y-146798349D02*
X120039000Y-146798349D01*
X117959000Y-146798349D02*
X115393000Y-146798349D01*
X122583000Y-146838349D02*
X120039000Y-146838349D01*
X117959000Y-146838349D02*
X115415000Y-146838349D01*
X122561000Y-146878349D02*
X120039000Y-146878349D01*
X117959000Y-146878349D02*
X115437000Y-146878349D01*
X122539000Y-146918349D02*
X120039000Y-146918349D01*
X117959000Y-146918349D02*
X115459000Y-146918349D01*
X122516000Y-146958349D02*
X120039000Y-146958349D01*
X117959000Y-146958349D02*
X115482000Y-146958349D01*
X122492000Y-146998349D02*
X120039000Y-146998349D01*
X117959000Y-146998349D02*
X115506000Y-146998349D01*
X122468000Y-147038349D02*
X120039000Y-147038349D01*
X117959000Y-147038349D02*
X115530000Y-147038349D01*
X122443000Y-147078349D02*
X120039000Y-147078349D01*
X117959000Y-147078349D02*
X115555000Y-147078349D01*
X122417000Y-147118349D02*
X120039000Y-147118349D01*
X117959000Y-147118349D02*
X115581000Y-147118349D01*
X122391000Y-147158349D02*
X120039000Y-147158349D01*
X117959000Y-147158349D02*
X115607000Y-147158349D01*
X122364000Y-147198349D02*
X120039000Y-147198349D01*
X117959000Y-147198349D02*
X115634000Y-147198349D01*
X122337000Y-147238349D02*
X120039000Y-147238349D01*
X117959000Y-147238349D02*
X115661000Y-147238349D01*
X122308000Y-147278349D02*
X120039000Y-147278349D01*
X117959000Y-147278349D02*
X115690000Y-147278349D01*
X122279000Y-147318349D02*
X120039000Y-147318349D01*
X117959000Y-147318349D02*
X115719000Y-147318349D01*
X122249000Y-147358349D02*
X120039000Y-147358349D01*
X117959000Y-147358349D02*
X115749000Y-147358349D01*
X122219000Y-147398349D02*
X120039000Y-147398349D01*
X117959000Y-147398349D02*
X115779000Y-147398349D01*
X122188000Y-147438349D02*
X120039000Y-147438349D01*
X117959000Y-147438349D02*
X115810000Y-147438349D01*
X122155000Y-147478349D02*
X120039000Y-147478349D01*
X117959000Y-147478349D02*
X115843000Y-147478349D01*
X122123000Y-147518349D02*
X120039000Y-147518349D01*
X117959000Y-147518349D02*
X115875000Y-147518349D01*
X122089000Y-147558349D02*
X120039000Y-147558349D01*
X117959000Y-147558349D02*
X115909000Y-147558349D01*
X122054000Y-147598349D02*
X120039000Y-147598349D01*
X117959000Y-147598349D02*
X115944000Y-147598349D01*
X122018000Y-147638349D02*
X120039000Y-147638349D01*
X117959000Y-147638349D02*
X115980000Y-147638349D01*
X121982000Y-147678349D02*
X116016000Y-147678349D01*
X121944000Y-147718349D02*
X116054000Y-147718349D01*
X121906000Y-147758349D02*
X116092000Y-147758349D01*
X121866000Y-147798349D02*
X116132000Y-147798349D01*
X121825000Y-147838349D02*
X116173000Y-147838349D01*
X121783000Y-147878349D02*
X116215000Y-147878349D01*
X121740000Y-147918349D02*
X116258000Y-147918349D01*
X121696000Y-147958349D02*
X116302000Y-147958349D01*
X121650000Y-147998349D02*
X116348000Y-147998349D01*
X121603000Y-148038349D02*
X116395000Y-148038349D01*
X121555000Y-148078349D02*
X116443000Y-148078349D01*
X121504000Y-148118349D02*
X116494000Y-148118349D01*
X121453000Y-148158349D02*
X116545000Y-148158349D01*
X121399000Y-148198349D02*
X116599000Y-148198349D01*
X121344000Y-148238349D02*
X116654000Y-148238349D01*
X121286000Y-148278349D02*
X116712000Y-148278349D01*
X121227000Y-148318349D02*
X116771000Y-148318349D01*
X121165000Y-148358349D02*
X116833000Y-148358349D01*
X121101000Y-148398349D02*
X116897000Y-148398349D01*
X121033000Y-148438349D02*
X116965000Y-148438349D01*
X120963000Y-148478349D02*
X117035000Y-148478349D01*
X120889000Y-148518349D02*
X117109000Y-148518349D01*
X120812000Y-148558349D02*
X117186000Y-148558349D01*
X120730000Y-148598349D02*
X117268000Y-148598349D01*
X120644000Y-148638349D02*
X117354000Y-148638349D01*
X120551000Y-148678349D02*
X117447000Y-148678349D01*
X120452000Y-148718349D02*
X117546000Y-148718349D01*
X120345000Y-148758349D02*
X117653000Y-148758349D01*
X120228000Y-148798349D02*
X117770000Y-148798349D01*
X120097000Y-148838349D02*
X117901000Y-148838349D01*
X119947000Y-148878349D02*
X118051000Y-148878349D01*
X119767000Y-148918349D02*
X118231000Y-148918349D01*
X119532000Y-148958349D02*
X118466000Y-148958349D01*
X123119000Y-144877349D02*
G75*
G03*
X123119000Y-144877349I-4120000J0D01*
G01*
%TO.C,JP1*%
X84452000Y-105807000D02*
X87252000Y-105807000D01*
X84452000Y-107807000D02*
X84452000Y-105807000D01*
X87252000Y-105807000D02*
X87252000Y-107807000D01*
X87252000Y-107807000D02*
X84452000Y-107807000D01*
%TO.C,R7*%
X85620776Y-104916500D02*
X86130224Y-104916500D01*
X85620776Y-103871500D02*
X86130224Y-103871500D01*
%TO.C,R6*%
X136755000Y-115570000D02*
X136065000Y-115570000D01*
X136065000Y-117290000D02*
X136065000Y-113850000D01*
X136065000Y-113850000D02*
X126825000Y-113850000D01*
X126825000Y-117290000D02*
X136065000Y-117290000D01*
X126825000Y-113850000D02*
X126825000Y-117290000D01*
X126135000Y-115570000D02*
X126825000Y-115570000D01*
D11*
%TO.C,A1*%
X89865200Y-150571200D02*
X89865200Y-84531200D01*
X143205200Y-150571200D02*
X89865200Y-150571200D01*
X143205200Y-150571200D02*
X143205200Y-86055200D01*
X143205200Y-86055200D02*
X141681200Y-84531200D01*
X89865200Y-84531200D02*
X91135200Y-84531200D01*
X91135200Y-84531200D02*
X93675200Y-81991200D01*
X130505200Y-84531200D02*
X141681200Y-84531200D01*
X93675200Y-81991200D02*
X127965200Y-81991200D01*
X127965200Y-81991200D02*
X130505200Y-84531200D01*
%TD*%
M02*
