M48
; DRILL file {KiCad 7.0.5} date Tue Jan  9 20:43:37 2024
; FORMAT={-:-/ absolute / inch / decimal}
; #@! TF.CreationDate,2024-01-09T20:43:37+09:00
; #@! TF.GenerationSoftware,Kicad,Pcbnew,7.0.5
; #@! TF.FileFunction,Plated,1,2,PTH
FMAT,2
INCH
; #@! TA.AperFunction,Plated,PTH,ViaDrill
T1C0.0157
; #@! TA.AperFunction,Plated,PTH,ComponentDrill
T2C0.0276
; #@! TA.AperFunction,Plated,PTH,ComponentDrill
T3C0.0315
; #@! TA.AperFunction,Plated,PTH,ComponentDrill
T4C0.0394
; #@! TA.AperFunction,Plated,PTH,ComponentDrill
T5C0.0400
%
G90
G05
T1
X3.36Y-3.22
X3.36Y-3.405
X3.55Y-5.72
X3.645Y-5.1
X3.84Y-3.86
X3.92Y-4.735
X3.93Y-5.76
X3.93Y-5.915
X3.947Y-4.853
X4.166Y-3.876
X4.775Y-5.65
X4.92Y-5.588
X5.024Y-3.758
X5.226Y-5.338
X5.23Y-4.96
X5.296Y-5.484
X5.455Y-5.485
X5.519Y-5.339
X5.56Y-5.68
X5.646Y-4.488
T2
X5.75Y-3.475
X5.75Y-3.63
X5.75Y-3.775
T3
X3.296Y-3.628
X3.296Y-4.128
X3.444Y-3.628
X3.444Y-4.128
X4.588Y-3.584
X4.588Y-4.084
X4.748Y-3.584
X4.748Y-4.084
X4.908Y-3.584
X4.908Y-4.084
X4.934Y-4.744
X5.068Y-3.583
X5.068Y-4.083
X5.228Y-3.583
X5.228Y-4.083
X5.434Y-4.744
T4
X3.3396Y-4.335
X3.3396Y-4.435
X3.3396Y-4.535
X3.3396Y-4.635
X3.3396Y-4.735
X3.3396Y-4.835
X3.3396Y-4.935
X3.3396Y-5.035
X3.3396Y-5.135
X3.3396Y-5.235
X3.3396Y-5.335
X3.3396Y-5.435
X3.3396Y-5.535
X3.3396Y-5.635
X3.3396Y-5.735
X3.3396Y-5.835
X3.3396Y-5.935
X3.3396Y-6.035
X3.3396Y-6.135
X3.4396Y-4.335
X3.4396Y-4.435
X3.4396Y-4.535
X3.4396Y-4.635
X3.4396Y-4.735
X3.4396Y-4.835
X3.4396Y-4.935
X3.4396Y-5.035
X3.4396Y-5.135
X3.4396Y-5.235
X3.4396Y-5.335
X3.4396Y-5.435
X3.4396Y-5.535
X3.4396Y-5.635
X3.4396Y-5.735
X3.4396Y-5.835
X3.4396Y-5.935
X3.4396Y-6.035
X3.4396Y-6.135
X4.183Y-5.128
X4.183Y-5.428
X4.283Y-5.128
X4.283Y-5.428
X4.338Y-4.228
X4.338Y-4.528
X4.383Y-5.128
X4.383Y-5.428
X4.438Y-4.228
X4.438Y-4.528
X4.483Y-5.128
X4.483Y-5.428
X4.538Y-4.228
X4.538Y-4.528
X4.583Y-5.128
X4.583Y-5.428
X4.638Y-4.228
X4.638Y-4.528
X4.683Y-5.128
X4.683Y-5.428
X4.738Y-4.228
X4.738Y-4.528
X4.783Y-5.128
X4.783Y-5.428
X4.838Y-4.228
X4.838Y-4.528
X4.883Y-5.128
X4.883Y-5.428
X4.938Y-4.228
X4.938Y-4.528
X4.983Y-5.128
X4.983Y-5.428
X5.038Y-4.228
X5.038Y-4.528
X5.083Y-5.128
X5.083Y-5.428
X5.138Y-4.228
X5.138Y-4.528
X5.238Y-4.228
X5.238Y-4.528
X5.5396Y-6.305
X5.6396Y-6.305
X5.7396Y-4.335
X5.7396Y-4.435
X5.7396Y-4.535
X5.7396Y-4.635
X5.7396Y-4.735
X5.7396Y-4.835
X5.7396Y-4.935
X5.7396Y-5.035
X5.7396Y-5.135
X5.7396Y-5.235
X5.7396Y-5.335
X5.7396Y-5.435
X5.7396Y-5.535
X5.7396Y-5.635
X5.7396Y-5.735
X5.7396Y-5.835
X5.7396Y-5.935
X5.7396Y-6.035
X5.7396Y-6.135
X5.7396Y-6.305
X5.75Y-3.95
X5.75Y-4.05
X5.75Y-4.15
X5.8396Y-4.335
X5.8396Y-4.435
X5.8396Y-4.535
X5.8396Y-4.635
X5.8396Y-4.735
X5.8396Y-4.835
X5.8396Y-4.935
X5.8396Y-5.035
X5.8396Y-5.135
X5.8396Y-5.235
X5.8396Y-5.335
X5.8396Y-5.435
X5.8396Y-5.535
X5.8396Y-5.635
X5.8396Y-5.735
X5.8396Y-5.835
X5.8396Y-5.935
X5.8396Y-6.035
X5.8396Y-6.135
X5.8396Y-6.305
T5
X3.638Y-3.428
X3.638Y-3.528
X3.638Y-3.628
X3.638Y-3.728
X3.638Y-3.828
X3.638Y-3.928
X3.638Y-4.128
X3.638Y-4.228
X3.638Y-4.328
X3.638Y-4.428
X3.638Y-4.528
X3.638Y-4.628
X3.638Y-4.728
X3.638Y-4.828
X4.538Y-3.323
X4.538Y-3.423
X4.638Y-3.323
X4.638Y-3.423
X4.738Y-3.323
X4.738Y-3.423
X5.538Y-3.428
X5.538Y-3.528
X5.538Y-3.628
X5.538Y-3.728
X5.538Y-3.828
X5.538Y-3.928
X5.538Y-4.028
X5.538Y-4.128
X5.538Y-4.288
X5.538Y-4.388
X5.538Y-4.488
X5.538Y-4.588
X5.538Y-4.688
X5.538Y-4.788
X5.538Y-4.888
X5.538Y-4.988
X5.538Y-5.088
X5.538Y-5.188
T0
M30
