%TF.GenerationSoftware,KiCad,Pcbnew,7.0.5*%
%TF.CreationDate,2024-01-09T20:43:35+09:00*%
%TF.ProjectId,Arduino_CQbrushless,41726475-696e-46f5-9f43-516272757368,rev?*%
%TF.SameCoordinates,Original*%
%TF.FileFunction,Soldermask,Bot*%
%TF.FilePolarity,Negative*%
%FSLAX46Y46*%
G04 Gerber Fmt 4.6, Leading zero omitted, Abs format (unit mm)*
G04 Created by KiCad (PCBNEW 7.0.5) date 2024-01-09 20:43:35*
%MOMM*%
%LPD*%
G01*
G04 APERTURE LIST*
%ADD10R,1.700000X1.700000*%
%ADD11O,1.700000X1.700000*%
%ADD12R,1.500000X1.500000*%
%ADD13O,1.727200X1.727200*%
%ADD14R,1.727200X1.727200*%
%ADD15C,3.200000*%
%ADD16C,1.600000*%
%ADD17O,1.600000X1.600000*%
G04 APERTURE END LIST*
D10*
%TO.C,J4*%
X146050000Y-100330000D03*
D11*
X146050000Y-102870000D03*
X146050000Y-105410000D03*
%TD*%
D12*
%TO.C,REF\u002A\u002A*%
X146050000Y-95885000D03*
%TD*%
%TO.C,REF\u002A\u002A*%
X146050000Y-92202000D03*
%TD*%
%TO.C,REF\u002A\u002A*%
X146050000Y-88265000D03*
%TD*%
D13*
%TO.C,A1*%
X92405200Y-104851200D03*
X140665200Y-129235200D03*
X140665200Y-131775200D03*
X117805200Y-86944200D03*
X115265200Y-86944200D03*
X92405200Y-117551200D03*
X117805200Y-84404200D03*
X120345200Y-86944200D03*
X92405200Y-120091200D03*
D14*
X115265200Y-84404200D03*
X92405200Y-107391200D03*
X92405200Y-109931200D03*
X140665200Y-124155200D03*
D13*
X140665200Y-121615200D03*
X140665200Y-119075200D03*
X140665200Y-116535200D03*
X140665200Y-113995200D03*
X140665200Y-111455200D03*
X140665200Y-108915200D03*
X140665200Y-104851200D03*
X140665200Y-102311200D03*
X140665200Y-99771200D03*
X140665200Y-97231200D03*
X140665200Y-94691200D03*
X140665200Y-92151200D03*
X140665200Y-89611200D03*
X140665200Y-87071200D03*
X92405200Y-122631200D03*
X140665200Y-126695200D03*
X92405200Y-87071200D03*
X92405200Y-89611200D03*
X92405200Y-92151200D03*
X92405200Y-94691200D03*
X92405200Y-97231200D03*
X92405200Y-99771200D03*
X120345200Y-84404200D03*
X92405200Y-112471200D03*
X92405200Y-115011200D03*
D15*
X125425200Y-84531200D03*
X97485200Y-84531200D03*
%TD*%
D16*
%TO.C,R8*%
X83718400Y-92151200D03*
D17*
X83718400Y-104851200D03*
%TD*%
%TO.C,R7*%
X87477600Y-92151200D03*
D16*
X87477600Y-104851200D03*
%TD*%
%TO.C,R6*%
X116535200Y-103733600D03*
D17*
X116535200Y-91033600D03*
%TD*%
D16*
%TO.C,R5*%
X120599200Y-103733600D03*
D17*
X120599200Y-91033600D03*
%TD*%
D16*
%TO.C,R4*%
X132791200Y-103708200D03*
D17*
X132791200Y-91008200D03*
%TD*%
D16*
%TO.C,R3*%
X124663200Y-91033600D03*
D17*
X124663200Y-103733600D03*
%TD*%
%TO.C,R2*%
X138023600Y-120497600D03*
D16*
X125323600Y-120497600D03*
%TD*%
%TO.C,R1*%
X128727200Y-91008200D03*
D17*
X128727200Y-103708200D03*
%TD*%
D10*
%TO.C,J6*%
X148326000Y-160147000D03*
D11*
X145786000Y-160147000D03*
X143246000Y-160147000D03*
X140706000Y-160147000D03*
%TD*%
D10*
%TO.C,J3*%
X129108200Y-130251200D03*
D11*
X126568200Y-130251200D03*
X124028200Y-130251200D03*
X121488200Y-130251200D03*
X118948200Y-130251200D03*
X116408200Y-130251200D03*
X113868200Y-130251200D03*
X111328200Y-130251200D03*
X108788200Y-130251200D03*
X106248200Y-130251200D03*
X106248200Y-137871200D03*
X108788200Y-137871200D03*
X111328200Y-137871200D03*
X113868200Y-137871200D03*
X116408200Y-137871200D03*
X118948200Y-137871200D03*
X121488200Y-137871200D03*
X124028200Y-137871200D03*
X126568200Y-137871200D03*
D10*
X129108200Y-137871200D03*
%TD*%
%TO.C,J2*%
X133045200Y-107391200D03*
D11*
X130505200Y-107391200D03*
X127965200Y-107391200D03*
X125425200Y-107391200D03*
X122885200Y-107391200D03*
X120345200Y-107391200D03*
X117805200Y-107391200D03*
X115265200Y-107391200D03*
X112725200Y-107391200D03*
X110185200Y-107391200D03*
X110185200Y-115011200D03*
X112725200Y-115011200D03*
X115265200Y-115011200D03*
X117805200Y-115011200D03*
X120345200Y-115011200D03*
X122885200Y-115011200D03*
X125425200Y-115011200D03*
X127965200Y-115011200D03*
X130505200Y-115011200D03*
D10*
X133045200Y-115011200D03*
%TD*%
%TO.C,J1*%
X84826000Y-110109000D03*
D11*
X87366000Y-110109000D03*
X84826000Y-112649000D03*
X87366000Y-112649000D03*
X84826000Y-115189000D03*
X87366000Y-115189000D03*
X84826000Y-117729000D03*
X87366000Y-117729000D03*
X84826000Y-120269000D03*
X87366000Y-120269000D03*
X84826000Y-122809000D03*
X87366000Y-122809000D03*
X84826000Y-125349000D03*
X87366000Y-125349000D03*
X84826000Y-127889000D03*
X87366000Y-127889000D03*
X84826000Y-130429000D03*
X87366000Y-130429000D03*
X84826000Y-132969000D03*
X87366000Y-132969000D03*
X84826000Y-135509000D03*
X87366000Y-135509000D03*
X84826000Y-138049000D03*
X87366000Y-138049000D03*
X84826000Y-140589000D03*
X87366000Y-140589000D03*
X84826000Y-143129000D03*
X87366000Y-143129000D03*
X84826000Y-145669000D03*
X87366000Y-145669000D03*
X84826000Y-148209000D03*
X87366000Y-148209000D03*
X84826000Y-150749000D03*
X87366000Y-150749000D03*
X84826000Y-153289000D03*
X87366000Y-153289000D03*
X84826000Y-155829000D03*
X87366000Y-155829000D03*
D10*
X145786000Y-110109000D03*
D11*
X148326000Y-110109000D03*
X145786000Y-112649000D03*
X148326000Y-112649000D03*
X145786000Y-115189000D03*
X148326000Y-115189000D03*
X145786000Y-117729000D03*
X148326000Y-117729000D03*
X145786000Y-120269000D03*
X148326000Y-120269000D03*
X145786000Y-122809000D03*
X148326000Y-122809000D03*
X145786000Y-125349000D03*
X148326000Y-125349000D03*
X145786000Y-127889000D03*
X148326000Y-127889000D03*
X145786000Y-130429000D03*
X148326000Y-130429000D03*
X145786000Y-132969000D03*
X148326000Y-132969000D03*
X145786000Y-135509000D03*
X148326000Y-135509000D03*
X145786000Y-138049000D03*
X148326000Y-138049000D03*
X145786000Y-140589000D03*
X148326000Y-140589000D03*
X145786000Y-143129000D03*
X148326000Y-143129000D03*
X145786000Y-145669000D03*
X148326000Y-145669000D03*
X145786000Y-148209000D03*
X148326000Y-148209000D03*
X145786000Y-150749000D03*
X148326000Y-150749000D03*
X145786000Y-153289000D03*
X148326000Y-153289000D03*
X145786000Y-155829000D03*
X148326000Y-155829000D03*
%TD*%
M02*
