M48
; DRILL file {KiCad 7.0.5} date Tue Feb 20 16:44:14 2024
; FORMAT={-:-/ absolute / inch / decimal}
; #@! TF.CreationDate,2024-02-20T16:44:14+09:00
; #@! TF.GenerationSoftware,Kicad,Pcbnew,7.0.5
; #@! TF.FileFunction,Plated,1,2,PTH
FMAT,2
INCH
; #@! TA.AperFunction,Plated,PTH,ViaDrill
T1C0.0157
; #@! TA.AperFunction,Plated,PTH,ComponentDrill
T2C0.0276
; #@! TA.AperFunction,Plated,PTH,ComponentDrill
T3C0.0315
; #@! TA.AperFunction,Plated,PTH,ComponentDrill
T4C0.0394
; #@! TA.AperFunction,Plated,PTH,ComponentDrill
T5C0.0400
%
G90
G05
T1
X3.815Y-5.735
X3.925Y-4.555
X3.925Y-5.215
X3.935Y-3.495
X4.045Y-5.215
X4.05Y-4.555
X4.055Y-3.495
X4.24Y-4.555
X4.845Y-4.81
X5.115Y-5.895
X5.23Y-5.575
X5.26Y-3.5
X5.36Y-5.665
X5.395Y-3.5
X5.485Y-5.665
X5.62Y-5.665
X5.62Y-6.02
T2
X5.75Y-3.475
X5.75Y-3.63
X5.75Y-3.775
T3
X4.295Y-5.6349
X4.295Y-5.7727
X4.555Y-4.785
X4.655Y-4.39
X4.685Y-5.6349
X4.685Y-5.7727
X4.905Y-3.8
X4.905Y-3.96
X4.905Y-4.23
X4.925Y-4.55
X5.055Y-4.785
X5.155Y-4.39
X5.405Y-3.8
X5.405Y-3.96
X5.405Y-4.23
X5.425Y-4.55
T4
X3.3396Y-4.335
X3.3396Y-4.435
X3.3396Y-4.535
X3.3396Y-4.635
X3.3396Y-4.735
X3.3396Y-4.835
X3.3396Y-4.935
X3.3396Y-5.035
X3.3396Y-5.135
X3.3396Y-5.235
X3.3396Y-5.335
X3.3396Y-5.435
X3.3396Y-5.535
X3.3396Y-5.635
X3.3396Y-5.735
X3.3396Y-5.835
X3.3396Y-5.935
X3.3396Y-6.035
X3.3396Y-6.135
X3.34Y-6.29
X3.38Y-3.2856
X3.38Y-3.3856
X3.38Y-3.4856
X3.38Y-3.765
X3.38Y-3.865
X3.38Y-3.965
X3.4396Y-4.335
X3.4396Y-4.435
X3.4396Y-4.535
X3.4396Y-4.635
X3.4396Y-4.735
X3.4396Y-4.835
X3.4396Y-4.935
X3.4396Y-5.035
X3.4396Y-5.135
X3.4396Y-5.235
X3.4396Y-5.335
X3.4396Y-5.435
X3.4396Y-5.535
X3.4396Y-5.635
X3.4396Y-5.735
X3.4396Y-5.835
X3.4396Y-5.935
X3.4396Y-6.035
X3.4396Y-6.135
X4.34Y-3.155
X4.44Y-3.155
X4.54Y-3.155
X4.64Y-3.155
X4.74Y-3.155
X4.84Y-3.155
X5.5396Y-6.305
X5.6396Y-6.305
X5.7396Y-4.335
X5.7396Y-4.435
X5.7396Y-4.535
X5.7396Y-4.635
X5.7396Y-4.735
X5.7396Y-4.835
X5.7396Y-4.935
X5.7396Y-5.035
X5.7396Y-5.135
X5.7396Y-5.235
X5.7396Y-5.335
X5.7396Y-5.435
X5.7396Y-5.535
X5.7396Y-5.635
X5.7396Y-5.735
X5.7396Y-5.835
X5.7396Y-5.935
X5.7396Y-6.035
X5.7396Y-6.135
X5.7396Y-6.305
X5.75Y-3.95
X5.75Y-4.05
X5.75Y-4.15
X5.8396Y-4.335
X5.8396Y-4.435
X5.8396Y-4.535
X5.8396Y-4.635
X5.8396Y-4.735
X5.8396Y-4.835
X5.8396Y-4.935
X5.8396Y-5.035
X5.8396Y-5.135
X5.8396Y-5.235
X5.8396Y-5.335
X5.8396Y-5.435
X5.8396Y-5.535
X5.8396Y-5.635
X5.8396Y-5.735
X5.8396Y-5.835
X5.8396Y-5.935
X5.8396Y-6.035
X5.8396Y-6.135
X5.8396Y-6.305
T5
X3.638Y-3.428
X3.638Y-3.528
X3.638Y-3.628
X3.638Y-3.728
X3.638Y-3.828
X3.638Y-3.928
X3.638Y-4.128
X3.638Y-4.228
X3.638Y-4.328
X3.638Y-4.428
X3.638Y-4.528
X3.638Y-4.628
X3.638Y-4.728
X3.638Y-4.828
X4.538Y-3.323
X4.538Y-3.423
X4.638Y-3.323
X4.638Y-3.423
X4.738Y-3.323
X4.738Y-3.423
X5.538Y-3.428
X5.538Y-3.528
X5.538Y-3.628
X5.538Y-3.728
X5.538Y-3.828
X5.538Y-3.928
X5.538Y-4.028
X5.538Y-4.128
X5.538Y-4.288
X5.538Y-4.388
X5.538Y-4.488
X5.538Y-4.588
X5.538Y-4.688
X5.538Y-4.788
X5.538Y-4.888
X5.538Y-4.988
X5.538Y-5.088
X5.538Y-5.188
T0
M30
