%TF.GenerationSoftware,KiCad,Pcbnew,7.0.5*%
%TF.CreationDate,2024-01-09T20:43:35+09:00*%
%TF.ProjectId,Arduino_CQbrushless,41726475-696e-46f5-9f43-516272757368,rev?*%
%TF.SameCoordinates,Original*%
%TF.FileFunction,Legend,Top*%
%TF.FilePolarity,Positive*%
%FSLAX46Y46*%
G04 Gerber Fmt 4.6, Leading zero omitted, Abs format (unit mm)*
G04 Created by KiCad (PCBNEW 7.0.5) date 2024-01-09 20:43:35*
%MOMM*%
%LPD*%
G01*
G04 APERTURE LIST*
%ADD10C,0.150000*%
%ADD11C,0.120000*%
G04 APERTURE END LIST*
D10*
X129298893Y-79521133D02*
X129298893Y-80235419D01*
X129536988Y-79187800D02*
X129441750Y-79330657D01*
X129441750Y-79330657D02*
X129298893Y-79521133D01*
X129298893Y-79521133D02*
X129108417Y-79663990D01*
X129108417Y-79663990D02*
X128965560Y-79759228D01*
X130060798Y-79330657D02*
X130251274Y-79521133D01*
X130060798Y-80092561D02*
X130298893Y-80044942D01*
X130298893Y-80044942D02*
X130441750Y-79902085D01*
X130441750Y-79902085D02*
X130536988Y-79759228D01*
X130536988Y-79759228D02*
X130632226Y-79425895D01*
X131536988Y-79425895D02*
X131727464Y-79997323D01*
X131298893Y-79425895D02*
X131251274Y-79663990D01*
X131251274Y-79663990D02*
X131156036Y-79854466D01*
X131156036Y-79854466D02*
X131060798Y-79997323D01*
X131584607Y-79330657D02*
X131679845Y-79425895D01*
X131727464Y-79283038D02*
X131822702Y-79378276D01*
X132060798Y-79711609D02*
X132822702Y-79711609D01*
X133346512Y-79521133D02*
X133584607Y-79806847D01*
X133394131Y-79140180D02*
X133346512Y-79330657D01*
X133346512Y-79330657D02*
X133298893Y-79521133D01*
X133298893Y-79521133D02*
X133203655Y-79711609D01*
X133394131Y-79330657D02*
X133727464Y-79330657D01*
X133727464Y-79330657D02*
X133679845Y-79521133D01*
X133679845Y-79521133D02*
X133632226Y-79711609D01*
X133632226Y-79711609D02*
X133584607Y-79902085D01*
X133584607Y-79902085D02*
X133489369Y-80044942D01*
X133489369Y-80044942D02*
X133346512Y-80187800D01*
X134489369Y-79711609D02*
X134584607Y-79711609D01*
X134584607Y-79711609D02*
X134632226Y-79759228D01*
X134632226Y-79759228D02*
X134632226Y-79854466D01*
X134632226Y-79854466D02*
X134584607Y-79902085D01*
X134584607Y-79902085D02*
X134489369Y-79902085D01*
X134489369Y-79902085D02*
X134441750Y-79854466D01*
X134441750Y-79854466D02*
X134441750Y-79759228D01*
X134441750Y-79759228D02*
X134489369Y-79711609D01*
X135346512Y-79521133D02*
X135727464Y-79425895D01*
X135298893Y-79854466D02*
X135870321Y-79711609D01*
X135489369Y-79140180D02*
X135679845Y-80187800D01*
X136346512Y-79521133D02*
X136441750Y-79759228D01*
X136584607Y-79473514D02*
X136632226Y-79711609D01*
X136870321Y-79521133D02*
X136870321Y-79759228D01*
X136870321Y-79759228D02*
X136822702Y-79902085D01*
X136822702Y-79902085D02*
X136679845Y-80044942D01*
X136679845Y-80044942D02*
X136536988Y-80140180D01*
X137679845Y-79140180D02*
X137679845Y-80187800D01*
X137679845Y-79568752D02*
X137965559Y-79806847D01*
X138394131Y-79330657D02*
X138441750Y-79283038D01*
X138441750Y-79283038D02*
X138536988Y-79235419D01*
X138536988Y-79235419D02*
X138775083Y-79235419D01*
X138775083Y-79235419D02*
X138870321Y-79283038D01*
X138870321Y-79283038D02*
X138917940Y-79330657D01*
X138917940Y-79330657D02*
X138965559Y-79425895D01*
X138965559Y-79425895D02*
X138965559Y-79521133D01*
X138965559Y-79521133D02*
X138917940Y-79663990D01*
X138917940Y-79663990D02*
X138346512Y-80235419D01*
X138346512Y-80235419D02*
X138965559Y-80235419D01*
X140108417Y-79949704D02*
X140584607Y-79949704D01*
X140013179Y-80235419D02*
X140346512Y-79235419D01*
X140346512Y-79235419D02*
X140679845Y-80235419D01*
X141013179Y-80235419D02*
X141013179Y-79568752D01*
X141013179Y-79759228D02*
X141060798Y-79663990D01*
X141060798Y-79663990D02*
X141108417Y-79616371D01*
X141108417Y-79616371D02*
X141203655Y-79568752D01*
X141203655Y-79568752D02*
X141298893Y-79568752D01*
X142060798Y-80235419D02*
X142060798Y-79235419D01*
X142060798Y-80187800D02*
X141965560Y-80235419D01*
X141965560Y-80235419D02*
X141775084Y-80235419D01*
X141775084Y-80235419D02*
X141679846Y-80187800D01*
X141679846Y-80187800D02*
X141632227Y-80140180D01*
X141632227Y-80140180D02*
X141584608Y-80044942D01*
X141584608Y-80044942D02*
X141584608Y-79759228D01*
X141584608Y-79759228D02*
X141632227Y-79663990D01*
X141632227Y-79663990D02*
X141679846Y-79616371D01*
X141679846Y-79616371D02*
X141775084Y-79568752D01*
X141775084Y-79568752D02*
X141965560Y-79568752D01*
X141965560Y-79568752D02*
X142060798Y-79616371D01*
X142965560Y-79568752D02*
X142965560Y-80235419D01*
X142536989Y-79568752D02*
X142536989Y-80092561D01*
X142536989Y-80092561D02*
X142584608Y-80187800D01*
X142584608Y-80187800D02*
X142679846Y-80235419D01*
X142679846Y-80235419D02*
X142822703Y-80235419D01*
X142822703Y-80235419D02*
X142917941Y-80187800D01*
X142917941Y-80187800D02*
X142965560Y-80140180D01*
X143441751Y-80235419D02*
X143441751Y-79568752D01*
X143441751Y-79235419D02*
X143394132Y-79283038D01*
X143394132Y-79283038D02*
X143441751Y-79330657D01*
X143441751Y-79330657D02*
X143489370Y-79283038D01*
X143489370Y-79283038D02*
X143441751Y-79235419D01*
X143441751Y-79235419D02*
X143441751Y-79330657D01*
X143917941Y-79568752D02*
X143917941Y-80235419D01*
X143917941Y-79663990D02*
X143965560Y-79616371D01*
X143965560Y-79616371D02*
X144060798Y-79568752D01*
X144060798Y-79568752D02*
X144203655Y-79568752D01*
X144203655Y-79568752D02*
X144298893Y-79616371D01*
X144298893Y-79616371D02*
X144346512Y-79711609D01*
X144346512Y-79711609D02*
X144346512Y-80235419D01*
X144965560Y-80235419D02*
X144870322Y-80187800D01*
X144870322Y-80187800D02*
X144822703Y-80140180D01*
X144822703Y-80140180D02*
X144775084Y-80044942D01*
X144775084Y-80044942D02*
X144775084Y-79759228D01*
X144775084Y-79759228D02*
X144822703Y-79663990D01*
X144822703Y-79663990D02*
X144870322Y-79616371D01*
X144870322Y-79616371D02*
X144965560Y-79568752D01*
X144965560Y-79568752D02*
X145108417Y-79568752D01*
X145108417Y-79568752D02*
X145203655Y-79616371D01*
X145203655Y-79616371D02*
X145251274Y-79663990D01*
X145251274Y-79663990D02*
X145298893Y-79759228D01*
X145298893Y-79759228D02*
X145298893Y-80044942D01*
X145298893Y-80044942D02*
X145251274Y-80140180D01*
X145251274Y-80140180D02*
X145203655Y-80187800D01*
X145203655Y-80187800D02*
X145108417Y-80235419D01*
X145108417Y-80235419D02*
X144965560Y-80235419D01*
X146346513Y-79235419D02*
X146679846Y-80235419D01*
X146679846Y-80235419D02*
X147013179Y-79235419D01*
X147727465Y-80187800D02*
X147632227Y-80235419D01*
X147632227Y-80235419D02*
X147441751Y-80235419D01*
X147441751Y-80235419D02*
X147346513Y-80187800D01*
X147346513Y-80187800D02*
X147298894Y-80092561D01*
X147298894Y-80092561D02*
X147298894Y-79711609D01*
X147298894Y-79711609D02*
X147346513Y-79616371D01*
X147346513Y-79616371D02*
X147441751Y-79568752D01*
X147441751Y-79568752D02*
X147632227Y-79568752D01*
X147632227Y-79568752D02*
X147727465Y-79616371D01*
X147727465Y-79616371D02*
X147775084Y-79711609D01*
X147775084Y-79711609D02*
X147775084Y-79806847D01*
X147775084Y-79806847D02*
X147298894Y-79902085D01*
X148203656Y-80235419D02*
X148203656Y-79568752D01*
X148203656Y-79759228D02*
X148251275Y-79663990D01*
X148251275Y-79663990D02*
X148298894Y-79616371D01*
X148298894Y-79616371D02*
X148394132Y-79568752D01*
X148394132Y-79568752D02*
X148489370Y-79568752D01*
X149775085Y-79235419D02*
X149870323Y-79235419D01*
X149870323Y-79235419D02*
X149965561Y-79283038D01*
X149965561Y-79283038D02*
X150013180Y-79330657D01*
X150013180Y-79330657D02*
X150060799Y-79425895D01*
X150060799Y-79425895D02*
X150108418Y-79616371D01*
X150108418Y-79616371D02*
X150108418Y-79854466D01*
X150108418Y-79854466D02*
X150060799Y-80044942D01*
X150060799Y-80044942D02*
X150013180Y-80140180D01*
X150013180Y-80140180D02*
X149965561Y-80187800D01*
X149965561Y-80187800D02*
X149870323Y-80235419D01*
X149870323Y-80235419D02*
X149775085Y-80235419D01*
X149775085Y-80235419D02*
X149679847Y-80187800D01*
X149679847Y-80187800D02*
X149632228Y-80140180D01*
X149632228Y-80140180D02*
X149584609Y-80044942D01*
X149584609Y-80044942D02*
X149536990Y-79854466D01*
X149536990Y-79854466D02*
X149536990Y-79616371D01*
X149536990Y-79616371D02*
X149584609Y-79425895D01*
X149584609Y-79425895D02*
X149632228Y-79330657D01*
X149632228Y-79330657D02*
X149679847Y-79283038D01*
X149679847Y-79283038D02*
X149775085Y-79235419D01*
X150536990Y-80140180D02*
X150584609Y-80187800D01*
X150584609Y-80187800D02*
X150536990Y-80235419D01*
X150536990Y-80235419D02*
X150489371Y-80187800D01*
X150489371Y-80187800D02*
X150536990Y-80140180D01*
X150536990Y-80140180D02*
X150536990Y-80235419D01*
X151536989Y-80235419D02*
X150965561Y-80235419D01*
X151251275Y-80235419D02*
X151251275Y-79235419D01*
X151251275Y-79235419D02*
X151156037Y-79378276D01*
X151156037Y-79378276D02*
X151060799Y-79473514D01*
X151060799Y-79473514D02*
X150965561Y-79521133D01*
X147707579Y-103400219D02*
X147707579Y-102400219D01*
X147707579Y-102400219D02*
X147945674Y-102400219D01*
X147945674Y-102400219D02*
X148088531Y-102447838D01*
X148088531Y-102447838D02*
X148183769Y-102543076D01*
X148183769Y-102543076D02*
X148231388Y-102638314D01*
X148231388Y-102638314D02*
X148279007Y-102828790D01*
X148279007Y-102828790D02*
X148279007Y-102971647D01*
X148279007Y-102971647D02*
X148231388Y-103162123D01*
X148231388Y-103162123D02*
X148183769Y-103257361D01*
X148183769Y-103257361D02*
X148088531Y-103352600D01*
X148088531Y-103352600D02*
X147945674Y-103400219D01*
X147945674Y-103400219D02*
X147707579Y-103400219D01*
X149136150Y-102400219D02*
X148945674Y-102400219D01*
X148945674Y-102400219D02*
X148850436Y-102447838D01*
X148850436Y-102447838D02*
X148802817Y-102495457D01*
X148802817Y-102495457D02*
X148707579Y-102638314D01*
X148707579Y-102638314D02*
X148659960Y-102828790D01*
X148659960Y-102828790D02*
X148659960Y-103209742D01*
X148659960Y-103209742D02*
X148707579Y-103304980D01*
X148707579Y-103304980D02*
X148755198Y-103352600D01*
X148755198Y-103352600D02*
X148850436Y-103400219D01*
X148850436Y-103400219D02*
X149040912Y-103400219D01*
X149040912Y-103400219D02*
X149136150Y-103352600D01*
X149136150Y-103352600D02*
X149183769Y-103304980D01*
X149183769Y-103304980D02*
X149231388Y-103209742D01*
X149231388Y-103209742D02*
X149231388Y-102971647D01*
X149231388Y-102971647D02*
X149183769Y-102876409D01*
X149183769Y-102876409D02*
X149136150Y-102828790D01*
X149136150Y-102828790D02*
X149040912Y-102781171D01*
X149040912Y-102781171D02*
X148850436Y-102781171D01*
X148850436Y-102781171D02*
X148755198Y-102828790D01*
X148755198Y-102828790D02*
X148707579Y-102876409D01*
X148707579Y-102876409D02*
X148659960Y-102971647D01*
X148183769Y-104940219D02*
X147707579Y-104940219D01*
X147707579Y-104940219D02*
X147659960Y-105416409D01*
X147659960Y-105416409D02*
X147707579Y-105368790D01*
X147707579Y-105368790D02*
X147802817Y-105321171D01*
X147802817Y-105321171D02*
X148040912Y-105321171D01*
X148040912Y-105321171D02*
X148136150Y-105368790D01*
X148136150Y-105368790D02*
X148183769Y-105416409D01*
X148183769Y-105416409D02*
X148231388Y-105511647D01*
X148231388Y-105511647D02*
X148231388Y-105749742D01*
X148231388Y-105749742D02*
X148183769Y-105844980D01*
X148183769Y-105844980D02*
X148136150Y-105892600D01*
X148136150Y-105892600D02*
X148040912Y-105940219D01*
X148040912Y-105940219D02*
X147802817Y-105940219D01*
X147802817Y-105940219D02*
X147707579Y-105892600D01*
X147707579Y-105892600D02*
X147659960Y-105844980D01*
X148517103Y-104940219D02*
X148850436Y-105940219D01*
X148850436Y-105940219D02*
X149183769Y-104940219D01*
X148231388Y-99806238D02*
X148136150Y-99758619D01*
X148136150Y-99758619D02*
X147993293Y-99758619D01*
X147993293Y-99758619D02*
X147850436Y-99806238D01*
X147850436Y-99806238D02*
X147755198Y-99901476D01*
X147755198Y-99901476D02*
X147707579Y-99996714D01*
X147707579Y-99996714D02*
X147659960Y-100187190D01*
X147659960Y-100187190D02*
X147659960Y-100330047D01*
X147659960Y-100330047D02*
X147707579Y-100520523D01*
X147707579Y-100520523D02*
X147755198Y-100615761D01*
X147755198Y-100615761D02*
X147850436Y-100711000D01*
X147850436Y-100711000D02*
X147993293Y-100758619D01*
X147993293Y-100758619D02*
X148088531Y-100758619D01*
X148088531Y-100758619D02*
X148231388Y-100711000D01*
X148231388Y-100711000D02*
X148279007Y-100663380D01*
X148279007Y-100663380D02*
X148279007Y-100330047D01*
X148279007Y-100330047D02*
X148088531Y-100330047D01*
X148707579Y-100758619D02*
X148707579Y-99758619D01*
X148707579Y-99758619D02*
X149279007Y-100758619D01*
X149279007Y-100758619D02*
X149279007Y-99758619D01*
X149755198Y-100758619D02*
X149755198Y-99758619D01*
X149755198Y-99758619D02*
X149993293Y-99758619D01*
X149993293Y-99758619D02*
X150136150Y-99806238D01*
X150136150Y-99806238D02*
X150231388Y-99901476D01*
X150231388Y-99901476D02*
X150279007Y-99996714D01*
X150279007Y-99996714D02*
X150326626Y-100187190D01*
X150326626Y-100187190D02*
X150326626Y-100330047D01*
X150326626Y-100330047D02*
X150279007Y-100520523D01*
X150279007Y-100520523D02*
X150231388Y-100615761D01*
X150231388Y-100615761D02*
X150136150Y-100711000D01*
X150136150Y-100711000D02*
X149993293Y-100758619D01*
X149993293Y-100758619D02*
X149755198Y-100758619D01*
X135169522Y-122009019D02*
X135502855Y-123009019D01*
X135502855Y-123009019D02*
X135836188Y-122009019D01*
X136169522Y-122342352D02*
X136169522Y-123009019D01*
X136169522Y-122437590D02*
X136217141Y-122389971D01*
X136217141Y-122389971D02*
X136312379Y-122342352D01*
X136312379Y-122342352D02*
X136455236Y-122342352D01*
X136455236Y-122342352D02*
X136550474Y-122389971D01*
X136550474Y-122389971D02*
X136598093Y-122485209D01*
X136598093Y-122485209D02*
X136598093Y-123009019D01*
X136836189Y-123104257D02*
X137598093Y-123104257D01*
X138312379Y-122009019D02*
X137836189Y-122009019D01*
X137836189Y-122009019D02*
X137788570Y-122485209D01*
X137788570Y-122485209D02*
X137836189Y-122437590D01*
X137836189Y-122437590D02*
X137931427Y-122389971D01*
X137931427Y-122389971D02*
X138169522Y-122389971D01*
X138169522Y-122389971D02*
X138264760Y-122437590D01*
X138264760Y-122437590D02*
X138312379Y-122485209D01*
X138312379Y-122485209D02*
X138359998Y-122580447D01*
X138359998Y-122580447D02*
X138359998Y-122818542D01*
X138359998Y-122818542D02*
X138312379Y-122913780D01*
X138312379Y-122913780D02*
X138264760Y-122961400D01*
X138264760Y-122961400D02*
X138169522Y-123009019D01*
X138169522Y-123009019D02*
X137931427Y-123009019D01*
X137931427Y-123009019D02*
X137836189Y-122961400D01*
X137836189Y-122961400D02*
X137788570Y-122913780D01*
X138645713Y-122009019D02*
X138979046Y-123009019D01*
X138979046Y-123009019D02*
X139312379Y-122009019D01*
X148815588Y-157540438D02*
X148720350Y-157492819D01*
X148720350Y-157492819D02*
X148577493Y-157492819D01*
X148577493Y-157492819D02*
X148434636Y-157540438D01*
X148434636Y-157540438D02*
X148339398Y-157635676D01*
X148339398Y-157635676D02*
X148291779Y-157730914D01*
X148291779Y-157730914D02*
X148244160Y-157921390D01*
X148244160Y-157921390D02*
X148244160Y-158064247D01*
X148244160Y-158064247D02*
X148291779Y-158254723D01*
X148291779Y-158254723D02*
X148339398Y-158349961D01*
X148339398Y-158349961D02*
X148434636Y-158445200D01*
X148434636Y-158445200D02*
X148577493Y-158492819D01*
X148577493Y-158492819D02*
X148672731Y-158492819D01*
X148672731Y-158492819D02*
X148815588Y-158445200D01*
X148815588Y-158445200D02*
X148863207Y-158397580D01*
X148863207Y-158397580D02*
X148863207Y-158064247D01*
X148863207Y-158064247D02*
X148672731Y-158064247D01*
X149291779Y-158492819D02*
X149291779Y-157492819D01*
X149291779Y-157492819D02*
X149863207Y-158492819D01*
X149863207Y-158492819D02*
X149863207Y-157492819D01*
X150339398Y-158492819D02*
X150339398Y-157492819D01*
X150339398Y-157492819D02*
X150577493Y-157492819D01*
X150577493Y-157492819D02*
X150720350Y-157540438D01*
X150720350Y-157540438D02*
X150815588Y-157635676D01*
X150815588Y-157635676D02*
X150863207Y-157730914D01*
X150863207Y-157730914D02*
X150910826Y-157921390D01*
X150910826Y-157921390D02*
X150910826Y-158064247D01*
X150910826Y-158064247D02*
X150863207Y-158254723D01*
X150863207Y-158254723D02*
X150815588Y-158349961D01*
X150815588Y-158349961D02*
X150720350Y-158445200D01*
X150720350Y-158445200D02*
X150577493Y-158492819D01*
X150577493Y-158492819D02*
X150339398Y-158492819D01*
X140220819Y-157810030D02*
X140220819Y-158286220D01*
X140220819Y-158286220D02*
X140697009Y-158333839D01*
X140697009Y-158333839D02*
X140649390Y-158286220D01*
X140649390Y-158286220D02*
X140601771Y-158190982D01*
X140601771Y-158190982D02*
X140601771Y-157952887D01*
X140601771Y-157952887D02*
X140649390Y-157857649D01*
X140649390Y-157857649D02*
X140697009Y-157810030D01*
X140697009Y-157810030D02*
X140792247Y-157762411D01*
X140792247Y-157762411D02*
X141030342Y-157762411D01*
X141030342Y-157762411D02*
X141125580Y-157810030D01*
X141125580Y-157810030D02*
X141173200Y-157857649D01*
X141173200Y-157857649D02*
X141220819Y-157952887D01*
X141220819Y-157952887D02*
X141220819Y-158190982D01*
X141220819Y-158190982D02*
X141173200Y-158286220D01*
X141173200Y-158286220D02*
X141125580Y-158333839D01*
X140220819Y-157476696D02*
X141220819Y-157143363D01*
X141220819Y-157143363D02*
X140220819Y-156810030D01*
X144688160Y-158445200D02*
X144831017Y-158492819D01*
X144831017Y-158492819D02*
X145069112Y-158492819D01*
X145069112Y-158492819D02*
X145164350Y-158445200D01*
X145164350Y-158445200D02*
X145211969Y-158397580D01*
X145211969Y-158397580D02*
X145259588Y-158302342D01*
X145259588Y-158302342D02*
X145259588Y-158207104D01*
X145259588Y-158207104D02*
X145211969Y-158111866D01*
X145211969Y-158111866D02*
X145164350Y-158064247D01*
X145164350Y-158064247D02*
X145069112Y-158016628D01*
X145069112Y-158016628D02*
X144878636Y-157969009D01*
X144878636Y-157969009D02*
X144783398Y-157921390D01*
X144783398Y-157921390D02*
X144735779Y-157873771D01*
X144735779Y-157873771D02*
X144688160Y-157778533D01*
X144688160Y-157778533D02*
X144688160Y-157683295D01*
X144688160Y-157683295D02*
X144735779Y-157588057D01*
X144735779Y-157588057D02*
X144783398Y-157540438D01*
X144783398Y-157540438D02*
X144878636Y-157492819D01*
X144878636Y-157492819D02*
X145116731Y-157492819D01*
X145116731Y-157492819D02*
X145259588Y-157540438D01*
X146259588Y-158397580D02*
X146211969Y-158445200D01*
X146211969Y-158445200D02*
X146069112Y-158492819D01*
X146069112Y-158492819D02*
X145973874Y-158492819D01*
X145973874Y-158492819D02*
X145831017Y-158445200D01*
X145831017Y-158445200D02*
X145735779Y-158349961D01*
X145735779Y-158349961D02*
X145688160Y-158254723D01*
X145688160Y-158254723D02*
X145640541Y-158064247D01*
X145640541Y-158064247D02*
X145640541Y-157921390D01*
X145640541Y-157921390D02*
X145688160Y-157730914D01*
X145688160Y-157730914D02*
X145735779Y-157635676D01*
X145735779Y-157635676D02*
X145831017Y-157540438D01*
X145831017Y-157540438D02*
X145973874Y-157492819D01*
X145973874Y-157492819D02*
X146069112Y-157492819D01*
X146069112Y-157492819D02*
X146211969Y-157540438D01*
X146211969Y-157540438D02*
X146259588Y-157588057D01*
X147164350Y-158492819D02*
X146688160Y-158492819D01*
X146688160Y-158492819D02*
X146688160Y-157492819D01*
X143713200Y-158333839D02*
X143760819Y-158190982D01*
X143760819Y-158190982D02*
X143760819Y-157952887D01*
X143760819Y-157952887D02*
X143713200Y-157857649D01*
X143713200Y-157857649D02*
X143665580Y-157810030D01*
X143665580Y-157810030D02*
X143570342Y-157762411D01*
X143570342Y-157762411D02*
X143475104Y-157762411D01*
X143475104Y-157762411D02*
X143379866Y-157810030D01*
X143379866Y-157810030D02*
X143332247Y-157857649D01*
X143332247Y-157857649D02*
X143284628Y-157952887D01*
X143284628Y-157952887D02*
X143237009Y-158143363D01*
X143237009Y-158143363D02*
X143189390Y-158238601D01*
X143189390Y-158238601D02*
X143141771Y-158286220D01*
X143141771Y-158286220D02*
X143046533Y-158333839D01*
X143046533Y-158333839D02*
X142951295Y-158333839D01*
X142951295Y-158333839D02*
X142856057Y-158286220D01*
X142856057Y-158286220D02*
X142808438Y-158238601D01*
X142808438Y-158238601D02*
X142760819Y-158143363D01*
X142760819Y-158143363D02*
X142760819Y-157905268D01*
X142760819Y-157905268D02*
X142808438Y-157762411D01*
X143760819Y-157333839D02*
X142760819Y-157333839D01*
X142760819Y-157333839D02*
X142760819Y-157095744D01*
X142760819Y-157095744D02*
X142808438Y-156952887D01*
X142808438Y-156952887D02*
X142903676Y-156857649D01*
X142903676Y-156857649D02*
X142998914Y-156810030D01*
X142998914Y-156810030D02*
X143189390Y-156762411D01*
X143189390Y-156762411D02*
X143332247Y-156762411D01*
X143332247Y-156762411D02*
X143522723Y-156810030D01*
X143522723Y-156810030D02*
X143617961Y-156857649D01*
X143617961Y-156857649D02*
X143713200Y-156952887D01*
X143713200Y-156952887D02*
X143760819Y-157095744D01*
X143760819Y-157095744D02*
X143760819Y-157333839D01*
X143475104Y-156381458D02*
X143475104Y-155905268D01*
X143760819Y-156476696D02*
X142760819Y-156143363D01*
X142760819Y-156143363D02*
X143760819Y-155810030D01*
X135194922Y-113042819D02*
X135528255Y-114042819D01*
X135528255Y-114042819D02*
X135861588Y-113042819D01*
X136194922Y-113376152D02*
X136194922Y-114376152D01*
X136194922Y-113423771D02*
X136290160Y-113376152D01*
X136290160Y-113376152D02*
X136480636Y-113376152D01*
X136480636Y-113376152D02*
X136575874Y-113423771D01*
X136575874Y-113423771D02*
X136623493Y-113471390D01*
X136623493Y-113471390D02*
X136671112Y-113566628D01*
X136671112Y-113566628D02*
X136671112Y-113852342D01*
X136671112Y-113852342D02*
X136623493Y-113947580D01*
X136623493Y-113947580D02*
X136575874Y-113995200D01*
X136575874Y-113995200D02*
X136480636Y-114042819D01*
X136480636Y-114042819D02*
X136290160Y-114042819D01*
X136290160Y-114042819D02*
X136194922Y-113995200D01*
X136861589Y-114138057D02*
X137623493Y-114138057D01*
X138337779Y-113042819D02*
X137861589Y-113042819D01*
X137861589Y-113042819D02*
X137813970Y-113519009D01*
X137813970Y-113519009D02*
X137861589Y-113471390D01*
X137861589Y-113471390D02*
X137956827Y-113423771D01*
X137956827Y-113423771D02*
X138194922Y-113423771D01*
X138194922Y-113423771D02*
X138290160Y-113471390D01*
X138290160Y-113471390D02*
X138337779Y-113519009D01*
X138337779Y-113519009D02*
X138385398Y-113614247D01*
X138385398Y-113614247D02*
X138385398Y-113852342D01*
X138385398Y-113852342D02*
X138337779Y-113947580D01*
X138337779Y-113947580D02*
X138290160Y-113995200D01*
X138290160Y-113995200D02*
X138194922Y-114042819D01*
X138194922Y-114042819D02*
X137956827Y-114042819D01*
X137956827Y-114042819D02*
X137861589Y-113995200D01*
X137861589Y-113995200D02*
X137813970Y-113947580D01*
X138671113Y-113042819D02*
X139004446Y-114042819D01*
X139004446Y-114042819D02*
X139337779Y-113042819D01*
X134988541Y-110883819D02*
X135226636Y-111883819D01*
X135226636Y-111883819D02*
X135417112Y-111169533D01*
X135417112Y-111169533D02*
X135607588Y-111883819D01*
X135607588Y-111883819D02*
X135845684Y-110883819D01*
X136226636Y-111217152D02*
X136226636Y-112217152D01*
X136226636Y-111264771D02*
X136321874Y-111217152D01*
X136321874Y-111217152D02*
X136512350Y-111217152D01*
X136512350Y-111217152D02*
X136607588Y-111264771D01*
X136607588Y-111264771D02*
X136655207Y-111312390D01*
X136655207Y-111312390D02*
X136702826Y-111407628D01*
X136702826Y-111407628D02*
X136702826Y-111693342D01*
X136702826Y-111693342D02*
X136655207Y-111788580D01*
X136655207Y-111788580D02*
X136607588Y-111836200D01*
X136607588Y-111836200D02*
X136512350Y-111883819D01*
X136512350Y-111883819D02*
X136321874Y-111883819D01*
X136321874Y-111883819D02*
X136226636Y-111836200D01*
X136893303Y-111979057D02*
X137655207Y-111979057D01*
X138369493Y-110883819D02*
X137893303Y-110883819D01*
X137893303Y-110883819D02*
X137845684Y-111360009D01*
X137845684Y-111360009D02*
X137893303Y-111312390D01*
X137893303Y-111312390D02*
X137988541Y-111264771D01*
X137988541Y-111264771D02*
X138226636Y-111264771D01*
X138226636Y-111264771D02*
X138321874Y-111312390D01*
X138321874Y-111312390D02*
X138369493Y-111360009D01*
X138369493Y-111360009D02*
X138417112Y-111455247D01*
X138417112Y-111455247D02*
X138417112Y-111693342D01*
X138417112Y-111693342D02*
X138369493Y-111788580D01*
X138369493Y-111788580D02*
X138321874Y-111836200D01*
X138321874Y-111836200D02*
X138226636Y-111883819D01*
X138226636Y-111883819D02*
X137988541Y-111883819D01*
X137988541Y-111883819D02*
X137893303Y-111836200D01*
X137893303Y-111836200D02*
X137845684Y-111788580D01*
X138702827Y-110883819D02*
X139036160Y-111883819D01*
X139036160Y-111883819D02*
X139369493Y-110883819D01*
X134988541Y-108978819D02*
X135226636Y-109978819D01*
X135226636Y-109978819D02*
X135417112Y-109264533D01*
X135417112Y-109264533D02*
X135607588Y-109978819D01*
X135607588Y-109978819D02*
X135845684Y-108978819D01*
X136226636Y-109312152D02*
X136226636Y-109978819D01*
X136226636Y-109407390D02*
X136274255Y-109359771D01*
X136274255Y-109359771D02*
X136369493Y-109312152D01*
X136369493Y-109312152D02*
X136512350Y-109312152D01*
X136512350Y-109312152D02*
X136607588Y-109359771D01*
X136607588Y-109359771D02*
X136655207Y-109455009D01*
X136655207Y-109455009D02*
X136655207Y-109978819D01*
X136893303Y-110074057D02*
X137655207Y-110074057D01*
X138369493Y-108978819D02*
X137893303Y-108978819D01*
X137893303Y-108978819D02*
X137845684Y-109455009D01*
X137845684Y-109455009D02*
X137893303Y-109407390D01*
X137893303Y-109407390D02*
X137988541Y-109359771D01*
X137988541Y-109359771D02*
X138226636Y-109359771D01*
X138226636Y-109359771D02*
X138321874Y-109407390D01*
X138321874Y-109407390D02*
X138369493Y-109455009D01*
X138369493Y-109455009D02*
X138417112Y-109550247D01*
X138417112Y-109550247D02*
X138417112Y-109788342D01*
X138417112Y-109788342D02*
X138369493Y-109883580D01*
X138369493Y-109883580D02*
X138321874Y-109931200D01*
X138321874Y-109931200D02*
X138226636Y-109978819D01*
X138226636Y-109978819D02*
X137988541Y-109978819D01*
X137988541Y-109978819D02*
X137893303Y-109931200D01*
X137893303Y-109931200D02*
X137845684Y-109883580D01*
X138702827Y-108978819D02*
X139036160Y-109978819D01*
X139036160Y-109978819D02*
X139369493Y-108978819D01*
X134956779Y-99199819D02*
X134956779Y-100009342D01*
X134956779Y-100009342D02*
X135004398Y-100104580D01*
X135004398Y-100104580D02*
X135052017Y-100152200D01*
X135052017Y-100152200D02*
X135147255Y-100199819D01*
X135147255Y-100199819D02*
X135337731Y-100199819D01*
X135337731Y-100199819D02*
X135432969Y-100152200D01*
X135432969Y-100152200D02*
X135480588Y-100104580D01*
X135480588Y-100104580D02*
X135528207Y-100009342D01*
X135528207Y-100009342D02*
X135528207Y-99199819D01*
X136004398Y-99533152D02*
X136004398Y-100533152D01*
X136004398Y-99580771D02*
X136099636Y-99533152D01*
X136099636Y-99533152D02*
X136290112Y-99533152D01*
X136290112Y-99533152D02*
X136385350Y-99580771D01*
X136385350Y-99580771D02*
X136432969Y-99628390D01*
X136432969Y-99628390D02*
X136480588Y-99723628D01*
X136480588Y-99723628D02*
X136480588Y-100009342D01*
X136480588Y-100009342D02*
X136432969Y-100104580D01*
X136432969Y-100104580D02*
X136385350Y-100152200D01*
X136385350Y-100152200D02*
X136290112Y-100199819D01*
X136290112Y-100199819D02*
X136099636Y-100199819D01*
X136099636Y-100199819D02*
X136004398Y-100152200D01*
X136671065Y-100295057D02*
X137432969Y-100295057D01*
X138147255Y-99199819D02*
X137671065Y-99199819D01*
X137671065Y-99199819D02*
X137623446Y-99676009D01*
X137623446Y-99676009D02*
X137671065Y-99628390D01*
X137671065Y-99628390D02*
X137766303Y-99580771D01*
X137766303Y-99580771D02*
X138004398Y-99580771D01*
X138004398Y-99580771D02*
X138099636Y-99628390D01*
X138099636Y-99628390D02*
X138147255Y-99676009D01*
X138147255Y-99676009D02*
X138194874Y-99771247D01*
X138194874Y-99771247D02*
X138194874Y-100009342D01*
X138194874Y-100009342D02*
X138147255Y-100104580D01*
X138147255Y-100104580D02*
X138099636Y-100152200D01*
X138099636Y-100152200D02*
X138004398Y-100199819D01*
X138004398Y-100199819D02*
X137766303Y-100199819D01*
X137766303Y-100199819D02*
X137671065Y-100152200D01*
X137671065Y-100152200D02*
X137623446Y-100104580D01*
X138480589Y-99199819D02*
X138813922Y-100199819D01*
X138813922Y-100199819D02*
X139147255Y-99199819D01*
X134956779Y-96786819D02*
X134956779Y-97596342D01*
X134956779Y-97596342D02*
X135004398Y-97691580D01*
X135004398Y-97691580D02*
X135052017Y-97739200D01*
X135052017Y-97739200D02*
X135147255Y-97786819D01*
X135147255Y-97786819D02*
X135337731Y-97786819D01*
X135337731Y-97786819D02*
X135432969Y-97739200D01*
X135432969Y-97739200D02*
X135480588Y-97691580D01*
X135480588Y-97691580D02*
X135528207Y-97596342D01*
X135528207Y-97596342D02*
X135528207Y-96786819D01*
X136004398Y-97120152D02*
X136004398Y-97786819D01*
X136004398Y-97215390D02*
X136052017Y-97167771D01*
X136052017Y-97167771D02*
X136147255Y-97120152D01*
X136147255Y-97120152D02*
X136290112Y-97120152D01*
X136290112Y-97120152D02*
X136385350Y-97167771D01*
X136385350Y-97167771D02*
X136432969Y-97263009D01*
X136432969Y-97263009D02*
X136432969Y-97786819D01*
X136671065Y-97882057D02*
X137432969Y-97882057D01*
X138147255Y-96786819D02*
X137671065Y-96786819D01*
X137671065Y-96786819D02*
X137623446Y-97263009D01*
X137623446Y-97263009D02*
X137671065Y-97215390D01*
X137671065Y-97215390D02*
X137766303Y-97167771D01*
X137766303Y-97167771D02*
X138004398Y-97167771D01*
X138004398Y-97167771D02*
X138099636Y-97215390D01*
X138099636Y-97215390D02*
X138147255Y-97263009D01*
X138147255Y-97263009D02*
X138194874Y-97358247D01*
X138194874Y-97358247D02*
X138194874Y-97596342D01*
X138194874Y-97596342D02*
X138147255Y-97691580D01*
X138147255Y-97691580D02*
X138099636Y-97739200D01*
X138099636Y-97739200D02*
X138004398Y-97786819D01*
X138004398Y-97786819D02*
X137766303Y-97786819D01*
X137766303Y-97786819D02*
X137671065Y-97739200D01*
X137671065Y-97739200D02*
X137623446Y-97691580D01*
X138480589Y-96786819D02*
X138813922Y-97786819D01*
X138813922Y-97786819D02*
X139147255Y-96786819D01*
X147656779Y-96389819D02*
X147656779Y-95389819D01*
X147656779Y-95866009D02*
X148228207Y-95866009D01*
X148228207Y-96389819D02*
X148228207Y-95389819D01*
X148561541Y-95389819D02*
X148894874Y-96389819D01*
X148894874Y-96389819D02*
X149228207Y-95389819D01*
X149323446Y-96485057D02*
X150085350Y-96485057D01*
X150799636Y-95389819D02*
X150323446Y-95389819D01*
X150323446Y-95389819D02*
X150275827Y-95866009D01*
X150275827Y-95866009D02*
X150323446Y-95818390D01*
X150323446Y-95818390D02*
X150418684Y-95770771D01*
X150418684Y-95770771D02*
X150656779Y-95770771D01*
X150656779Y-95770771D02*
X150752017Y-95818390D01*
X150752017Y-95818390D02*
X150799636Y-95866009D01*
X150799636Y-95866009D02*
X150847255Y-95961247D01*
X150847255Y-95961247D02*
X150847255Y-96199342D01*
X150847255Y-96199342D02*
X150799636Y-96294580D01*
X150799636Y-96294580D02*
X150752017Y-96342200D01*
X150752017Y-96342200D02*
X150656779Y-96389819D01*
X150656779Y-96389819D02*
X150418684Y-96389819D01*
X150418684Y-96389819D02*
X150323446Y-96342200D01*
X150323446Y-96342200D02*
X150275827Y-96294580D01*
X151132970Y-95389819D02*
X151466303Y-96389819D01*
X151466303Y-96389819D02*
X151799636Y-95389819D01*
X147656779Y-88769819D02*
X147656779Y-87769819D01*
X147656779Y-88246009D02*
X148228207Y-88246009D01*
X148228207Y-88769819D02*
X148228207Y-87769819D01*
X148609160Y-87769819D02*
X148847255Y-88769819D01*
X148847255Y-88769819D02*
X149037731Y-88055533D01*
X149037731Y-88055533D02*
X149228207Y-88769819D01*
X149228207Y-88769819D02*
X149466303Y-87769819D01*
X149609160Y-88865057D02*
X150371064Y-88865057D01*
X151085350Y-87769819D02*
X150609160Y-87769819D01*
X150609160Y-87769819D02*
X150561541Y-88246009D01*
X150561541Y-88246009D02*
X150609160Y-88198390D01*
X150609160Y-88198390D02*
X150704398Y-88150771D01*
X150704398Y-88150771D02*
X150942493Y-88150771D01*
X150942493Y-88150771D02*
X151037731Y-88198390D01*
X151037731Y-88198390D02*
X151085350Y-88246009D01*
X151085350Y-88246009D02*
X151132969Y-88341247D01*
X151132969Y-88341247D02*
X151132969Y-88579342D01*
X151132969Y-88579342D02*
X151085350Y-88674580D01*
X151085350Y-88674580D02*
X151037731Y-88722200D01*
X151037731Y-88722200D02*
X150942493Y-88769819D01*
X150942493Y-88769819D02*
X150704398Y-88769819D01*
X150704398Y-88769819D02*
X150609160Y-88722200D01*
X150609160Y-88722200D02*
X150561541Y-88674580D01*
X151418684Y-87769819D02*
X151752017Y-88769819D01*
X151752017Y-88769819D02*
X152085350Y-87769819D01*
X147656779Y-92579819D02*
X147656779Y-91579819D01*
X147656779Y-92056009D02*
X148228207Y-92056009D01*
X148228207Y-92579819D02*
X148228207Y-91579819D01*
X148704398Y-91579819D02*
X148704398Y-92389342D01*
X148704398Y-92389342D02*
X148752017Y-92484580D01*
X148752017Y-92484580D02*
X148799636Y-92532200D01*
X148799636Y-92532200D02*
X148894874Y-92579819D01*
X148894874Y-92579819D02*
X149085350Y-92579819D01*
X149085350Y-92579819D02*
X149180588Y-92532200D01*
X149180588Y-92532200D02*
X149228207Y-92484580D01*
X149228207Y-92484580D02*
X149275826Y-92389342D01*
X149275826Y-92389342D02*
X149275826Y-91579819D01*
X149513922Y-92675057D02*
X150275826Y-92675057D01*
X150990112Y-91579819D02*
X150513922Y-91579819D01*
X150513922Y-91579819D02*
X150466303Y-92056009D01*
X150466303Y-92056009D02*
X150513922Y-92008390D01*
X150513922Y-92008390D02*
X150609160Y-91960771D01*
X150609160Y-91960771D02*
X150847255Y-91960771D01*
X150847255Y-91960771D02*
X150942493Y-92008390D01*
X150942493Y-92008390D02*
X150990112Y-92056009D01*
X150990112Y-92056009D02*
X151037731Y-92151247D01*
X151037731Y-92151247D02*
X151037731Y-92389342D01*
X151037731Y-92389342D02*
X150990112Y-92484580D01*
X150990112Y-92484580D02*
X150942493Y-92532200D01*
X150942493Y-92532200D02*
X150847255Y-92579819D01*
X150847255Y-92579819D02*
X150609160Y-92579819D01*
X150609160Y-92579819D02*
X150513922Y-92532200D01*
X150513922Y-92532200D02*
X150466303Y-92484580D01*
X151323446Y-91579819D02*
X151656779Y-92579819D01*
X151656779Y-92579819D02*
X151990112Y-91579819D01*
X134632819Y-116979458D02*
X134632819Y-116360411D01*
X134632819Y-116360411D02*
X135013771Y-116693744D01*
X135013771Y-116693744D02*
X135013771Y-116550887D01*
X135013771Y-116550887D02*
X135061390Y-116455649D01*
X135061390Y-116455649D02*
X135109009Y-116408030D01*
X135109009Y-116408030D02*
X135204247Y-116360411D01*
X135204247Y-116360411D02*
X135442342Y-116360411D01*
X135442342Y-116360411D02*
X135537580Y-116408030D01*
X135537580Y-116408030D02*
X135585200Y-116455649D01*
X135585200Y-116455649D02*
X135632819Y-116550887D01*
X135632819Y-116550887D02*
X135632819Y-116836601D01*
X135632819Y-116836601D02*
X135585200Y-116931839D01*
X135585200Y-116931839D02*
X135537580Y-116979458D01*
X134632819Y-116074696D02*
X135632819Y-115741363D01*
X135632819Y-115741363D02*
X134632819Y-115408030D01*
X134632819Y-115169934D02*
X134632819Y-114550887D01*
X134632819Y-114550887D02*
X135013771Y-114884220D01*
X135013771Y-114884220D02*
X135013771Y-114741363D01*
X135013771Y-114741363D02*
X135061390Y-114646125D01*
X135061390Y-114646125D02*
X135109009Y-114598506D01*
X135109009Y-114598506D02*
X135204247Y-114550887D01*
X135204247Y-114550887D02*
X135442342Y-114550887D01*
X135442342Y-114550887D02*
X135537580Y-114598506D01*
X135537580Y-114598506D02*
X135585200Y-114646125D01*
X135585200Y-114646125D02*
X135632819Y-114741363D01*
X135632819Y-114741363D02*
X135632819Y-115027077D01*
X135632819Y-115027077D02*
X135585200Y-115122315D01*
X135585200Y-115122315D02*
X135537580Y-115169934D01*
X134632819Y-107645030D02*
X134632819Y-108121220D01*
X134632819Y-108121220D02*
X135109009Y-108168839D01*
X135109009Y-108168839D02*
X135061390Y-108121220D01*
X135061390Y-108121220D02*
X135013771Y-108025982D01*
X135013771Y-108025982D02*
X135013771Y-107787887D01*
X135013771Y-107787887D02*
X135061390Y-107692649D01*
X135061390Y-107692649D02*
X135109009Y-107645030D01*
X135109009Y-107645030D02*
X135204247Y-107597411D01*
X135204247Y-107597411D02*
X135442342Y-107597411D01*
X135442342Y-107597411D02*
X135537580Y-107645030D01*
X135537580Y-107645030D02*
X135585200Y-107692649D01*
X135585200Y-107692649D02*
X135632819Y-107787887D01*
X135632819Y-107787887D02*
X135632819Y-108025982D01*
X135632819Y-108025982D02*
X135585200Y-108121220D01*
X135585200Y-108121220D02*
X135537580Y-108168839D01*
X134632819Y-107311696D02*
X135632819Y-106978363D01*
X135632819Y-106978363D02*
X134632819Y-106645030D01*
X128643019Y-128108230D02*
X128643019Y-128584420D01*
X128643019Y-128584420D02*
X129119209Y-128632039D01*
X129119209Y-128632039D02*
X129071590Y-128584420D01*
X129071590Y-128584420D02*
X129023971Y-128489182D01*
X129023971Y-128489182D02*
X129023971Y-128251087D01*
X129023971Y-128251087D02*
X129071590Y-128155849D01*
X129071590Y-128155849D02*
X129119209Y-128108230D01*
X129119209Y-128108230D02*
X129214447Y-128060611D01*
X129214447Y-128060611D02*
X129452542Y-128060611D01*
X129452542Y-128060611D02*
X129547780Y-128108230D01*
X129547780Y-128108230D02*
X129595400Y-128155849D01*
X129595400Y-128155849D02*
X129643019Y-128251087D01*
X129643019Y-128251087D02*
X129643019Y-128489182D01*
X129643019Y-128489182D02*
X129595400Y-128584420D01*
X129595400Y-128584420D02*
X129547780Y-128632039D01*
X128643019Y-127774896D02*
X129643019Y-127441563D01*
X129643019Y-127441563D02*
X128643019Y-127108230D01*
X128663819Y-141998458D02*
X128663819Y-141379411D01*
X128663819Y-141379411D02*
X129044771Y-141712744D01*
X129044771Y-141712744D02*
X129044771Y-141569887D01*
X129044771Y-141569887D02*
X129092390Y-141474649D01*
X129092390Y-141474649D02*
X129140009Y-141427030D01*
X129140009Y-141427030D02*
X129235247Y-141379411D01*
X129235247Y-141379411D02*
X129473342Y-141379411D01*
X129473342Y-141379411D02*
X129568580Y-141427030D01*
X129568580Y-141427030D02*
X129616200Y-141474649D01*
X129616200Y-141474649D02*
X129663819Y-141569887D01*
X129663819Y-141569887D02*
X129663819Y-141855601D01*
X129663819Y-141855601D02*
X129616200Y-141950839D01*
X129616200Y-141950839D02*
X129568580Y-141998458D01*
X128663819Y-141093696D02*
X129663819Y-140760363D01*
X129663819Y-140760363D02*
X128663819Y-140427030D01*
X128663819Y-140188934D02*
X128663819Y-139569887D01*
X128663819Y-139569887D02*
X129044771Y-139903220D01*
X129044771Y-139903220D02*
X129044771Y-139760363D01*
X129044771Y-139760363D02*
X129092390Y-139665125D01*
X129092390Y-139665125D02*
X129140009Y-139617506D01*
X129140009Y-139617506D02*
X129235247Y-139569887D01*
X129235247Y-139569887D02*
X129473342Y-139569887D01*
X129473342Y-139569887D02*
X129568580Y-139617506D01*
X129568580Y-139617506D02*
X129616200Y-139665125D01*
X129616200Y-139665125D02*
X129663819Y-139760363D01*
X129663819Y-139760363D02*
X129663819Y-140046077D01*
X129663819Y-140046077D02*
X129616200Y-140141315D01*
X129616200Y-140141315D02*
X129568580Y-140188934D01*
X119376819Y-145713220D02*
X118376819Y-145713220D01*
X118376819Y-145713220D02*
X118376819Y-145475125D01*
X118376819Y-145475125D02*
X118424438Y-145332268D01*
X118424438Y-145332268D02*
X118519676Y-145237030D01*
X118519676Y-145237030D02*
X118614914Y-145189411D01*
X118614914Y-145189411D02*
X118805390Y-145141792D01*
X118805390Y-145141792D02*
X118948247Y-145141792D01*
X118948247Y-145141792D02*
X119138723Y-145189411D01*
X119138723Y-145189411D02*
X119233961Y-145237030D01*
X119233961Y-145237030D02*
X119329200Y-145332268D01*
X119329200Y-145332268D02*
X119376819Y-145475125D01*
X119376819Y-145475125D02*
X119376819Y-145713220D01*
X119376819Y-144713220D02*
X118710152Y-144713220D01*
X118376819Y-144713220D02*
X118424438Y-144760839D01*
X118424438Y-144760839D02*
X118472057Y-144713220D01*
X118472057Y-144713220D02*
X118424438Y-144665601D01*
X118424438Y-144665601D02*
X118376819Y-144713220D01*
X118376819Y-144713220D02*
X118472057Y-144713220D01*
X119376819Y-144237030D02*
X118710152Y-144237030D01*
X118900628Y-144237030D02*
X118805390Y-144189411D01*
X118805390Y-144189411D02*
X118757771Y-144141792D01*
X118757771Y-144141792D02*
X118710152Y-144046554D01*
X118710152Y-144046554D02*
X118710152Y-143951316D01*
X119329200Y-143237030D02*
X119376819Y-143332268D01*
X119376819Y-143332268D02*
X119376819Y-143522744D01*
X119376819Y-143522744D02*
X119329200Y-143617982D01*
X119329200Y-143617982D02*
X119233961Y-143665601D01*
X119233961Y-143665601D02*
X118853009Y-143665601D01*
X118853009Y-143665601D02*
X118757771Y-143617982D01*
X118757771Y-143617982D02*
X118710152Y-143522744D01*
X118710152Y-143522744D02*
X118710152Y-143332268D01*
X118710152Y-143332268D02*
X118757771Y-143237030D01*
X118757771Y-143237030D02*
X118853009Y-143189411D01*
X118853009Y-143189411D02*
X118948247Y-143189411D01*
X118948247Y-143189411D02*
X119043485Y-143665601D01*
X119329200Y-142332268D02*
X119376819Y-142427506D01*
X119376819Y-142427506D02*
X119376819Y-142617982D01*
X119376819Y-142617982D02*
X119329200Y-142713220D01*
X119329200Y-142713220D02*
X119281580Y-142760839D01*
X119281580Y-142760839D02*
X119186342Y-142808458D01*
X119186342Y-142808458D02*
X118900628Y-142808458D01*
X118900628Y-142808458D02*
X118805390Y-142760839D01*
X118805390Y-142760839D02*
X118757771Y-142713220D01*
X118757771Y-142713220D02*
X118710152Y-142617982D01*
X118710152Y-142617982D02*
X118710152Y-142427506D01*
X118710152Y-142427506D02*
X118757771Y-142332268D01*
X118710152Y-142046553D02*
X118710152Y-141665601D01*
X118376819Y-141903696D02*
X119233961Y-141903696D01*
X119233961Y-141903696D02*
X119329200Y-141856077D01*
X119329200Y-141856077D02*
X119376819Y-141760839D01*
X119376819Y-141760839D02*
X119376819Y-141665601D01*
X119376819Y-141332267D02*
X118710152Y-141332267D01*
X118376819Y-141332267D02*
X118424438Y-141379886D01*
X118424438Y-141379886D02*
X118472057Y-141332267D01*
X118472057Y-141332267D02*
X118424438Y-141284648D01*
X118424438Y-141284648D02*
X118376819Y-141332267D01*
X118376819Y-141332267D02*
X118472057Y-141332267D01*
X119376819Y-140713220D02*
X119329200Y-140808458D01*
X119329200Y-140808458D02*
X119281580Y-140856077D01*
X119281580Y-140856077D02*
X119186342Y-140903696D01*
X119186342Y-140903696D02*
X118900628Y-140903696D01*
X118900628Y-140903696D02*
X118805390Y-140856077D01*
X118805390Y-140856077D02*
X118757771Y-140808458D01*
X118757771Y-140808458D02*
X118710152Y-140713220D01*
X118710152Y-140713220D02*
X118710152Y-140570363D01*
X118710152Y-140570363D02*
X118757771Y-140475125D01*
X118757771Y-140475125D02*
X118805390Y-140427506D01*
X118805390Y-140427506D02*
X118900628Y-140379887D01*
X118900628Y-140379887D02*
X119186342Y-140379887D01*
X119186342Y-140379887D02*
X119281580Y-140427506D01*
X119281580Y-140427506D02*
X119329200Y-140475125D01*
X119329200Y-140475125D02*
X119376819Y-140570363D01*
X119376819Y-140570363D02*
X119376819Y-140713220D01*
X118710152Y-139951315D02*
X119376819Y-139951315D01*
X118805390Y-139951315D02*
X118757771Y-139903696D01*
X118757771Y-139903696D02*
X118710152Y-139808458D01*
X118710152Y-139808458D02*
X118710152Y-139665601D01*
X118710152Y-139665601D02*
X118757771Y-139570363D01*
X118757771Y-139570363D02*
X118853009Y-139522744D01*
X118853009Y-139522744D02*
X119376819Y-139522744D01*
X122043819Y-141141220D02*
X121043819Y-141141220D01*
X121520009Y-141141220D02*
X121520009Y-140569792D01*
X122043819Y-140569792D02*
X121043819Y-140569792D01*
X121043819Y-140236458D02*
X122043819Y-139903125D01*
X122043819Y-139903125D02*
X121043819Y-139569792D01*
X127123819Y-141141220D02*
X126123819Y-141141220D01*
X126600009Y-141141220D02*
X126600009Y-140569792D01*
X127123819Y-140569792D02*
X126123819Y-140569792D01*
X126123819Y-140093601D02*
X126933342Y-140093601D01*
X126933342Y-140093601D02*
X127028580Y-140045982D01*
X127028580Y-140045982D02*
X127076200Y-139998363D01*
X127076200Y-139998363D02*
X127123819Y-139903125D01*
X127123819Y-139903125D02*
X127123819Y-139712649D01*
X127123819Y-139712649D02*
X127076200Y-139617411D01*
X127076200Y-139617411D02*
X127028580Y-139569792D01*
X127028580Y-139569792D02*
X126933342Y-139522173D01*
X126933342Y-139522173D02*
X126123819Y-139522173D01*
X124685419Y-141242820D02*
X123685419Y-141242820D01*
X124161609Y-141242820D02*
X124161609Y-140671392D01*
X124685419Y-140671392D02*
X123685419Y-140671392D01*
X123685419Y-140290439D02*
X124685419Y-140052344D01*
X124685419Y-140052344D02*
X123971133Y-139861868D01*
X123971133Y-139861868D02*
X124685419Y-139671392D01*
X124685419Y-139671392D02*
X123685419Y-139433297D01*
X117106819Y-118043077D02*
X118106819Y-117709744D01*
X118106819Y-117709744D02*
X117106819Y-117376411D01*
X117440152Y-117043077D02*
X118106819Y-117043077D01*
X117535390Y-117043077D02*
X117487771Y-116995458D01*
X117487771Y-116995458D02*
X117440152Y-116900220D01*
X117440152Y-116900220D02*
X117440152Y-116757363D01*
X117440152Y-116757363D02*
X117487771Y-116662125D01*
X117487771Y-116662125D02*
X117583009Y-116614506D01*
X117583009Y-116614506D02*
X118106819Y-116614506D01*
X119646819Y-118043077D02*
X120646819Y-117709744D01*
X120646819Y-117709744D02*
X119646819Y-117376411D01*
X119980152Y-117043077D02*
X120980152Y-117043077D01*
X120027771Y-117043077D02*
X119980152Y-116947839D01*
X119980152Y-116947839D02*
X119980152Y-116757363D01*
X119980152Y-116757363D02*
X120027771Y-116662125D01*
X120027771Y-116662125D02*
X120075390Y-116614506D01*
X120075390Y-116614506D02*
X120170628Y-116566887D01*
X120170628Y-116566887D02*
X120456342Y-116566887D01*
X120456342Y-116566887D02*
X120551580Y-116614506D01*
X120551580Y-116614506D02*
X120599200Y-116662125D01*
X120599200Y-116662125D02*
X120646819Y-116757363D01*
X120646819Y-116757363D02*
X120646819Y-116947839D01*
X120646819Y-116947839D02*
X120599200Y-117043077D01*
X122186819Y-118249458D02*
X123186819Y-118011363D01*
X123186819Y-118011363D02*
X122472533Y-117820887D01*
X122472533Y-117820887D02*
X123186819Y-117630411D01*
X123186819Y-117630411D02*
X122186819Y-117392316D01*
X122520152Y-117011363D02*
X123520152Y-117011363D01*
X122567771Y-117011363D02*
X122520152Y-116916125D01*
X122520152Y-116916125D02*
X122520152Y-116725649D01*
X122520152Y-116725649D02*
X122567771Y-116630411D01*
X122567771Y-116630411D02*
X122615390Y-116582792D01*
X122615390Y-116582792D02*
X122710628Y-116535173D01*
X122710628Y-116535173D02*
X122996342Y-116535173D01*
X122996342Y-116535173D02*
X123091580Y-116582792D01*
X123091580Y-116582792D02*
X123139200Y-116630411D01*
X123139200Y-116630411D02*
X123186819Y-116725649D01*
X123186819Y-116725649D02*
X123186819Y-116916125D01*
X123186819Y-116916125D02*
X123139200Y-117011363D01*
X124853819Y-118249458D02*
X125853819Y-118011363D01*
X125853819Y-118011363D02*
X125139533Y-117820887D01*
X125139533Y-117820887D02*
X125853819Y-117630411D01*
X125853819Y-117630411D02*
X124853819Y-117392316D01*
X125187152Y-117011363D02*
X125853819Y-117011363D01*
X125282390Y-117011363D02*
X125234771Y-116963744D01*
X125234771Y-116963744D02*
X125187152Y-116868506D01*
X125187152Y-116868506D02*
X125187152Y-116725649D01*
X125187152Y-116725649D02*
X125234771Y-116630411D01*
X125234771Y-116630411D02*
X125330009Y-116582792D01*
X125330009Y-116582792D02*
X125853819Y-116582792D01*
X127266819Y-118154220D02*
X128076342Y-118154220D01*
X128076342Y-118154220D02*
X128171580Y-118106601D01*
X128171580Y-118106601D02*
X128219200Y-118058982D01*
X128219200Y-118058982D02*
X128266819Y-117963744D01*
X128266819Y-117963744D02*
X128266819Y-117773268D01*
X128266819Y-117773268D02*
X128219200Y-117678030D01*
X128219200Y-117678030D02*
X128171580Y-117630411D01*
X128171580Y-117630411D02*
X128076342Y-117582792D01*
X128076342Y-117582792D02*
X127266819Y-117582792D01*
X127600152Y-117106601D02*
X128600152Y-117106601D01*
X127647771Y-117106601D02*
X127600152Y-117011363D01*
X127600152Y-117011363D02*
X127600152Y-116820887D01*
X127600152Y-116820887D02*
X127647771Y-116725649D01*
X127647771Y-116725649D02*
X127695390Y-116678030D01*
X127695390Y-116678030D02*
X127790628Y-116630411D01*
X127790628Y-116630411D02*
X128076342Y-116630411D01*
X128076342Y-116630411D02*
X128171580Y-116678030D01*
X128171580Y-116678030D02*
X128219200Y-116725649D01*
X128219200Y-116725649D02*
X128266819Y-116820887D01*
X128266819Y-116820887D02*
X128266819Y-117011363D01*
X128266819Y-117011363D02*
X128219200Y-117106601D01*
X129806819Y-118154220D02*
X130616342Y-118154220D01*
X130616342Y-118154220D02*
X130711580Y-118106601D01*
X130711580Y-118106601D02*
X130759200Y-118058982D01*
X130759200Y-118058982D02*
X130806819Y-117963744D01*
X130806819Y-117963744D02*
X130806819Y-117773268D01*
X130806819Y-117773268D02*
X130759200Y-117678030D01*
X130759200Y-117678030D02*
X130711580Y-117630411D01*
X130711580Y-117630411D02*
X130616342Y-117582792D01*
X130616342Y-117582792D02*
X129806819Y-117582792D01*
X130140152Y-117106601D02*
X130806819Y-117106601D01*
X130235390Y-117106601D02*
X130187771Y-117058982D01*
X130187771Y-117058982D02*
X130140152Y-116963744D01*
X130140152Y-116963744D02*
X130140152Y-116820887D01*
X130140152Y-116820887D02*
X130187771Y-116725649D01*
X130187771Y-116725649D02*
X130283009Y-116678030D01*
X130283009Y-116678030D02*
X130806819Y-116678030D01*
X93919922Y-91706819D02*
X94253255Y-92706819D01*
X94253255Y-92706819D02*
X94586588Y-91706819D01*
X95348493Y-92706819D02*
X95348493Y-91706819D01*
X95348493Y-92659200D02*
X95253255Y-92706819D01*
X95253255Y-92706819D02*
X95062779Y-92706819D01*
X95062779Y-92706819D02*
X94967541Y-92659200D01*
X94967541Y-92659200D02*
X94919922Y-92611580D01*
X94919922Y-92611580D02*
X94872303Y-92516342D01*
X94872303Y-92516342D02*
X94872303Y-92230628D01*
X94872303Y-92230628D02*
X94919922Y-92135390D01*
X94919922Y-92135390D02*
X94967541Y-92087771D01*
X94967541Y-92087771D02*
X95062779Y-92040152D01*
X95062779Y-92040152D02*
X95253255Y-92040152D01*
X95253255Y-92040152D02*
X95348493Y-92087771D01*
X96253255Y-92659200D02*
X96158017Y-92706819D01*
X96158017Y-92706819D02*
X95967541Y-92706819D01*
X95967541Y-92706819D02*
X95872303Y-92659200D01*
X95872303Y-92659200D02*
X95824684Y-92611580D01*
X95824684Y-92611580D02*
X95777065Y-92516342D01*
X95777065Y-92516342D02*
X95777065Y-92230628D01*
X95777065Y-92230628D02*
X95824684Y-92135390D01*
X95824684Y-92135390D02*
X95872303Y-92087771D01*
X95872303Y-92087771D02*
X95967541Y-92040152D01*
X95967541Y-92040152D02*
X96158017Y-92040152D01*
X96158017Y-92040152D02*
X96253255Y-92087771D01*
X94332636Y-95373819D02*
X94237398Y-95326200D01*
X94237398Y-95326200D02*
X94189779Y-95230961D01*
X94189779Y-95230961D02*
X94189779Y-94373819D01*
X94618351Y-94707152D02*
X94808827Y-95373819D01*
X94808827Y-95373819D02*
X94999303Y-94897628D01*
X94999303Y-94897628D02*
X95189779Y-95373819D01*
X95189779Y-95373819D02*
X95380255Y-94707152D01*
X96285017Y-95373819D02*
X95713589Y-95373819D01*
X95999303Y-95373819D02*
X95999303Y-94373819D01*
X95999303Y-94373819D02*
X95904065Y-94516676D01*
X95904065Y-94516676D02*
X95808827Y-94611914D01*
X95808827Y-94611914D02*
X95713589Y-94659533D01*
X94332636Y-97786819D02*
X94237398Y-97739200D01*
X94237398Y-97739200D02*
X94189779Y-97643961D01*
X94189779Y-97643961D02*
X94189779Y-96786819D01*
X95142160Y-97120152D02*
X95142160Y-97786819D01*
X94713589Y-97120152D02*
X94713589Y-97643961D01*
X94713589Y-97643961D02*
X94761208Y-97739200D01*
X94761208Y-97739200D02*
X94856446Y-97786819D01*
X94856446Y-97786819D02*
X94999303Y-97786819D01*
X94999303Y-97786819D02*
X95094541Y-97739200D01*
X95094541Y-97739200D02*
X95142160Y-97691580D01*
X96142160Y-97786819D02*
X95570732Y-97786819D01*
X95856446Y-97786819D02*
X95856446Y-96786819D01*
X95856446Y-96786819D02*
X95761208Y-96929676D01*
X95761208Y-96929676D02*
X95665970Y-97024914D01*
X95665970Y-97024914D02*
X95570732Y-97072533D01*
X94015160Y-99914104D02*
X94491350Y-99914104D01*
X93919922Y-100199819D02*
X94253255Y-99199819D01*
X94253255Y-99199819D02*
X94586588Y-100199819D01*
X95491350Y-100104580D02*
X95443731Y-100152200D01*
X95443731Y-100152200D02*
X95300874Y-100199819D01*
X95300874Y-100199819D02*
X95205636Y-100199819D01*
X95205636Y-100199819D02*
X95062779Y-100152200D01*
X95062779Y-100152200D02*
X94967541Y-100056961D01*
X94967541Y-100056961D02*
X94919922Y-99961723D01*
X94919922Y-99961723D02*
X94872303Y-99771247D01*
X94872303Y-99771247D02*
X94872303Y-99628390D01*
X94872303Y-99628390D02*
X94919922Y-99437914D01*
X94919922Y-99437914D02*
X94967541Y-99342676D01*
X94967541Y-99342676D02*
X95062779Y-99247438D01*
X95062779Y-99247438D02*
X95205636Y-99199819D01*
X95205636Y-99199819D02*
X95300874Y-99199819D01*
X95300874Y-99199819D02*
X95443731Y-99247438D01*
X95443731Y-99247438D02*
X95491350Y-99295057D01*
X96491350Y-100104580D02*
X96443731Y-100152200D01*
X96443731Y-100152200D02*
X96300874Y-100199819D01*
X96300874Y-100199819D02*
X96205636Y-100199819D01*
X96205636Y-100199819D02*
X96062779Y-100152200D01*
X96062779Y-100152200D02*
X95967541Y-100056961D01*
X95967541Y-100056961D02*
X95919922Y-99961723D01*
X95919922Y-99961723D02*
X95872303Y-99771247D01*
X95872303Y-99771247D02*
X95872303Y-99628390D01*
X95872303Y-99628390D02*
X95919922Y-99437914D01*
X95919922Y-99437914D02*
X95967541Y-99342676D01*
X95967541Y-99342676D02*
X96062779Y-99247438D01*
X96062779Y-99247438D02*
X96205636Y-99199819D01*
X96205636Y-99199819D02*
X96300874Y-99199819D01*
X96300874Y-99199819D02*
X96443731Y-99247438D01*
X96443731Y-99247438D02*
X96491350Y-99295057D01*
X96919922Y-99676009D02*
X97253255Y-99676009D01*
X97396112Y-100199819D02*
X96919922Y-100199819D01*
X96919922Y-100199819D02*
X96919922Y-99199819D01*
X96919922Y-99199819D02*
X97396112Y-99199819D01*
X98300874Y-100199819D02*
X97824684Y-100199819D01*
X97824684Y-100199819D02*
X97824684Y-99199819D01*
X93919922Y-104406819D02*
X94253255Y-105406819D01*
X94253255Y-105406819D02*
X94586588Y-104406819D01*
X94919922Y-105406819D02*
X94919922Y-104406819D01*
X95396112Y-105406819D02*
X95396112Y-104406819D01*
X95396112Y-104406819D02*
X95967540Y-105406819D01*
X95967540Y-105406819D02*
X95967540Y-104406819D01*
X94538969Y-112026819D02*
X94062779Y-112026819D01*
X94062779Y-112026819D02*
X94015160Y-112503009D01*
X94015160Y-112503009D02*
X94062779Y-112455390D01*
X94062779Y-112455390D02*
X94158017Y-112407771D01*
X94158017Y-112407771D02*
X94396112Y-112407771D01*
X94396112Y-112407771D02*
X94491350Y-112455390D01*
X94491350Y-112455390D02*
X94538969Y-112503009D01*
X94538969Y-112503009D02*
X94586588Y-112598247D01*
X94586588Y-112598247D02*
X94586588Y-112836342D01*
X94586588Y-112836342D02*
X94538969Y-112931580D01*
X94538969Y-112931580D02*
X94491350Y-112979200D01*
X94491350Y-112979200D02*
X94396112Y-113026819D01*
X94396112Y-113026819D02*
X94158017Y-113026819D01*
X94158017Y-113026819D02*
X94062779Y-112979200D01*
X94062779Y-112979200D02*
X94015160Y-112931580D01*
X94872303Y-112026819D02*
X95205636Y-113026819D01*
X95205636Y-113026819D02*
X95538969Y-112026819D01*
X96396112Y-113026819D02*
X95824684Y-113026819D01*
X96110398Y-113026819D02*
X96110398Y-112026819D01*
X96110398Y-112026819D02*
X96015160Y-112169676D01*
X96015160Y-112169676D02*
X95919922Y-112264914D01*
X95919922Y-112264914D02*
X95824684Y-112312533D01*
X93967541Y-114566819D02*
X94586588Y-114566819D01*
X94586588Y-114566819D02*
X94253255Y-114947771D01*
X94253255Y-114947771D02*
X94396112Y-114947771D01*
X94396112Y-114947771D02*
X94491350Y-114995390D01*
X94491350Y-114995390D02*
X94538969Y-115043009D01*
X94538969Y-115043009D02*
X94586588Y-115138247D01*
X94586588Y-115138247D02*
X94586588Y-115376342D01*
X94586588Y-115376342D02*
X94538969Y-115471580D01*
X94538969Y-115471580D02*
X94491350Y-115519200D01*
X94491350Y-115519200D02*
X94396112Y-115566819D01*
X94396112Y-115566819D02*
X94110398Y-115566819D01*
X94110398Y-115566819D02*
X94015160Y-115519200D01*
X94015160Y-115519200D02*
X93967541Y-115471580D01*
X94872303Y-114566819D02*
X95205636Y-115566819D01*
X95205636Y-115566819D02*
X95538969Y-114566819D01*
X95777065Y-114566819D02*
X96396112Y-114566819D01*
X96396112Y-114566819D02*
X96062779Y-114947771D01*
X96062779Y-114947771D02*
X96205636Y-114947771D01*
X96205636Y-114947771D02*
X96300874Y-114995390D01*
X96300874Y-114995390D02*
X96348493Y-115043009D01*
X96348493Y-115043009D02*
X96396112Y-115138247D01*
X96396112Y-115138247D02*
X96396112Y-115376342D01*
X96396112Y-115376342D02*
X96348493Y-115471580D01*
X96348493Y-115471580D02*
X96300874Y-115519200D01*
X96300874Y-115519200D02*
X96205636Y-115566819D01*
X96205636Y-115566819D02*
X95919922Y-115566819D01*
X95919922Y-115566819D02*
X95824684Y-115519200D01*
X95824684Y-115519200D02*
X95777065Y-115471580D01*
%TO.C,J4*%
X145716666Y-107023819D02*
X145716666Y-107738104D01*
X145716666Y-107738104D02*
X145669047Y-107880961D01*
X145669047Y-107880961D02*
X145573809Y-107976200D01*
X145573809Y-107976200D02*
X145430952Y-108023819D01*
X145430952Y-108023819D02*
X145335714Y-108023819D01*
X146621428Y-107357152D02*
X146621428Y-108023819D01*
X146383333Y-106976200D02*
X146145238Y-107690485D01*
X146145238Y-107690485D02*
X146764285Y-107690485D01*
%TO.C,A1*%
X122228780Y-88087200D02*
X122276400Y-88134819D01*
X122276400Y-88134819D02*
X122324019Y-88087200D01*
X122324019Y-88087200D02*
X122276400Y-88039581D01*
X122276400Y-88039581D02*
X122228780Y-88087200D01*
X122228780Y-88087200D02*
X122324019Y-88087200D01*
X137691905Y-87526019D02*
X137691905Y-86526019D01*
X137691905Y-86526019D02*
X137930000Y-86526019D01*
X137930000Y-86526019D02*
X138072857Y-86573638D01*
X138072857Y-86573638D02*
X138168095Y-86668876D01*
X138168095Y-86668876D02*
X138215714Y-86764114D01*
X138215714Y-86764114D02*
X138263333Y-86954590D01*
X138263333Y-86954590D02*
X138263333Y-87097447D01*
X138263333Y-87097447D02*
X138215714Y-87287923D01*
X138215714Y-87287923D02*
X138168095Y-87383161D01*
X138168095Y-87383161D02*
X138072857Y-87478400D01*
X138072857Y-87478400D02*
X137930000Y-87526019D01*
X137930000Y-87526019D02*
X137691905Y-87526019D01*
X138882381Y-86526019D02*
X138977619Y-86526019D01*
X138977619Y-86526019D02*
X139072857Y-86573638D01*
X139072857Y-86573638D02*
X139120476Y-86621257D01*
X139120476Y-86621257D02*
X139168095Y-86716495D01*
X139168095Y-86716495D02*
X139215714Y-86906971D01*
X139215714Y-86906971D02*
X139215714Y-87145066D01*
X139215714Y-87145066D02*
X139168095Y-87335542D01*
X139168095Y-87335542D02*
X139120476Y-87430780D01*
X139120476Y-87430780D02*
X139072857Y-87478400D01*
X139072857Y-87478400D02*
X138977619Y-87526019D01*
X138977619Y-87526019D02*
X138882381Y-87526019D01*
X138882381Y-87526019D02*
X138787143Y-87478400D01*
X138787143Y-87478400D02*
X138739524Y-87430780D01*
X138739524Y-87430780D02*
X138691905Y-87335542D01*
X138691905Y-87335542D02*
X138644286Y-87145066D01*
X138644286Y-87145066D02*
X138644286Y-86906971D01*
X138644286Y-86906971D02*
X138691905Y-86716495D01*
X138691905Y-86716495D02*
X138739524Y-86621257D01*
X138739524Y-86621257D02*
X138787143Y-86573638D01*
X138787143Y-86573638D02*
X138882381Y-86526019D01*
%TO.C,R8*%
X83526333Y-90751819D02*
X83193000Y-90275628D01*
X82954905Y-90751819D02*
X82954905Y-89751819D01*
X82954905Y-89751819D02*
X83335857Y-89751819D01*
X83335857Y-89751819D02*
X83431095Y-89799438D01*
X83431095Y-89799438D02*
X83478714Y-89847057D01*
X83478714Y-89847057D02*
X83526333Y-89942295D01*
X83526333Y-89942295D02*
X83526333Y-90085152D01*
X83526333Y-90085152D02*
X83478714Y-90180390D01*
X83478714Y-90180390D02*
X83431095Y-90228009D01*
X83431095Y-90228009D02*
X83335857Y-90275628D01*
X83335857Y-90275628D02*
X82954905Y-90275628D01*
X84097762Y-90180390D02*
X84002524Y-90132771D01*
X84002524Y-90132771D02*
X83954905Y-90085152D01*
X83954905Y-90085152D02*
X83907286Y-89989914D01*
X83907286Y-89989914D02*
X83907286Y-89942295D01*
X83907286Y-89942295D02*
X83954905Y-89847057D01*
X83954905Y-89847057D02*
X84002524Y-89799438D01*
X84002524Y-89799438D02*
X84097762Y-89751819D01*
X84097762Y-89751819D02*
X84288238Y-89751819D01*
X84288238Y-89751819D02*
X84383476Y-89799438D01*
X84383476Y-89799438D02*
X84431095Y-89847057D01*
X84431095Y-89847057D02*
X84478714Y-89942295D01*
X84478714Y-89942295D02*
X84478714Y-89989914D01*
X84478714Y-89989914D02*
X84431095Y-90085152D01*
X84431095Y-90085152D02*
X84383476Y-90132771D01*
X84383476Y-90132771D02*
X84288238Y-90180390D01*
X84288238Y-90180390D02*
X84097762Y-90180390D01*
X84097762Y-90180390D02*
X84002524Y-90228009D01*
X84002524Y-90228009D02*
X83954905Y-90275628D01*
X83954905Y-90275628D02*
X83907286Y-90370866D01*
X83907286Y-90370866D02*
X83907286Y-90561342D01*
X83907286Y-90561342D02*
X83954905Y-90656580D01*
X83954905Y-90656580D02*
X84002524Y-90704200D01*
X84002524Y-90704200D02*
X84097762Y-90751819D01*
X84097762Y-90751819D02*
X84288238Y-90751819D01*
X84288238Y-90751819D02*
X84383476Y-90704200D01*
X84383476Y-90704200D02*
X84431095Y-90656580D01*
X84431095Y-90656580D02*
X84478714Y-90561342D01*
X84478714Y-90561342D02*
X84478714Y-90370866D01*
X84478714Y-90370866D02*
X84431095Y-90275628D01*
X84431095Y-90275628D02*
X84383476Y-90228009D01*
X84383476Y-90228009D02*
X84288238Y-90180390D01*
%TO.C,R7*%
X87336333Y-90751819D02*
X87003000Y-90275628D01*
X86764905Y-90751819D02*
X86764905Y-89751819D01*
X86764905Y-89751819D02*
X87145857Y-89751819D01*
X87145857Y-89751819D02*
X87241095Y-89799438D01*
X87241095Y-89799438D02*
X87288714Y-89847057D01*
X87288714Y-89847057D02*
X87336333Y-89942295D01*
X87336333Y-89942295D02*
X87336333Y-90085152D01*
X87336333Y-90085152D02*
X87288714Y-90180390D01*
X87288714Y-90180390D02*
X87241095Y-90228009D01*
X87241095Y-90228009D02*
X87145857Y-90275628D01*
X87145857Y-90275628D02*
X86764905Y-90275628D01*
X87669667Y-89751819D02*
X88336333Y-89751819D01*
X88336333Y-89751819D02*
X87907762Y-90751819D01*
%TO.C,R6*%
X116419333Y-89608819D02*
X116086000Y-89132628D01*
X115847905Y-89608819D02*
X115847905Y-88608819D01*
X115847905Y-88608819D02*
X116228857Y-88608819D01*
X116228857Y-88608819D02*
X116324095Y-88656438D01*
X116324095Y-88656438D02*
X116371714Y-88704057D01*
X116371714Y-88704057D02*
X116419333Y-88799295D01*
X116419333Y-88799295D02*
X116419333Y-88942152D01*
X116419333Y-88942152D02*
X116371714Y-89037390D01*
X116371714Y-89037390D02*
X116324095Y-89085009D01*
X116324095Y-89085009D02*
X116228857Y-89132628D01*
X116228857Y-89132628D02*
X115847905Y-89132628D01*
X117276476Y-88608819D02*
X117086000Y-88608819D01*
X117086000Y-88608819D02*
X116990762Y-88656438D01*
X116990762Y-88656438D02*
X116943143Y-88704057D01*
X116943143Y-88704057D02*
X116847905Y-88846914D01*
X116847905Y-88846914D02*
X116800286Y-89037390D01*
X116800286Y-89037390D02*
X116800286Y-89418342D01*
X116800286Y-89418342D02*
X116847905Y-89513580D01*
X116847905Y-89513580D02*
X116895524Y-89561200D01*
X116895524Y-89561200D02*
X116990762Y-89608819D01*
X116990762Y-89608819D02*
X117181238Y-89608819D01*
X117181238Y-89608819D02*
X117276476Y-89561200D01*
X117276476Y-89561200D02*
X117324095Y-89513580D01*
X117324095Y-89513580D02*
X117371714Y-89418342D01*
X117371714Y-89418342D02*
X117371714Y-89180247D01*
X117371714Y-89180247D02*
X117324095Y-89085009D01*
X117324095Y-89085009D02*
X117276476Y-89037390D01*
X117276476Y-89037390D02*
X117181238Y-88989771D01*
X117181238Y-88989771D02*
X116990762Y-88989771D01*
X116990762Y-88989771D02*
X116895524Y-89037390D01*
X116895524Y-89037390D02*
X116847905Y-89085009D01*
X116847905Y-89085009D02*
X116800286Y-89180247D01*
%TO.C,R5*%
X120483333Y-89608819D02*
X120150000Y-89132628D01*
X119911905Y-89608819D02*
X119911905Y-88608819D01*
X119911905Y-88608819D02*
X120292857Y-88608819D01*
X120292857Y-88608819D02*
X120388095Y-88656438D01*
X120388095Y-88656438D02*
X120435714Y-88704057D01*
X120435714Y-88704057D02*
X120483333Y-88799295D01*
X120483333Y-88799295D02*
X120483333Y-88942152D01*
X120483333Y-88942152D02*
X120435714Y-89037390D01*
X120435714Y-89037390D02*
X120388095Y-89085009D01*
X120388095Y-89085009D02*
X120292857Y-89132628D01*
X120292857Y-89132628D02*
X119911905Y-89132628D01*
X121388095Y-88608819D02*
X120911905Y-88608819D01*
X120911905Y-88608819D02*
X120864286Y-89085009D01*
X120864286Y-89085009D02*
X120911905Y-89037390D01*
X120911905Y-89037390D02*
X121007143Y-88989771D01*
X121007143Y-88989771D02*
X121245238Y-88989771D01*
X121245238Y-88989771D02*
X121340476Y-89037390D01*
X121340476Y-89037390D02*
X121388095Y-89085009D01*
X121388095Y-89085009D02*
X121435714Y-89180247D01*
X121435714Y-89180247D02*
X121435714Y-89418342D01*
X121435714Y-89418342D02*
X121388095Y-89513580D01*
X121388095Y-89513580D02*
X121340476Y-89561200D01*
X121340476Y-89561200D02*
X121245238Y-89608819D01*
X121245238Y-89608819D02*
X121007143Y-89608819D01*
X121007143Y-89608819D02*
X120911905Y-89561200D01*
X120911905Y-89561200D02*
X120864286Y-89513580D01*
%TO.C,R4*%
X132675333Y-89608819D02*
X132342000Y-89132628D01*
X132103905Y-89608819D02*
X132103905Y-88608819D01*
X132103905Y-88608819D02*
X132484857Y-88608819D01*
X132484857Y-88608819D02*
X132580095Y-88656438D01*
X132580095Y-88656438D02*
X132627714Y-88704057D01*
X132627714Y-88704057D02*
X132675333Y-88799295D01*
X132675333Y-88799295D02*
X132675333Y-88942152D01*
X132675333Y-88942152D02*
X132627714Y-89037390D01*
X132627714Y-89037390D02*
X132580095Y-89085009D01*
X132580095Y-89085009D02*
X132484857Y-89132628D01*
X132484857Y-89132628D02*
X132103905Y-89132628D01*
X133532476Y-88942152D02*
X133532476Y-89608819D01*
X133294381Y-88561200D02*
X133056286Y-89275485D01*
X133056286Y-89275485D02*
X133675333Y-89275485D01*
%TO.C,R3*%
X124547333Y-89608819D02*
X124214000Y-89132628D01*
X123975905Y-89608819D02*
X123975905Y-88608819D01*
X123975905Y-88608819D02*
X124356857Y-88608819D01*
X124356857Y-88608819D02*
X124452095Y-88656438D01*
X124452095Y-88656438D02*
X124499714Y-88704057D01*
X124499714Y-88704057D02*
X124547333Y-88799295D01*
X124547333Y-88799295D02*
X124547333Y-88942152D01*
X124547333Y-88942152D02*
X124499714Y-89037390D01*
X124499714Y-89037390D02*
X124452095Y-89085009D01*
X124452095Y-89085009D02*
X124356857Y-89132628D01*
X124356857Y-89132628D02*
X123975905Y-89132628D01*
X124880667Y-88608819D02*
X125499714Y-88608819D01*
X125499714Y-88608819D02*
X125166381Y-88989771D01*
X125166381Y-88989771D02*
X125309238Y-88989771D01*
X125309238Y-88989771D02*
X125404476Y-89037390D01*
X125404476Y-89037390D02*
X125452095Y-89085009D01*
X125452095Y-89085009D02*
X125499714Y-89180247D01*
X125499714Y-89180247D02*
X125499714Y-89418342D01*
X125499714Y-89418342D02*
X125452095Y-89513580D01*
X125452095Y-89513580D02*
X125404476Y-89561200D01*
X125404476Y-89561200D02*
X125309238Y-89608819D01*
X125309238Y-89608819D02*
X125023524Y-89608819D01*
X125023524Y-89608819D02*
X124928286Y-89561200D01*
X124928286Y-89561200D02*
X124880667Y-89513580D01*
%TO.C,R2*%
X131506933Y-123644819D02*
X131173600Y-123168628D01*
X130935505Y-123644819D02*
X130935505Y-122644819D01*
X130935505Y-122644819D02*
X131316457Y-122644819D01*
X131316457Y-122644819D02*
X131411695Y-122692438D01*
X131411695Y-122692438D02*
X131459314Y-122740057D01*
X131459314Y-122740057D02*
X131506933Y-122835295D01*
X131506933Y-122835295D02*
X131506933Y-122978152D01*
X131506933Y-122978152D02*
X131459314Y-123073390D01*
X131459314Y-123073390D02*
X131411695Y-123121009D01*
X131411695Y-123121009D02*
X131316457Y-123168628D01*
X131316457Y-123168628D02*
X130935505Y-123168628D01*
X131887886Y-122740057D02*
X131935505Y-122692438D01*
X131935505Y-122692438D02*
X132030743Y-122644819D01*
X132030743Y-122644819D02*
X132268838Y-122644819D01*
X132268838Y-122644819D02*
X132364076Y-122692438D01*
X132364076Y-122692438D02*
X132411695Y-122740057D01*
X132411695Y-122740057D02*
X132459314Y-122835295D01*
X132459314Y-122835295D02*
X132459314Y-122930533D01*
X132459314Y-122930533D02*
X132411695Y-123073390D01*
X132411695Y-123073390D02*
X131840267Y-123644819D01*
X131840267Y-123644819D02*
X132459314Y-123644819D01*
%TO.C,R1*%
X128611333Y-89608819D02*
X128278000Y-89132628D01*
X128039905Y-89608819D02*
X128039905Y-88608819D01*
X128039905Y-88608819D02*
X128420857Y-88608819D01*
X128420857Y-88608819D02*
X128516095Y-88656438D01*
X128516095Y-88656438D02*
X128563714Y-88704057D01*
X128563714Y-88704057D02*
X128611333Y-88799295D01*
X128611333Y-88799295D02*
X128611333Y-88942152D01*
X128611333Y-88942152D02*
X128563714Y-89037390D01*
X128563714Y-89037390D02*
X128516095Y-89085009D01*
X128516095Y-89085009D02*
X128420857Y-89132628D01*
X128420857Y-89132628D02*
X128039905Y-89132628D01*
X129563714Y-89608819D02*
X128992286Y-89608819D01*
X129278000Y-89608819D02*
X129278000Y-88608819D01*
X129278000Y-88608819D02*
X129182762Y-88751676D01*
X129182762Y-88751676D02*
X129087524Y-88846914D01*
X129087524Y-88846914D02*
X128992286Y-88894533D01*
%TO.C,J6*%
X150322666Y-159601819D02*
X150322666Y-160316104D01*
X150322666Y-160316104D02*
X150275047Y-160458961D01*
X150275047Y-160458961D02*
X150179809Y-160554200D01*
X150179809Y-160554200D02*
X150036952Y-160601819D01*
X150036952Y-160601819D02*
X149941714Y-160601819D01*
X151227428Y-159601819D02*
X151036952Y-159601819D01*
X151036952Y-159601819D02*
X150941714Y-159649438D01*
X150941714Y-159649438D02*
X150894095Y-159697057D01*
X150894095Y-159697057D02*
X150798857Y-159839914D01*
X150798857Y-159839914D02*
X150751238Y-160030390D01*
X150751238Y-160030390D02*
X150751238Y-160411342D01*
X150751238Y-160411342D02*
X150798857Y-160506580D01*
X150798857Y-160506580D02*
X150846476Y-160554200D01*
X150846476Y-160554200D02*
X150941714Y-160601819D01*
X150941714Y-160601819D02*
X151132190Y-160601819D01*
X151132190Y-160601819D02*
X151227428Y-160554200D01*
X151227428Y-160554200D02*
X151275047Y-160506580D01*
X151275047Y-160506580D02*
X151322666Y-160411342D01*
X151322666Y-160411342D02*
X151322666Y-160173247D01*
X151322666Y-160173247D02*
X151275047Y-160078009D01*
X151275047Y-160078009D02*
X151227428Y-160030390D01*
X151227428Y-160030390D02*
X151132190Y-159982771D01*
X151132190Y-159982771D02*
X150941714Y-159982771D01*
X150941714Y-159982771D02*
X150846476Y-160030390D01*
X150846476Y-160030390D02*
X150798857Y-160078009D01*
X150798857Y-160078009D02*
X150751238Y-160173247D01*
%TO.C,J3*%
X103933666Y-133439819D02*
X103933666Y-134154104D01*
X103933666Y-134154104D02*
X103886047Y-134296961D01*
X103886047Y-134296961D02*
X103790809Y-134392200D01*
X103790809Y-134392200D02*
X103647952Y-134439819D01*
X103647952Y-134439819D02*
X103552714Y-134439819D01*
X104314619Y-133439819D02*
X104933666Y-133439819D01*
X104933666Y-133439819D02*
X104600333Y-133820771D01*
X104600333Y-133820771D02*
X104743190Y-133820771D01*
X104743190Y-133820771D02*
X104838428Y-133868390D01*
X104838428Y-133868390D02*
X104886047Y-133916009D01*
X104886047Y-133916009D02*
X104933666Y-134011247D01*
X104933666Y-134011247D02*
X104933666Y-134249342D01*
X104933666Y-134249342D02*
X104886047Y-134344580D01*
X104886047Y-134344580D02*
X104838428Y-134392200D01*
X104838428Y-134392200D02*
X104743190Y-134439819D01*
X104743190Y-134439819D02*
X104457476Y-134439819D01*
X104457476Y-134439819D02*
X104362238Y-134392200D01*
X104362238Y-134392200D02*
X104314619Y-134344580D01*
%TO.C,J2*%
X107870666Y-110706819D02*
X107870666Y-111421104D01*
X107870666Y-111421104D02*
X107823047Y-111563961D01*
X107823047Y-111563961D02*
X107727809Y-111659200D01*
X107727809Y-111659200D02*
X107584952Y-111706819D01*
X107584952Y-111706819D02*
X107489714Y-111706819D01*
X108299238Y-110802057D02*
X108346857Y-110754438D01*
X108346857Y-110754438D02*
X108442095Y-110706819D01*
X108442095Y-110706819D02*
X108680190Y-110706819D01*
X108680190Y-110706819D02*
X108775428Y-110754438D01*
X108775428Y-110754438D02*
X108823047Y-110802057D01*
X108823047Y-110802057D02*
X108870666Y-110897295D01*
X108870666Y-110897295D02*
X108870666Y-110992533D01*
X108870666Y-110992533D02*
X108823047Y-111135390D01*
X108823047Y-111135390D02*
X108251619Y-111706819D01*
X108251619Y-111706819D02*
X108870666Y-111706819D01*
D11*
%TO.C,J4*%
X146050000Y-99000000D02*
X147380000Y-99000000D01*
X147380000Y-101600000D02*
X147380000Y-106740000D01*
X144720000Y-101600000D02*
X144720000Y-106740000D01*
X144720000Y-101600000D02*
X147380000Y-101600000D01*
X147380000Y-99000000D02*
X147380000Y-100330000D01*
X144720000Y-106740000D02*
X147380000Y-106740000D01*
%TO.C,REF\u002A\u002A*%
X147000000Y-96835000D02*
X145100000Y-96835000D01*
X145100000Y-94935000D02*
X147000000Y-94935000D01*
X147000000Y-94935000D02*
X147000000Y-96835000D01*
X145100000Y-96835000D02*
X145100000Y-94935000D01*
X147000000Y-93152000D02*
X145100000Y-93152000D01*
X145100000Y-91252000D02*
X147000000Y-91252000D01*
X147000000Y-91252000D02*
X147000000Y-93152000D01*
X145100000Y-93152000D02*
X145100000Y-91252000D01*
X147000000Y-89215000D02*
X145100000Y-89215000D01*
X145100000Y-87315000D02*
X147000000Y-87315000D01*
X147000000Y-87315000D02*
X147000000Y-89215000D01*
X145100000Y-89215000D02*
X145100000Y-87315000D01*
D10*
%TO.C,A1*%
X143205200Y-150571200D02*
X143205200Y-86055200D01*
X130505200Y-84531200D02*
X141681200Y-84531200D01*
X89865200Y-150571200D02*
X89865200Y-84531200D01*
X143205200Y-150571200D02*
X89865200Y-150571200D01*
X89865200Y-84531200D02*
X91135200Y-84531200D01*
X91135200Y-84531200D02*
X93675200Y-81991200D01*
X127965200Y-81991200D02*
X130505200Y-84531200D01*
X143205200Y-86055200D02*
X141681200Y-84531200D01*
X93675200Y-81991200D02*
X127965200Y-81991200D01*
D11*
%TO.C,R8*%
X85438400Y-93881200D02*
X81998400Y-93881200D01*
X83718400Y-93191200D02*
X83718400Y-93881200D01*
X83718400Y-103811200D02*
X83718400Y-103121200D01*
X81998400Y-103121200D02*
X85438400Y-103121200D01*
X81998400Y-93881200D02*
X81998400Y-103121200D01*
X85438400Y-103121200D02*
X85438400Y-93881200D01*
%TO.C,R7*%
X85757600Y-93881200D02*
X85757600Y-103121200D01*
X89197600Y-103121200D02*
X89197600Y-93881200D01*
X89197600Y-93881200D02*
X85757600Y-93881200D01*
X87477600Y-93191200D02*
X87477600Y-93881200D01*
X87477600Y-103811200D02*
X87477600Y-103121200D01*
X85757600Y-103121200D02*
X89197600Y-103121200D01*
%TO.C,R6*%
X114815200Y-102003600D02*
X118255200Y-102003600D01*
X116535200Y-102693600D02*
X116535200Y-102003600D01*
X116535200Y-92073600D02*
X116535200Y-92763600D01*
X118255200Y-92763600D02*
X114815200Y-92763600D01*
X118255200Y-102003600D02*
X118255200Y-92763600D01*
X114815200Y-92763600D02*
X114815200Y-102003600D01*
%TO.C,R5*%
X118879200Y-102003600D02*
X122319200Y-102003600D01*
X120599200Y-102693600D02*
X120599200Y-102003600D01*
X120599200Y-92073600D02*
X120599200Y-92763600D01*
X122319200Y-92763600D02*
X118879200Y-92763600D01*
X122319200Y-102003600D02*
X122319200Y-92763600D01*
X118879200Y-92763600D02*
X118879200Y-102003600D01*
%TO.C,R4*%
X131071200Y-101978200D02*
X134511200Y-101978200D01*
X132791200Y-102668200D02*
X132791200Y-101978200D01*
X132791200Y-92048200D02*
X132791200Y-92738200D01*
X134511200Y-92738200D02*
X131071200Y-92738200D01*
X134511200Y-101978200D02*
X134511200Y-92738200D01*
X131071200Y-92738200D02*
X131071200Y-101978200D01*
%TO.C,R3*%
X126383200Y-92763600D02*
X122943200Y-92763600D01*
X124663200Y-92073600D02*
X124663200Y-92763600D01*
X124663200Y-102693600D02*
X124663200Y-102003600D01*
X122943200Y-102003600D02*
X126383200Y-102003600D01*
X122943200Y-92763600D02*
X122943200Y-102003600D01*
X126383200Y-102003600D02*
X126383200Y-92763600D01*
%TO.C,R2*%
X136293600Y-118777600D02*
X127053600Y-118777600D01*
X127053600Y-122217600D02*
X136293600Y-122217600D01*
X136293600Y-122217600D02*
X136293600Y-118777600D01*
X136983600Y-120497600D02*
X136293600Y-120497600D01*
X126363600Y-120497600D02*
X127053600Y-120497600D01*
X127053600Y-118777600D02*
X127053600Y-122217600D01*
%TO.C,R1*%
X130447200Y-92738200D02*
X127007200Y-92738200D01*
X128727200Y-92048200D02*
X128727200Y-92738200D01*
X128727200Y-102668200D02*
X128727200Y-101978200D01*
X127007200Y-101978200D02*
X130447200Y-101978200D01*
X127007200Y-92738200D02*
X127007200Y-101978200D01*
X130447200Y-101978200D02*
X130447200Y-92738200D01*
%TO.C,J6*%
X147056000Y-161477000D02*
X139376000Y-161477000D01*
X148326000Y-158817000D02*
X149656000Y-158817000D01*
X139376000Y-158817000D02*
X139376000Y-161477000D01*
X147056000Y-158817000D02*
X147056000Y-161477000D01*
X149656000Y-158817000D02*
X149656000Y-160147000D01*
X147056000Y-158817000D02*
X139376000Y-158817000D01*
%TO.C,J3*%
X130438200Y-128921200D02*
X130438200Y-130251200D01*
X129108200Y-128921200D02*
X130438200Y-128921200D01*
X127838200Y-128921200D02*
X104918200Y-128921200D01*
X104918200Y-128921200D02*
X104918200Y-131581200D01*
X127838200Y-131581200D02*
X104918200Y-131581200D01*
X130438200Y-136541200D02*
X130438200Y-137871200D01*
X129108200Y-136541200D02*
X130438200Y-136541200D01*
X127838200Y-136541200D02*
X104918200Y-136541200D01*
X104918200Y-136541200D02*
X104918200Y-139201200D01*
X127838200Y-139201200D02*
X104918200Y-139201200D01*
%TO.C,J2*%
X134375200Y-106061200D02*
X134375200Y-107391200D01*
X133045200Y-106061200D02*
X134375200Y-106061200D01*
X131775200Y-106061200D02*
X108855200Y-106061200D01*
X108855200Y-106061200D02*
X108855200Y-108721200D01*
X131775200Y-108721200D02*
X108855200Y-108721200D01*
X134375200Y-113681200D02*
X134375200Y-115011200D01*
X133045200Y-113681200D02*
X134375200Y-113681200D01*
X131775200Y-113681200D02*
X108855200Y-113681200D01*
X108855200Y-113681200D02*
X108855200Y-116341200D01*
X131775200Y-116341200D02*
X108855200Y-116341200D01*
%TO.C,J1*%
X83496000Y-108779000D02*
X83496000Y-110109000D01*
X83496000Y-111379000D02*
X83496000Y-157099000D01*
X84826000Y-108779000D02*
X83496000Y-108779000D01*
X86096000Y-108779000D02*
X86096000Y-111379000D01*
X86096000Y-111379000D02*
X83496000Y-111379000D01*
X88696000Y-108779000D02*
X86096000Y-108779000D01*
X88696000Y-108779000D02*
X88696000Y-157099000D01*
X88696000Y-157099000D02*
X83496000Y-157099000D01*
X144456000Y-108779000D02*
X144456000Y-110109000D01*
X144456000Y-111379000D02*
X144456000Y-157099000D01*
X145786000Y-108779000D02*
X144456000Y-108779000D01*
X147056000Y-108779000D02*
X147056000Y-111379000D01*
X147056000Y-111379000D02*
X144456000Y-111379000D01*
X149656000Y-108779000D02*
X147056000Y-108779000D01*
X149656000Y-108779000D02*
X149656000Y-157099000D01*
X149656000Y-157099000D02*
X144456000Y-157099000D01*
%TD*%
M02*
